<?xml version="1.0" encoding="utf-8"?>
<!-- Generator: Adobe Illustrator 15.0.0, SVG Export Plug-In . SVG Version: 6.00 Build 0)  -->
<!DOCTYPE svg PUBLIC "-//W3C//DTD SVG 1.1//EN" "http://www.w3.org/Graphics/SVG/1.1/DTD/svg11.dtd">
<svg version="1.1" id="圖層_1" xmlns="http://www.w3.org/2000/svg" xmlns:xlink="http://www.w3.org/1999/xlink" x="0px" y="0px"
	 width="4661.83px" height="2403.04px" viewBox="0 0 4661.83 2403.04" enable-background="new 0 0 4661.83 2403.04"
	 xml:space="preserve">
<g>
	<defs>
		<rect id="SVGID_1_" y="0.004" width="4661.835" height="2403.036"/>
	</defs>
	<clipPath id="SVGID_2_">
		<use xlink:href="#SVGID_1_"  overflow="visible"/>
	</clipPath>
	<path clip-path="url(#SVGID_2_)" fill="#63A648" d="M1048.672,1015.158c-117.293,3.247-234.414,6.489-351.357,9.726
		c-4.897,56.166-9.826,112.696-14.84,170.198c150.618-2.839,300.992-5.673,451.933-8.518v166.428
		c-9.274,0.771-18.437,1.997-27.623,2.215c-36.975,0.875-73.956,1.796-110.939,2.036c-65.655,0.425-131.314,0.284-196.97,0.543
		c-32.656,0.129-65.309,0.609-97.963,0.967c-2.291,0.024-4.578,0.347-8.481,0.662c2.907,4.713,5.077,8.689,7.674,12.364
		c15.341,21.708,34.774,39.448,55.303,56.011c50.201,40.498,104.613,74.663,161.139,105.479
		c61.161,33.345,123.858,63.423,190.249,85.083c18.618,6.075,37.636,10.928,57.865,16.739
		c-15.003,55.322-36.973,125.047-52.201,181.196c-2.798-0.446-4.75-0.557-6.587-1.077c-83.254-23.556-159.806-44.626-240.524-81.59
		c-54.085-19.216-105.213-53.666-149.213-91.021c-30.608-25.984-57.274-55.786-82.398-86.937
		c-18.398-22.812-35.899-46.344-53.804-69.552c-0.999-1.294-2.042-2.555-3.708-4.633c-0.906,1.523-1.661,2.408-2.007,3.432
		c-17.899,52.96-47.796,98.714-84.989,139.874c-69.365,76.762-150.97,136.495-247.293,175.257
		c-33.902,13.642-68.935,22.725-105.872,22.097c-11.606-0.197-23.279-0.479-35.045-5.549
		c-7.113-53.758-14.003-107.708-20.822-162.648c20.938,2.397,40.019,0.698,58.893-3.774c28.606-6.779,54.242-19.943,78.408-36.286
		c22.725-15.369,43.098-33.55,62.677-52.651c57.147-55.754,108.26-116.716,155.84-180.718c0.971-1.305,1.823-2.699,2.777-4.123
		c-7.945-2.221-104.473,2.729-186.089,8.296c-61.801,4.216-123.706,6.907-184.979,10.245
		c-17.857-49.863-16.355-100.759-12.73-152.793c144.384-6.994,287.72-13.937,431.115-20.884c5.356-8.673,7.39-18.262,8.58-27.667
		c3.929-31.03,7.644-62.114,10.227-93.277c1.813-21.88,1.679-43.922,2.33-65.894c0.096-3.235-0.281-6.485-0.475-10.464
		c-89.795,5.21-178.819,10.376-267.905,15.546c-14.083,34.691-35.606,63.703-60.476,90.404
		c-14.351,15.409-30.192,29.162-47.839,40.725c-13.262,8.688-27.533,14.785-43.525,16.311c-5.235,0.499-9.439,0.049-12.935-5.028
		c-24.181-35.109-48.662-70.011-73.032-104.989c-0.375-0.539-0.572-1.2-1.061-2.253c0.651-0.793,1.283-1.95,2.241-2.679
		c33.589-25.526,60.17-57.352,83.211-92.368c31.688-48.158,54.728-100.505,73.638-154.674
		c12.821-36.731,24.022-74.028,35.956-111.069c0.801-2.489,1.678-4.953,2.84-8.373c50.187,7.348,100.15,14.663,149.88,21.944
		c5.705,30.277-10.169,112.021-31.61,162.714c70.61-4.25,140.624-8.465,211.933-12.757c0.157-4.126,0.394-7.955,0.436-11.786
		c0.464-42.637,0.822-85.275,1.388-127.91c0.163-12.32,0.831-24.635,1.405-36.946c0.198-4.237,0.815-8.455,1.323-13.503
		c59.617-1.756,118.428-3.488,177.56-5.231c0.433,1.919,0.878,3.145,0.966,4.396c1.733,24.584,3.559,49.163,5.029,73.764
		c0.374,6.251-0.36,12.574-0.677,18.859c-1.408,27.924-2.858,55.846-4.245,83.77c-0.047,0.926,0.416,1.877,0.941,4.062
		c111.626-3.849,223.364-7.702,336.457-11.602V1015.158z M66.856,1093.806c7.538,7.688,15.842,7.55,24.32,7.587
		c-3.452-2.28-6.903-4.559-10.538-6.96c-0.292-5.159-0.581-10.27-0.87-15.382c-0.615-0.179-1.229-0.358-1.844-0.537
		C74.376,1083.416,70.828,1088.318,66.856,1093.806 M112.3,1710.754c3.878,5.932,7.124,10.293,12.812,8.268
		c3.753-1.336,9.487-1.719,10.397-8.268H112.3z M107.322,1111.036c0.085,1.018,0.169,2.036,0.254,3.054
		c5.517,0,11.065,0.334,16.531-0.191c1.785-0.171,3.678-2.359,4.847-4.082c0.401-0.591-1.255-2.576-1.611-3.246
		C120.174,1108.17,113.748,1109.603,107.322,1111.036 M416.344,964.628c-0.081-0.672-0.163-1.344-0.244-2.015
		c-2.462,0.134-4.924,0.268-7.386,0.402c0.027,0.538,0.054,1.075,0.081,1.613H416.344z"/>
	<path clip-path="url(#SVGID_2_)" fill="#63A648" d="M2322.607,1708.658c31.533-29.734,56.408-62.979,77.64-99.026
		c30.043-51.007,52.396-105.408,70.974-161.456c25.697-77.537,44.897-156.703,58.027-237.276
		c7.279-44.663,14.007-89.467,19.063-134.424c3.902-34.705,4.833-69.746,7.021-104.642c0.142-2.242-0.252-4.517-0.473-7.996
		c-61.205,0.537-122.023,1.071-183.454,1.61c-7.561-53.079-12.611-105.536-12.126-159.013h197.821
		c-0.868-38.584-3.228-76.938-4.668-115.986h166.446c0.627,36.113-0.269,72.219-0.702,109.525c4.115,0,7.629,0.092,11.138-0.014
		c64.944-1.969,129.878-4.414,194.834-5.842c93.607-2.059,187.226-4,280.851-4.78c52.286-0.436,104.594,1.558,156.891,2.519
		c3.59,0.066,7.168,0.645,10.443,0.956c2.473,9.3,2.605,139.022,0.232,160.598c-109.253,3.246-218.743,4.013-328.202,5.954
		c-109.191,1.936-218.398,3.052-328.428,4.538c-0.559,43.697-3.639,73.082-4.187,116.029c7.516,0,15.709,0.508,23.822-0.088
		c35.215-2.588,77.634,0.994,112.866-1.333c42.551-2.811,80.407,0.395,123.018-0.492c75.619-1.575,151.273-1.691,226.912-1.954
		c28.647-0.1,57.297,1.076,85.946,1.7c1.607,0.035,3.212,0.341,5.521,0.6c0.969,6.7,2.044,13.195,2.824,19.725
		c3.636,30.411,7.346,60.815,10.625,91.265c0.587,5.445,0.041,11.288-1.288,16.624c-22.712,91.191-64.453,173.082-121.907,247.133
		c-18.983,24.469-38.72,48.354-58.104,72.511c-1.832,2.283-3.619,4.602-6.024,7.667c10.012,8.417,19.54,16.657,29.309,24.604
		c35.303,28.722,74.445,51.526,114.193,73.311c32.7,17.919,65.717,35.266,98.578,52.891c2.901,1.556,5.706,3.286,8.966,5.173
		c-10.85,50.299-21.633,100.285-32.521,150.767c-11.964,0.855-23.009-1.17-33.947-3.882c-17.921-4.443-34.827-11.605-50.362-21.415
		c-46.737-29.518-93.41-59.148-139.694-89.368c-35.693-23.306-70.761-47.568-106.609-71.744c-3.985,4.56-7.442,9.505-11.848,13.367
		c-12.761,11.182-25.189,22.939-39.013,32.677c-70.469,49.639-145.457,91.283-225.03,124.523c-9.16,3.825-18.882,6.354-28.427,9.203
		c-6.104,1.821-10.484-0.026-14.168-5.852c-25.273-39.966-50.886-79.718-76.357-119.558c-1.047-1.638-1.792-3.466-2.854-5.552
		c9.322-2.836,18.234-5.281,26.97-8.255c23.39-7.958,45.527-18.732,67.174-30.547c55.082-30.063,107.907-63.548,156.325-103.642
		c9.199-7.619,18.305-15.46,24.938-26.728c-3.348-4.104-6.823-8.059-9.965-12.265c-14.739-19.739-30.044-39.1-43.932-59.425
		c-29.482-43.146-46.894-91.672-60.436-141.658c-7.304-26.96-11.506-30.16-18.187-57.289c-0.874-3.546-2.369-6.961-3.022-10.539
		c-1.313-7.202-5.541-10.921-12.635-11.952c-10.173-1.478-20.324-3.119-31.403-4.832c-1.74,10.542-3.384,20.284-4.951,30.037
		c-20.396,126.889-53.925,226.654-102.013,346.04c-15.35,38.112-34.026,74.483-59.251,107.183
		c-17.032,22.079-36.634,41.383-60.744,55.765c-14.992,8.944-31.083,14.998-48.076,19.026c-7.203,1.706-12.239,0.377-17.772-4.851
		c-23.013-21.729-46.554-42.901-69.884-64.297C2333.94,1719.279,2328.639,1714.275,2322.607,1708.658 M3113.143,1217.163
		c-74.463-1.754-147.809,8.576-222.365,8.607c0.794,3.455,1.214,6.025,1.977,8.489c8.155,26.353,15.684,52.925,24.78,78.949
		c6.894,19.718,14.922,39.16,24.06,57.939c9.849,20.236,25.239,35.676,46.189,45.178c5.546,2.515,10.225,2.694,14.607-1.384
		c9.474-8.814,19.871-16.928,27.944-26.9c28.906-35.697,50.334-75.824,67.226-118.421
		C3104.172,1252.944,3109.645,1235.912,3113.143,1217.163 M3015.531,881.049c13.15,4.835,25.45,3.585,33.644-3.419
		C3031.354,869.15,3024.296,869.868,3015.531,881.049 M3169.828,1243.637c-6.174,9.623-7.537,18.507-4.559,28.492
		C3174.112,1263.248,3175.686,1254.271,3169.828,1243.637 M3208.635,830.624c3.83,1.026,7.16,1.917,11.12,2.978v-9.356
		c-3.616,1.513-6.334,2.548-8.942,3.805C3210.063,828.412,3209.624,829.416,3208.635,830.624"/>
	<path clip-path="url(#SVGID_2_)" fill="#63A648" d="M4636.194,1292.803c1.761,42.369,3.444,82.83,5.172,124.405
		c-382.542,6.966-763.884,13.911-1144.823,20.847c-6.594-13.33-13.611-94.374-10.53-120.64c6.524-0.591,13.353-1.659,20.196-1.757
		c53.314-0.774,106.633-1.364,159.948-2c3.286-0.04,6.572-0.005,11.211-0.005c-0.229-32.444-4.872-63.965-4.629-96.39
		c-34.297-1.239-67.243,5.367-101.711,4.116c-4.021-89.734-6.221-138.779-5.255-117.244c137.798-6.071,279.131-12.293,402.221-9.023
		c1.004-13.798,0.479-27.156,0.39-41.486h-346.3V946.48c2.18-0.295,4.361-0.89,6.528-0.839
		c58.994,1.372,117.949,0.235,176.917-1.845c52.612-1.856,105.26-2.714,157.893-4.036c1.63-0.041,3.254-0.335,4.707-0.492
		c4.794-12.441,7-45.333,3.977-61.266c-126.22-1.728-252.641-3.459-380.227-5.206c1.75-36.679,3.443-72.155,5.158-108.046
		c8.24-4.116,16.933-4.68,25.385-4.833c47.974-0.872,95.953-1.496,143.934-1.888c18.989-0.156,37.984,0.508,56.977,0.779
		c3.602,0.051,7.205,0.007,11.08,0.007c2.013-11.005-0.5-20.708-2.426-30.368c-3.054-15.323-6.711-30.527-9.767-45.849
		c-0.961-4.82-0.816-9.861-1.273-16.133c46.079-3.081,91.402-6.112,137.226-9.176c3.068,15.604,5.693,30.266,8.892,44.801
		c2.715,12.335,6.326,24.472,9.108,36.794c2.672,11.837,11.119,16.729,21.804,18.924c4.194,0.861,8.639,1.118,12.919,0.852
		c43.566-2.715,87.121-5.606,130.684-8.415c6.649-0.429,13.315-1.032,19.965-0.93c7.275,0.113,12.24-2.835,17.002-8.359
		c31.107-36.092,62.555-71.892,93.912-107.77c1.924-2.202,4.01-4.262,6.666-7.069c29.133,23.906,57.828,47.454,87.219,71.571
		c-10.326,18.155-29.881,43.933-50.365,60.718c5.162,0.165,8.979,0.393,12.796,0.394c82.665,0.021,165.329,0.016,247.994,0.016
		h13.362v113.982c-140.791,1.738-281.248,3.471-422.914,5.22c-1.76,20.628-3.472,40.695-5.306,62.188
		c6.651,1.181,12.696,2.996,18.8,3.217c32.623,1.18,65.264,2.834,97.89,2.683c52.646-0.243,105.284-1.953,157.93-2.672
		c26.974-0.368,53.958,0.021,80.937,0.202c3.582,0.024,7.158,0.837,11.785,1.415c2.185,35.606,4.338,70.703,6.555,106.827
		c-6.461,0.358-11.98,0.889-17.502,0.934c-48.325,0.398-96.652,0.519-144.975,1.104c-44.982,0.544-89.957,1.857-134.939,2.238
		c-22.646,0.192-45.301-0.906-67.949-1.483c-5.628-0.143-11.25-0.524-17.666-0.835c-4.203,12.909-1.641,26.04-4.732,39.748
		c140.738,5.237,280.452,10.436,419.922,15.625c2.104,7.996,2.744,95.728,0.862,112.545c-4.438,0.539-9.231,1.501-14.051,1.644
		c-26.979,0.794-53.966,1.33-80.944,2.104c-5.244,0.151-10.471,0.966-16.147,1.519c-3.445,22.047-6.767,43.299-10.28,65.782
		H4636.194z M4310.158,1296.62c6.065-26.451,13.122-52.475,18.398-79.033c-62.564-1.626-123.717-3.214-185.879-4.829v79.319
		C4197.973,1293.577,4253.498,1295.083,4310.158,1296.62 M3817.293,1296.843c20.258,0,39.539,0.428,58.796-0.125
		c17.941-0.513,35.895-1.646,53.767-3.318c11.199-1.049,22.163-3.849,31.538-11.034v-60.013h-155.051
		C3810.055,1247.599,3813.66,1272.131,3817.293,1296.843 M3595.127,1133.399v-14.9h-8.713
		C3587.198,1124.785,3586.674,1130.784,3595.127,1133.399 M3587.037,1376.729c0.449,0.65,0.899,1.301,1.351,1.949
		c1.189-1.103,2.379-2.208,3.569-3.312c-0.347-0.44-0.692-0.88-1.039-1.321C3589.623,1374.941,3588.33,1375.835,3587.037,1376.729"
		/>
	<path clip-path="url(#SVGID_2_)" fill="#63A648" d="M1379.509,1817.155c-4.46-14.593-5.479-28.531-6.28-42.463
		c-4.232-73.619-1.175-147.208,1.567-220.77c2.802-75.229,6.462-150.426,9.762-225.637c0.086-1.959,0.364-3.91,0.567-6.016
		c7.271-3.668,14.924-4.315,22.477-4.662c39.272-1.794,78.547-4.504,117.835-4.779c141.314-0.994,282.634-1.05,423.951-1.665
		c36.987-0.161,73.969-1.205,110.956-1.602c42.315-0.453,84.634-0.644,126.951-0.905c1.925-0.012,3.853,0.404,6.56,0.709
		c0,3.938,0.088,7.514-0.012,11.084c-2.217,79.248-4.474,158.497-6.683,237.747c-2.275,81.581-4.475,163.164-6.785,244.744
		c-0.444,15.679-0.604,15.703-16.693,18.311c-32.392,5.249-65.078,5.237-97.721,4.768c-78.299-1.127-156.589-2.916-234.887-4.078
		c-102.628-1.521-205.26-2.789-307.892-3.979c-43.99-0.511-87.986-0.555-131.98-0.805
		C1387.563,1817.138,1383.924,1817.155,1379.509,1817.155 M1979.351,1424.455c-6.28-1.021-12.389-2.624-18.559-2.907
		c-25.287-1.162-50.587-2.484-75.892-2.729c-88.99-0.861-177.923,1.784-266.84,5.063c-14.585,0.537-29.173,0.985-43.443,1.465
		c-5.31,16.46-7.621,63.652-3.79,76.033c3.495,0,7.141-0.059,10.786,0.008c49.307,0.903,98.619,1.597,147.919,2.791
		c75.619,1.831,151.232,4.25,226.82-0.822c7.551-0.507,15.07-1.479,22.999-2.275V1424.455z M1984.845,1613.658
		c-4.551,0-8.141-0.026-11.73,0.005c-50.987,0.446-101.976,0.826-152.962,1.371c-72.314,0.774-144.626,1.774-216.711,8.365
		c-11.501,1.053-23.132,1.944-34.726,6.571c-1.621,18.157-3.227,36.166-4.901,54.932c141.265-3.483,280.995-6.931,421.03-10.386
		V1613.658z"/>
	<path clip-path="url(#SVGID_2_)" fill="#63A648" d="M4500.26,1456.683c4.742,10.871,6.137,21.121,6.732,31.363
		c2.014,34.568,3.906,69.149,5.337,103.746c2.34,56.57,4.423,113.151,6.263,169.738c0.355,10.92-0.091,22.016-1.72,32.795
		c-1.005,6.653-4.197,13.322-7.772,19.148c-4.178,6.808-16.195,20.592-33.984,22.567c-59.967,0.825-97.358,3.222-157.322,4.19
		c-92.273,1.489-178.835-1.43-271.109,0c-65.963,1.02-134.945,1.935-200.891,3.611c-24.924,0.635-67.046,0.445-91.923,2.666
		c-32.181,2.873-55.499,2.668-89.949,2.568c-2.293,0.208-4.622,0.027-8.164,0.027c-6.711-122.148-11.442-244.031-11.853-367.477
		C3888.46,1465.177,4204.016,1456.683,4500.26,1456.683 M3822.057,1605.216c-0.923,26.162-1.451,51.109-2.901,76.004
		c-0.412,7.073,1.819,11.716,6.354,16.601c5.158,5.555,11.629,6.152,18.222,6.431c13.972,0.59,27.974,1.346,41.938,0.992
		c91.549-2.307,183.115-4.275,274.628-7.624c53.221-1.947,106.359-6.174,159.521-9.552c13.809-0.877,14.443-1.616,16.316-14.882
		c3.834-27.156,2.9-54.448,1.896-81.729c-0.031-0.836-0.92-1.641-1.555-2.708
		C4165.436,1594.225,3994.422,1599.698,3822.057,1605.216"/>
	<path clip-path="url(#SVGID_2_)" fill="#63A648" d="M1826.688,963.05c-1.564,36.826-3.125,73.602-4.739,111.594
		c-46.025,2.582-92.328,5.179-139.071,7.802c0.586,2.202,0.607,3.267,1.106,4.01c21.366,20.202,42.151,44.427,70.551,55.758
		c17.287,6.897,37.373,21.45,54.884,27.787c1.831,0.662,3.695,1.227,5.56,1.842c-2.658,7.112-75.58,95.482-90.074,110.222
		c-24.889-7.11-76.445-36.739-121.482-78.813c-25.988-15.686-46.054-45.844-64.466-69.867c-1.387-1.81-2.942-3.492-4.927-5.834
		c-8.437,25.016-25.013,43.69-42.124,61.777c-47.861,50.59-101.34,94.447-160.665,130.964
		c-13.546,8.338-28.292,14.737-42.568,21.866c-2.948,1.473-6.219,2.365-9.412,3.274c-19.049,5.421-19.638,5.164-30.29-11.674
		c-16.556-26.169-33.131-52.326-49.667-78.507c-1.721-2.728-3.236-5.582-5.411-9.359c18.945,0.684,33.838-7.455,48.525-15.879
		c41.714-23.925,78.152-54.335,109.673-90.574c11.182-12.856,21.08-26.668,25.748-43.471c0.347-1.247,0.566-2.53,1.007-4.538
		c-9.318-2.54-18.556-0.908-27.635-1.202c-9.321-0.302-18.66-0.067-27.992-0.067h-27.994h-28.994h-27.993h-27.994h-28.997
		c-1.767-37.647-3.492-74.415-5.269-112.3c4.886-0.408,9.076-1.04,13.27-1.063c37.988-0.208,75.977-0.183,113.964-0.48
		c32.984-0.258,65.972-0.583,98.945-1.414c13.627-0.343,27.246-1.823,40.818-3.262c12.753-1.353,12.979-2.213,14.097-14.523
		c2.166-23.868,4.76-47.698,7.006-71.561c0.712-7.559,0.881-15.17,1.351-23.711c-9.362-0.561-17.874-1.384-26.396-1.523
		c-24.296-0.396-48.596-0.464-72.895-0.767c-7.619-0.095-12.977,2.95-17.546,9.253c-15.241,21.023-30.991,41.676-46.54,62.476
		c-1.593,2.132-3.086,4.34-4.721,6.438c-7.267,9.317-20.473,10.628-29.391,2.877c-22.867-19.876-45.681-39.812-68.499-59.744
		c-2.244-1.96-9.178-8.242-11.425-10.346c0.482-1.088,0.63-2.261,1.291-2.791c16.487-24.427,35.775-53.589,44.931-74.543
		c17.75-40.618,29.94-58.86,43.065-101.124c6.212-20.003,13.107-39.797,19.907-59.612c1.591-4.637,4.054-8.974,6.549-14.389
		c44.304,21.48,87.874,42.604,132.197,64.094c-4.656,15.27-9.071,29.746-13.312,43.656c11.15-0.625,55.58,0.132,64.928-0.18
		c83.58-2.787,162.042-3.931,245.621-6.785c2.305-0.079,4.614-0.011,7.734-0.011c0.369,2.642,1.022,5.153,1.027,7.665
		c0.067,36.978,0.078,73.957,0.025,110.936c-0.012,8.55-0.382,9.079-8.796,12.103c-17.507,6.295-35.851,7.345-54.165,7.626
		c-15.309,0.236-30.636-0.715-45.956-1.093c-3.978-0.097-7.96-0.014-12.638-0.014c-4.989,34.627-10.087,69.05-11.309,103.512
		c0.675,0.676,0.899,0.918,1.144,1.14c0.242,0.22,0.493,0.587,0.756,0.601c2.321,0.13,4.646,0.254,6.97,0.27
		C1687.257,962.07,1756.528,962.556,1826.688,963.05"/>
	<path clip-path="url(#SVGID_2_)" fill="#63A648" d="M1865.128,716.732c131.514-10.81,262.901-2.993,395.373-13.882
		c0,0,3.123,20.879,3.354,24.642c2.31,37.873,4.219,62.772,5.697,100.682c4.592,117.8,6.482,235.652,5.185,353.544
		c-0.054,4.99-0.331,9.982-0.639,14.965c-0.564,9.101-0.727,10.371-9.878,12.231c-16.922,3.442-33.983,6.929-51.152,8.289
		c-72.768,5.767-145.74,5.864-218.678,6.577c-32.643,0.319-65.288,0.453-97.933,0.612c-12.594,0.061-13.039,0.064-15.277-12.726
		c-2.463-14.074-5.12-28.26-5.74-42.484c-2.594-59.533-5.011-119.086-6.445-178.656c-1.811-75.224-2.652-169.085-3.846-244.324
		C1865.001,736.923,1865.128,727.637,1865.128,716.732 M2015.026,850.657c5.407,79.969,10.74,158.839,16.125,238.492
		c33.121-0.902,65.563-1.785,98.946-2.694c-2.072-81.971-4.112-162.672-6.146-243.163
		C2086.977,845.792,2051.226,848.209,2015.026,850.657"/>
	<path clip-path="url(#SVGID_2_)" fill="#63A648" d="M1197.52,410.522c-6.843-8.775-12.702-16.29-19.037-24.415
		c13.49-5.412,26.747-10.149,36.78-20.404c2.475-2.53,4.626-5.375,8.413-9.82c-19.173-0.869-36.277-0.03-53.117-0.576
		c-2.406-7.313-3.006-51.404-0.929-64.395h25.015c2.846,12.592-0.583,25.645,1.967,38.521h33.709v-45.257
		c5.915-0.377,11.061-0.706,17.567-1.121c-1.206-3.886-2.223-7.164-3.667-11.816c-27.484,3.387-54.757,6.748-82.862,10.212
		c-2.344-7.358-4.823-15.143-7.482-23.49c17.809-6.105,30.91-17.984,43.721-30.255c-0.247-0.65-0.494-1.301-0.741-1.951
		c-10.725,1.34-21.45,2.681-33.221,4.152c-2.634-7.761-5.36-15.796-8.293-24.44c18.906-9.812,30.199-26.815,42.963-44.82h-67.32
		c-0.192,3.642-0.566,7.461-0.568,11.279c-0.034,75.961-0.026,151.922-0.026,227.883v12.25h-39.261V20.672h164.056
		c1.929,7.344,2.605,121.862,0.741,138.743h-40.099l-0.539,1.882c3.367,2.264,6.735,4.527,11.305,7.599
		c-10.075,11.895-19.808,23.387-30.646,36.182c8.866-0.415,16.373-0.457,23.787-1.304c2.235-0.255,4.561-2.433,6.245-4.277
		c4.908-5.375,9.511-11.026,14.837-17.277c7.285,5.097,14.217,9.948,21.951,15.358c-18.49,20.375-38.072,37.767-59.862,55.248
		c6.405,1.75,11.416,0.208,16.363-0.154c4.967-0.363,9.925-0.856,16.243-1.411c-2.238-5.598-4.253-10.635-6.557-16.398
		c7.244-2.129,13.824-4.063,21.574-6.342c7.394,16.211,14.508,31.808,21.841,47.887c-4.54,2.235-8.057,3.967-11.147,5.489
		c-0.532,19.805-0.486,39.398-1.725,58.908c-1.622,25.555-14.616,44.509-36.627,57.174
		C1214.855,402.591,1206.279,406.227,1197.52,410.522 M1130.965,77.602c28.924,0.061,57.269,0.187,86.18-0.089
		c-0.43-9.876,1.245-18.387-1.06-26.627c-19.211-1.776-77.869-1.06-85.12,1.04V77.602z M1131.001,130.319
		c29.016-0.267,57.389,0.499,85.646-0.499v-24.441h-85.646V130.319z"/>
	<path clip-path="url(#SVGID_2_)" fill="#F5B414" d="M2279.085,193.708c3.787-10.253,6.464-18.789,10.054-26.921
		c5.634-12.765,11.666-25.368,17.977-37.812c2.689-5.302,6.166-10.3,9.87-14.973c15.357-19.373,36.643-24.04,58.845-12.904
		c22.214,11.141,33.936,30.094,39.226,53.666c4.483,19.986,0.967,39.19-6.907,57.534c-4.833,11.257-10.722,22.192-17.273,32.555
		c-16.782,26.548-36.759,50.636-58.946,72.85c-18.061,18.081-29.063,20.859-51.788,9.357
		c-49.573-25.092-92.008-58.602-120.238-107.712c-6.51-11.326-11.366-23.238-13.613-36.222
		c-5.669-32.757,16.934-55.648,49.795-50.428c15.188,2.413,28.995,8.171,40.506,18.121c11.297,9.764,21.617,20.666,32.233,31.201
		C2272.1,185.27,2274.941,188.957,2279.085,193.708"/>
	<path clip-path="url(#SVGID_2_)" fill="#63A648" d="M1284.608,284.471c-1.633-1.879-3.997-3.502-4.764-5.685
		c-2.194-6.251-3.74-12.729-5.708-19.714c16.772-6.775,29.902-18.664,44.461-32.664c-13.326-0.192-24.124,2.07-35.842,4.078
		c-2.714-8.358-5.325-16.397-7.955-24.491c19.352-10.419,31.154-26.928,42.987-45.687h-24.846
		c-2.497-7.425-3.299-124.083-1.115-139.521h168.028c0.187,3.467,0.514,6.71,0.515,9.953c0.026,110.57,0.039,221.138-0.031,331.708
		c-0.004,5.641-0.557,11.304-1.202,16.918c-1.52,13.216-8.566,22.665-21.375,26.048c-10.521,2.777-21.531,3.95-32.402,5.072
		c-7.202,0.743-14.544,0.141-22.139,0.141c-3.979-13.445-7.891-26.653-11.993-40.511c9.42,0,18.311,0.013,27.202-0.006
		c4.995-0.01,9.992,0.005,14.984-0.14c3.989-0.116,6.038-2.41,6.272-6.314c0.14-2.324,0.169-4.658,0.169-6.988
		c0.008-61.945,0.013-123.891-0.014-185.836c-0.001-3.247-0.285-6.493-0.464-10.288h-86.893c4.791,3.117,8.473,5.511,13.381,8.703
		c-9.832,11.617-19.392,22.913-30.213,35.698c12.88-1.146,25.32,3.029,33.806-9.731c3.085-4.64,7.264-8.553,11.376-13.295
		c7.037,4.839,13.829,9.509,21.823,15.007c-18.015,20.713-38.197,38.108-57.821,57.286c9.716-0.795,19.432-1.589,30.389-2.485
		c-2.386-5.477-4.431-10.171-6.913-15.871c6.795-2.444,13.193-4.745,20.367-7.325c9.318,15.659,16.828,31.397,23.353,48.821
		c-7.119,2.973-13.733,5.733-21.183,8.844c-2.262-4.769-4.336-9.142-6.839-14.418c-6.215,0.644-12.776,1.214-19.308,2.021
		c-16.186,2.003-32.389,3.905-48.514,6.327c-4.092,0.614-7.914,3.023-11.86,4.607L1284.608,284.471z M1331.22,77.061h87.927V50.979
		h-87.927V77.061z M1331.192,129.737h88.024V105.6h-88.024V129.737z"/>
	<path clip-path="url(#SVGID_2_)" fill="#63A648" d="M3177.222,139.819c7.737,1.05,14.231,1.932,21.866,2.968
		c-1.842,10.936-3.586,21.299-5.424,32.222c5.89,7.368,12.045,15.072,18.718,23.42c12.432-17.569,16.251-37.068,19.552-57.936
		c7.034,0.925,13.755,1.808,20.868,2.744c0.911,11.236-3.388,20.856-5.237,31.509c7.727,9.691,15.734,19.734,25.361,31.809V146.53
		h30.154v255.868h-29.391c-0.329-4.913-0.613-9.161-0.956-14.283h-147.524c-2.305-7.74-3.082-226.748-1.028-242.725h29v60.241
		C3170.776,187.402,3173.603,164.068,3177.222,139.819 M3153.804,263.09v72.726c16.782-20.824,19.446-44.335,23.493-68.343
		c7.384,0.941,14.135,1.801,21.803,2.778c-1.635,9.725-3.182,18.48-4.534,27.264c-0.332,2.156-0.933,5.08,0.128,6.505
		c5.656,7.59,11.801,14.815,18.262,22.762c12.763-18.194,15.832-38.561,19.805-59.031c7.469,1.031,13.923,1.922,21.654,2.99
		c-1.787,8.973-3.517,17.015-4.932,25.11c-0.49,2.81-1.425,6.669-0.066,8.486c7.055,9.426,14.783,18.346,22.98,28.297V263.09
		H3153.804z M3185.866,199.671c-5.715,10.353-10.28,19.924-18.333,27.428c-5.027-3.635-7.744-9.414-13.82-11.924v14.796h119.226
		c0.168-5.979,0.671-11.287-0.437-18.083c-5.139,5.555-9.031,9.763-13.172,14.238c-6.943-9.826-13.129-18.577-19.789-28.002
		c-7.142,10.435-11.566,20.976-21.274,27.908c-4.527-5.336-8.58-10.113-12.472-14.702c-3.699,2.77-5.934,4.442-8.344,6.247
		C3193.591,211.609,3190.182,206.339,3185.866,199.671 M3168.686,355.579h103.968v-14.723c-4.852,5.878-8.282,10.032-12.171,14.741
		c-7.355-10.427-13.631-19.319-20.258-28.713c-7.173,9.482-11.294,20.407-21.952,27.714c-3.781-4.708-7.485-9.32-11.176-13.917
		c-3.621,2.614-5.63,4.065-8.025,5.793c-4.534-6.406-8.669-12.248-13.146-18.576
		C3180.059,337.315,3174.688,345.939,3168.686,355.579 M3153.703,356.301c4.387-0.271,7.711-0.477,12.971-0.802
		c-4.811-5.092-8.202-8.683-12.971-13.729V356.301z"/>
	<path clip-path="url(#SVGID_2_)" fill="#555555" d="M3151.393,2226.688c26.377-31.258,40.855-67.212,52.143-105.973
		c10.046,2.136,19.624,4.173,29.933,6.365c-2.168,14.287-8.242,26.529-12.209,39.358c7.261,2.365,39.672,2.674,50.024,0.399v-49.086
		c10.081-2.091,19.559-0.979,29.811-0.761c2.275,16.718-0.258,33.315,1.574,50.969c31.95,0.91,63.788-0.151,96.454,0.604v28.891
		h-96.538c-0.61,18.565-1.184,36.04-1.804,54.893c13.98,0.076,27.502,0.18,41.021,0.215c13.666,0.037,27.331,0.01,40.996,0.01
		h41.773v29.303c-36.349,0.407-72.736-0.083-110.808,0.283c24.502,52.083,66.115,78.624,119.063,90.987
		c-6.396,9.171-12.258,17.577-18.821,26.987c-56.657-13.938-98.378-46.808-124.608-102.09
		c-24.132,56.597-70.105,83.94-123.966,101.984c-6.102-8.375-11.739-16.111-18.145-24.904c3.287-1.322,6.43-2.695,9.647-3.862
		c24.909-9.031,48.37-20.654,68.569-38.139c14.063-12.173,25.049-26.652,32.601-43.678c0.797-1.796,1.313-3.716,2.176-6.192
		c-9.081-2.479-18.027-0.888-26.828-1.164c-8.992-0.282-17.997-0.062-26.996-0.062h-26.998h-27.635v-29.177h115.333
		c4.301-12.231,5.657-39.397,2.913-54.528h-61.959c-9,14.218-18.209,28.762-27.795,43.902
		C3170.293,2236.84,3161.349,2232.036,3151.393,2226.688"/>
	<path clip-path="url(#SVGID_2_)" fill="#555555" d="M833.699,2336.015c-6.852,3.447-13.284,6.684-20.504,10.315
		c-7.735-14.83-15.191-29.124-23.036-44.163c-8.527,10.947-15.757,21.658-24.459,30.999c-8.791,9.436-19.04,17.513-29.266,26.742
		c-5.665-6.236-10.505-11.563-15.49-17.049c-12.181,6.171-24.344,5.214-36.866,4.842c-1.601-6.696-3.025-12.652-4.516-18.885
		c5.259,0,9.857-0.047,14.453,0.016c4.065,0.053,7.602-1.179,8.39-5.459c1.362-7.399,2.139-14.906,3.26-23.082h-29.121
		c-5.694,19.522-14.473,37.494-33.005,49.591c-4.88-5.536-9.625-10.919-15.04-17.063c21.872-16.851,26.608-40.816,28.5-67.19
		h-29.178v-20.4h42.734c-2.358-4.96-4.012-8.438-5.759-12.114c1.289-1.368,2.535-2.69,4.82-5.113h-31.233
		c-2.536-7.72-3.314-69.407-1.225-86.203h31.069c2.057-8.377,3.92-15.963,6.079-24.755c9.183,0.785,18.341,1.567,28.197,2.411
		c-0.437,7.753-5.57,13.577-7.12,21.761h33.442v72.763l2.161,0.429c15.838-29.659,21.499-62.489,27.744-96.241
		c8.21,1.167,15.914,2.262,24.731,3.515c-2.677,14.133-5.187,27.38-7.88,41.596h56.838v23.833c-3.484,0.658-6.961,1.314-9.244,1.746
		c-5.358,23.128-10.464,45.463-15.741,67.759c-1.588,6.711-5.635,13.533-4.92,19.896c0.68,6.057,6.218,11.521,9.422,17.353
		c6.25,11.373,12.402,22.803,18.498,34.26C831.648,2330.403,832.433,2332.914,833.699,2336.015 M727.624,2278.751
		c1.102,1.156,1.965,1.649,1.941,2.095c-0.954,17.508-1.989,35.012-3.057,53.27c2.912-2.152,5.877-4.168,8.649-6.423
		c15.221-12.373,26.859-27.582,36.028-44.874c2.701-5.095,2.475-9.132-0.693-13.781c-4.869-7.15-9.237-14.64-13.909-21.925
		c-2.252-3.512-4.713-6.888-7.234-10.548c-2.942,3.347-5.017,5.705-7.024,7.988c-6.15-4.619-11.744-8.805-17.318-13.018
		c-1.539-1.163-2.848-2.817-4.56-3.525c-3.149-1.301-25.154,0.177-29.802,1.8c3.125,5.155,6.18,10.195,9.591,15.826h38.593v20.094
		h-57.216c-0.336,4.653-0.611,8.462-0.941,13.021H727.624z M768.165,2188.62c-2.519,7.053-4.838,13.93-7.432,20.701
		c-2.504,6.532-5.292,12.957-8.613,21.025c6.371-2.221,10.656-3.716,15.636-5.452c5.315,7.651,10.531,15.155,16.033,23.075
		c6.211-14.787,12.043-45.988,11.168-59.35H768.165z M704.671,2193.883h-44.458v14.031h44.458V2193.883z M659.84,2174.608h44.654
		v-12.889c-11.272-2.114-37.518-1.715-44.654,0.63V2174.608z"/>
	<path clip-path="url(#SVGID_2_)" fill="#555555" d="M3002.577,2233.087c1.985,20.944,3.797,40.025,5.606,59.107
		c0.762,0.117,1.523,0.233,2.283,0.351c7.872-13.977,12.835-29.228,18.294-45.813c7.689,3.574,14.955,6.954,22.843,10.622
		c-1.408,4.227-2.445,7.651-3.685,11.002c-7.638,20.679-17.287,40.388-29.269,58.888c-2.775,4.283-3.911,8.1-1.988,12.988
		c2.305,5.857,3.725,12.082,6.266,17.821c1.322,2.988,4.23,5.276,7.116,8.709c8.781-11.974,5.849-25.133,9.472-37.479
		c6.305,4.859,12.256,9.448,18.547,14.299c-1.367,14.018-4.53,27.506-10.496,40.277c-1.12,2.396-2.512,4.717-4.09,6.842
		c-6.774,9.122-16.066,11.464-25.23,4.748c-5.689-4.169-10.258-10.31-14.18-16.316c-3.543-5.429-5.522-11.878-8.652-18.912
		c-13.581,13.438-25.673,27.615-41.973,37.956c-5.414-4.903-10.741-9.729-16.599-15.034c6.476-5.573,12.57-10.821,20.285-17.465
		c-6.96-0.355-11.485-0.589-16.603-0.85c-0.764-2.214-1.569-4.557-2.498-7.252h-34.081c-0.318,6.812-0.634,13.585-0.977,20.946
		h-22.732v-130.914c27.282-0.191,54.416-0.035,82.016-0.085c2.72,9.236,1.146,18.187,1.401,26.98
		c0.269,9.321,0.059,18.654,0.059,27.982v26.983v26.565c0.721,0.259,1.442,0.518,2.162,0.777
		c7.846-7.831,15.086-16.242,21.069-25.662c1.056-1.662,0.55-4.523,0.296-6.777c-3.235-28.771-6.549-57.534-9.872-86.294
		c-0.146-1.261-0.581-2.488-1.071-4.511h-107.62v-24.39c6.37-0.332,12.833-0.669,19.944-1.04
		c1.844-11.042-3.357-20.855-4.498-32.408c6.248-1.082,12.607-2.185,20.377-3.53c3.071,12.269,6.005,24.001,9.005,35.988h13.657
		c2.829-11.475,5.726-23.225,8.857-35.917c7.103,1.184,13.854,2.31,22.105,3.685c-2.947,10.628-5.732,20.673-8.716,31.438
		c8.328,2.28,16.403,0.979,25.791,0.825c-0.866-30.204-1.718-59.935-2.59-90.374h25.612c0.935,29.713,1.87,59.51,2.844,90.471
		h53.938v24.77H3002.577z M2903.777,2336.418c11.725,0.716,23.272,0.551,34.852,0.138v-23.696
		c-11.887-0.002-23.206-0.376-34.852,0.181V2336.418z M2904.001,2291.07h34.665v-21.521h-34.665V2291.07z"/>
	<path clip-path="url(#SVGID_2_)" fill="#555555" d="M2275.86,2160.024h-198.176c-0.597,26.736-0.183,53.248-0.259,79.748
		c-0.077,26.652-0.017,53.306-0.017,79.956c0,26.611,0,53.223,0,80.566h-27.615v-268.109h254.502
		c0.243,2.886,0.644,5.439,0.645,7.992c0.033,74.625,0.079,149.251-0.002,223.877c-0.027,24.986-6.831,32.728-31.753,35.516
		c-11.184,1.251-22.508,1.253-34.034,1.835c-3.426-9.835-6.546-18.793-9.925-28.492c8.275,0,15.854,0.012,23.434-0.005
		c4.996-0.013,10.007,0.159,14.985-0.161c6.741-0.436,7.74-1.656,8.173-8.642c0.104-1.658,0.041-3.329,0.041-4.994
		c0.001-62.634,0.001-125.266,0.001-187.898V2160.024z"/>
	<path clip-path="url(#SVGID_2_)" fill="#63A648" d="M2999.666,248.619v35.13h-176.429v126.722h-41.843V283.966h-177.842
		c-0.832-11.903-0.451-22.977-0.29-35.033h177.513v-24.135h42.154v23.34c15.22,0.958,29.729,0.348,44.201,0.457
		c14.66,0.11,29.323,0.024,43.984,0.024h43.987H2999.666z"/>
	<path clip-path="url(#SVGID_2_)" fill="#63A648" d="M1875.582,277.847c13.541,6.046,25.917,11.572,39.208,17.506
		c-1.901,25.397-2.828,51.683-12.425,76.598c-8.161,21.187-24.811,31.1-46.55,31.53c-35.634,0.706-71.297,0.416-106.941-0.031
		c-7.866-0.099-15.916-1.894-23.509-4.156c-18.419-5.488-25.648-19.933-27.998-37.577c-0.789-5.924-1.063-11.955-1.069-17.938
		c-0.073-68.611-0.049-137.223-0.05-205.834c0-2.969,0-5.938,0-10.239c14.384-0.714,28.135-0.27,43.16-0.263v12.556
		c0,65.281-0.015,130.561,0.032,195.842c0.004,4.648,0.063,9.359,0.798,13.928c1.529,9.514,5.564,13.089,15.265,14.083
		c3.305,0.339,6.655,0.333,9.984,0.337c25.322,0.026,50.651-0.339,75.964,0.138c16.976,0.321,24.623-5.602,27.525-22.395
		c3.107-17.979,4.165-36.315,6.065-54.501C1875.347,284.503,1875.381,281.546,1875.582,277.847"/>
	<path clip-path="url(#SVGID_2_)" fill="#555555" d="M4018.797,2362.47h37.43c2.435-6.873,3.257-115.873,0.894-131.326h-76.606
		c-2.617-9.004-1.079-17.202-1.222-26.768c15.42-0.926,30.591-0.338,45.727-0.44c14.999-0.104,30-0.023,44.999-0.023h46h45.049
		c2.39,9.063,0.986,17.205,1.082,26.457h-74.938v46.831c11.17,0.696,22.725,0.205,34.246,0.292
		c11.296,0.086,22.594,0.02,34.744,0.02v24.742c-6.818,2.438-14.473,0.831-21.947,1.099c-7.988,0.284-15.996,0.063-23.996,0.063
		h-23.275v59.284c9.359,0.045,18.551,0.108,27.744,0.131c9,0.023,18,0.005,27,0.005h28.668v26.515h-211.438v-26.05h32.775
		c1.348-33.086-0.252-65.215,0.909-97.832h26.156V2362.47z"/>
	<path clip-path="url(#SVGID_2_)" fill="#63A648" d="M2743.92,42.948h34.376c3.021-14.259,5.948-28.087,9.094-42.944
		c12.374,2.179,24.621,4.336,37.587,6.619c-4.395,11.94-8.502,23.098-13.112,35.622c16.636,1.907,32.502-0.026,48.064,1.183
		c2.181,7.334,2.716,157.651,0.603,169.913h-116.267C2742.121,206.165,2741.609,56.127,2743.92,42.948 M2778.908,113.013
		c14.117,0,27.017,0.03,39.917-0.038c1.571-0.009,3.139-0.548,4.524-0.807c1.961-11.02,1.618-29.607-0.625-36.684h-43.816V113.013z
		 M2823.972,143.826h-44.754v37.69h44.754V143.826z"/>
	<path clip-path="url(#SVGID_2_)" fill="#555555" d="M3756.39,2273.692v125.684h-28.581c-0.482-3.168-0.912-5.989-1.426-9.371
		h-133.385c-0.713,2.924-1.47,6.031-2.523,10.357h-13.469h-13.467v-126.23C3570.917,2272.204,3744.516,2271.737,3756.39,2273.692
		 M3592.319,2341.827v22.475c12.735,2.237,127.666,1.584,134.003-0.546v-21.929H3592.319z M3592.209,2318.624h134.158v-21.823
		c-12.891-1.949-126.561-1.439-134.158,0.623V2318.624z"/>
	<path clip-path="url(#SVGID_2_)" fill="#555555" d="M3916.58,2401.371c-8.51-7.771-14.883-13.591-21.974-20.065
		c20.168-22.192,31.861-48.464,37.005-80.078c-13.027,7.35-24.575,13.864-37.07,20.912c-3.313-9.39-6.244-17.701-9.395-26.627
		c16.759-8.308,33.072-16.393,49.93-24.748v-37.555c-8.076,3.997-15.422,7.633-22.232,11.004
		c-7.578-19.23-14.983-38.021-22.765-57.767c6.218-3.152,12.899-6.544,20.212-10.253c10.69,16.823,17.523,34.604,23.519,52.787
		c0.708-0.141,1.415-0.282,2.122-0.423v-78.38h107.351c-3.395-9.788-6.266-18.064-9.585-27.629
		c9.579-2.066,18.799-4.055,28.93-6.238c4.763,11.267,9.248,21.883,14.199,33.599h93.73v26.051
		c-23.041,0.217-45.885,0.069-68.723,0.097c-22.657,0.027-45.315,0.005-67.973,0.005h-69.613c-0.21,4.593-0.484,8.137-0.518,11.682
		c-0.252,27.308,0.191,54.64-0.855,81.914c-1.127,29.407-6.45,58.175-17.89,85.533c-6.077,14.534-14.06,27.915-24.362,39.893
		C3919.125,2396.826,3918.1,2398.977,3916.58,2401.371"/>
	<path clip-path="url(#SVGID_2_)" fill="#63A648" d="M3520.719,149.611c-8.344,11.046-16.125,21.347-24.589,32.553
		c-12.542-10.224-22.472-22.971-34.674-36.34v25.497c-8.544,2.27-85.636,2.571-96.412,0.491v-23.688
		c-11.905,13.996-22.246,26.149-33.048,38.846c-9.484-10.806-17.98-20.487-26.777-30.511
		c43.879-43.398,73.525-95.691,95.453-153.889c11.141,4.343,21.561,8.405,33.119,12.912c-1.544,4.441-2.691,8.498-4.348,12.335
		c-2.289,5.302-1.702,9.759,1.324,14.88c22.882,38.72,50.346,73.584,84.895,102.629
		C3517.18,146.604,3518.688,147.889,3520.719,149.611 M3411.258,71.496c-12.582,21.813-24.766,42.934-37.054,64.238
		c16.449,2.233,72.235,1.373,78.008-1.002C3438.719,113.896,3425.195,93.015,3411.258,71.496"/>
	<path clip-path="url(#SVGID_2_)" fill="#63A648" d="M2911.037,102.18c12.258-1.092,22.534-1.721,32.704-3.122
		c2.434-0.335,5.248-2.798,6.614-5.053c4.651-7.675,8.729-15.696,13.031-23.581c1.565-2.87,3.148-5.73,5.216-9.489
		c10.58,5.755,20.656,11.234,31.46,17.11c-23.501,39.588-49.747,75.813-81.209,111.428c15.57-1.476,28.784-2.729,43.566-4.129
		c-2.451-9.255-4.697-17.73-7.189-27.13c8.611-3.123,17.341-5.598,27.243-7.135c8.188,23.553,14.679,47.029,19.142,71.749
		c-9.744,2.899-18.563,5.524-28.22,8.397c-1.685-6.175-3.211-11.771-5.115-18.754c-29.503,4.403-58.653,8.753-88.491,13.206
		c-3.238-9.867-6.621-20.169-9.973-30.379c17.298-11.074,46.335-44.419,55.887-64.553c-8.771,1.251-16.867,2.214-24.89,3.604
		c-8.128,1.409-16.182,3.24-24.555,4.944c-3.507-10.247-6.923-20.225-10.444-30.512c10.23-6.601,15.952-16.843,21.764-26.891
		c12.187-21.067,22.397-43.068,30.16-66.169c0.946-2.817,2.072-5.573,3.535-9.481c11.111,3.45,22.036,6.843,34.054,10.575
		C2943.646,46.495,2928.891,73.782,2911.037,102.18"/>
	<path clip-path="url(#SVGID_2_)" fill="#63A648" d="M3346.949,312.812c7.79-7.37,15.493-14.658,24.222-22.917
		c11.202,10.649,22.175,21.079,33.834,32.16c20.168-23.168,37.083-47.983,53.316-75.764c-43.268-0.853-84.967,0.023-127.678-0.531
		c-1.592-11.763-0.469-23.156-0.699-35.708h11.771c42.64,0,85.281,0.031,127.922-0.044c4.598-0.008,9.195-0.626,15.14-1.06
		c7.202,5.911,15.388,12.629,24.181,19.845c-20.95,42.993-48.603,81.134-78.422,118.791c11.672,12.741,23.254,25.381,35.084,38.292
		c-9.51,9.121-18.332,17.581-26.973,25.869C3408.742,379.48,3378.328,346.666,3346.949,312.812"/>
	<path clip-path="url(#SVGID_2_)" fill="#63A648" d="M2606.357,192.262c24.687-15.865,38.25-40.544,55.064-62.46
		c-0.405-0.729-0.809-1.459-1.214-2.188c-13.904,2.39-27.808,4.779-42.992,7.389c-3.12-8.997-6.543-18.865-10.065-29.023
		c10.317-6.89,16.431-16.755,22.177-26.92c11.823-20.911,21.817-42.646,29.632-65.375c0.746-2.169,1.638-4.287,2.848-7.429
		c10.729,3.925,21.139,7.734,32.481,11.884c-11.146,28.83-25.5,54.861-42.183,81.738c10.16-0.796,18.641-1.155,27.006-2.331
		c2.075-0.293,4.353-2.905,5.557-5.011c5.12-8.955,9.854-18.129,14.765-27.203c1.399-2.582,2.922-5.096,4.795-8.347
		c10.034,5.566,19.537,10.836,29.951,16.612c-22.426,39.096-47.879,75.053-77.819,110.626c15.663-0.422,29.09-2.44,42.959-4.603
		c-2.175-10-4.147-19.071-6.258-28.782c8.546-4.291,17.911-4.386,27.735-6.944c7.199,24.871,12.462,49.725,16.562,76.185
		c-9.91,2.413-19.332,4.708-29.189,7.109c-1.268-7.01-2.316-12.808-3.53-19.524c-29.678,3.819-58.835,7.925-87.956,14.863
		C2613.109,212.056,2609.714,202.101,2606.357,192.262"/>
	<path clip-path="url(#SVGID_2_)" fill="#63A648" d="M3199.578,99.301V3.903c11.484-1.39,22.229-0.839,34.311-0.393v36.004h68.411
		v31.589h-67.476c-1.313,10.063-0.968,19.068-0.289,28.825h80.391v31.111c-7.122,2.247-194.07,2.648-204.456,0.279V99.937h27.379
		V28.155h32.362v71.146H3199.578z"/>
	<path clip-path="url(#SVGID_2_)" fill="#555555" d="M1137.404,2399.962c-2.754-8.036-5.105-14.897-7.845-22.896
		c11.177-0.293,21.825-0.573,33.016-0.867v-23.54h-88.898c-4.27,18.099-9.215,35.668-22.501,50.381
		c-6.643-6.129-13.104-12.089-19.197-17.71c4.451-9.902,9.475-19.251,12.905-29.151c4.722-13.626,5.447-28.049,5.609-42.389
		c0.188-16.648,0.045-33.302,0.046-49.954v-10.53h139.873c0.193,3.072,0.529,5.968,0.532,8.862
		c0.037,35.302,0.025,70.604,0.018,105.906c0,1.997-0.024,3.997-0.127,5.992c-0.816,15.842-6.472,22.396-21.923,24.666
		c-5.912,0.867-11.95,0.948-17.938,1.195C1146.684,2400.105,1142.379,2399.962,1137.404,2399.962 M1077.53,2293.178
		c28.938,0.023,57.015,0.093,85.185-0.036v-17.59h-85.185V2293.178z M1077.212,2330.597c10.786,2.012,77.786,1.705,85.975-0.498
		c0-2.386,0.094-4.994-0.025-7.595c-0.131-2.832-0.46-5.653-0.686-8.292c-17.799-1.923-78.042-1.2-85.264,1.031V2330.597z"/>
	<path clip-path="url(#SVGID_2_)" fill="#555555" d="M614.942,2190.284c-6.63,22.836-12.979,44.702-19.411,66.854
		c8.686,2.957,18.225-2.456,26.097,5.628c-2.883,26.585-10.709,52.88-19.516,78.62c22.369,17.984,46.655,28.537,75.112,30.269
		c38.028,2.316,75.896,0.475,113.796-1.694c15.57-0.892,31.103-2.443,47.769-3.783c-2.756,9.799-5.303,18.851-7.985,28.389
		c-10.006,0.564-19.911,1.374-29.831,1.638c-41.268,1.093-82.527,3.783-123.828,0.897c-24.028-1.677-46.484-7.933-66.4-22.018
		c-4.339-3.069-8.841-5.983-13.543-8.44c-6.082-3.178-9.001-2.663-12.615,3.128c-4.207,6.74-7.589,14.004-11.164,21.123
		c-1.615,3.217-2.83,6.634-4.998,11.796c-6.872-9.294-12.852-17.381-19.579-26.477c7.809-9.047,15.442-17.728,22.866-26.581
		c2.507-2.99,5.456-6.127,6.539-9.702c5.2-17.164,9.855-34.494,14.611-51.79c0.319-1.163-0.122-2.535-0.26-4.545h-30.582
		c7.122-23.029,13.906-44.967,21.094-68.207h-27.495v-25.104H614.942z"/>
	<path clip-path="url(#SVGID_2_)" fill="#555555" d="M2587.715,2153.091h-61.813v-24.041h152.15c0.26,1.987,0.727,3.569,0.629,5.116
		c-1.83,28.904-3.551,57.819-5.729,86.697c-0.597,7.917-2.276,15.804-4.062,23.566c-2.756,11.975-10.655,18.725-22.694,20.917
		c-12.599,2.295-25.161,1.479-37.885,0.383c-2.384-7.949-4.65-15.5-7.2-24.005c7.193,0,13.966-0.205,20.725,0.039
		c17.814,0.644,20.674-0.91,22.781-18.454c2.736-22.762,4.189-45.677,6.313-69.886c-12.757-0.563-24.25-0.19-36.599-0.267
		c-1.1,6.454-1.817,12.639-3.252,18.654c-2.922,12.268-5.317,24.77-9.552,36.595c-11.9,33.225-33.082,55.352-66.038,70.363
		c-5.169-6.584-10.427-13.283-16.368-20.85c20.414-9.612,38.817-21.594,50.443-43.223c-14.283-12.876-28.551-25.74-43.828-39.513
		c5.393-4.614,10.601-9.07,16.853-14.419c11.409,9.218,23.677,19.129,37.548,30.336
		C2582.758,2177.96,2585.055,2166.439,2587.715,2153.091"/>
	<path clip-path="url(#SVGID_2_)" fill="#555555" d="M1104.528,2140.916v-23.072h28.263v22.86h69.989v21.463h-68.926v15.154h63.239
		v20.737h-63.324v16.911h72.755v21.516h-171.415v-21.123h68.638v-16.695c-19.095-0.643-38.238,0.18-57.712-0.472v-20.607h57.771
		v-14.8c-21.374-0.936-42.859,0.22-64.885-0.645v-20.66c10.68-1.158,21.554-0.398,32.369-0.538
		C1081.882,2140.812,1092.477,2140.916,1104.528,2140.916"/>
	<path clip-path="url(#SVGID_2_)" fill="#555555" d="M3572.594,2141.461h78.82v22.242c-13.75,1.864-27.384-0.277-41.51,1.408v23.793
		h48.801v23.622h-52.615c-0.227,0.692-0.452,1.387-0.68,2.081c4.905,4.551,11.415,6.819,17.028,10.338
		c5.638,3.533,11.527,6.661,17.231,10.089c5.968,3.585,11.845,7.316,19.133,11.833c-6.95,6.71-13.231,12.775-19.956,19.27
		c-14.673-10.592-28.872-20.841-43.917-31.701c-15.096,21.349-35.248,35.487-58.617,45.854c-6.203-5.909-12.381-11.795-19.55-18.626
		c24.004-11.057,46.448-22.462,58.353-48.58h-54.417v-23.377c5.196-0.251,10.371-0.501,18.173-0.877
		c-7.361-4.81-12.916-8.44-19.35-12.643c15.814-17.472,26.576-37.758,33.539-60.705c8.673,1.75,16.709,3.372,25.825,5.211
		C3576.823,2127.499,3574.961,2133.646,3572.594,2141.461 M3580.91,2164.475c-5.883,0-10.815-0.155-15.731,0.079
		c-1.838,0.089-4.421,0.521-5.316,1.764c-5.085,7.067-9.762,14.429-15.332,22.828c13.13,0.054,24.765,0.364,36.38-0.181V2164.475z"
		/>
	<path clip-path="url(#SVGID_2_)" fill="#555555" d="M2238.109,2339.486h-95.789c-0.389,7.293-0.735,13.794-1.114,20.916h-24.779
		c-1.992-7.356-2.354-109.524-0.342-120.529h121.279C2239.461,2246.681,2240.183,2321.863,2238.109,2339.486 M2211.174,2264.774
		h-68.755v49.532h68.755V2264.774z"/>
	<path clip-path="url(#SVGID_2_)" fill="#555555" d="M3782.242,2250.87h-110.817v-109.396h110.817V2250.87z M3698.596,2167.272
		c-0.318,19.866-0.233,38.613-0.13,57.313h55.373c-0.009-19.509,0.11-38.273-0.063-57.313H3698.596z"/>
	<path clip-path="url(#SVGID_2_)" fill="#555555" d="M1666.522,2270.716v-30.896h279.07c2.225,6.792,2.58,18.006,0.87,30.896
		H1666.522z"/>
	<path clip-path="url(#SVGID_2_)" fill="#555555" d="M2525.86,2371.324c-6.177-2.318-11.677-4.385-18.44-6.923
		c-0.291,6.578-0.543,12.308-0.839,18.996h-67.69c-0.734,4.71-1.33,8.519-2.021,12.935h-23.027v-103.145h92.686v60.767
		c0.714,0.133,1.426,0.265,2.14,0.397c9.196-17.734,12.007-37.577,17.045-57.809c6.742,1.879,12.938,3.604,20.045,5.586
		C2542.066,2326.371,2537.826,2349.646,2525.86,2371.324 M2480.932,2316.655h-41.854c-2.114,10.493-1.833,35.538,0.374,42.802
		h41.479V2316.655z"/>
	<path clip-path="url(#SVGID_2_)" fill="#63A648" d="M2239.004,1446.509c-6.172-1.812-7.114-4.802-7.832-7.645
		c-2.671-10.567-6.011-21.115-7.372-31.758c-2.756-21.564-4.367-43.187-6.497-64.782c-0.309-3.143-1.125-6.272-1.253-9.417
		c-0.145-3.551-0.449-7.185,0.508-10.653c1.868-6.769,7.739-9.755,18.551-9.972c5.99-0.121,12.015-0.153,17.987,0.11
		c14.549,0.64,21.51,5.642,19.344,14.597c-5.368,22.191-11.375,44.321-16.845,66.503c-3.12,12.659-5.617,25.376-8.559,38.053
		c-0.77,3.316-1.834,6.636-3.382,9.834C2242.779,1443.188,2240.646,1444.754,2239.004,1446.509"/>
	<path clip-path="url(#SVGID_2_)" fill="#63A648" d="M1897.235,159.536c13.404-5.267,25.713-10.104,38.953-15.306
		c25.495,53.578,45.733,108.208,59.155,166.247c-13.915,5.875-27.307,11.529-41.865,17.675
		C1941.031,269.841,1921.535,214.533,1897.235,159.536"/>
	<path clip-path="url(#SVGID_2_)" fill="#63A648" d="M1662.966,164.835c-8.204,61.302-17.593,120.871-36.722,179.468
		c-14.166-5.922-27.542-11.514-41.891-17.512c19.165-54.852,30.489-110.949,37.442-169.402
		C1635.509,159.869,1648.678,162.251,1662.966,164.835"/>
	<path clip-path="url(#SVGID_2_)" fill="#555555" d="M1022.541,2292.509v90.484h-63.239c-0.599,4.501-1.07,8.04-1.618,12.157
		c-7.707,2.256-15.466,1.208-23.862,0.54v-103.182H1022.541z M959.536,2315.522c-1.935,12.133-1.535,36.122,0.559,43.148h37.393
		c0-7.505,0.019-14.433-0.005-21.361c-0.024-7.173-0.09-14.346-0.139-21.787H959.536z"/>
	<path clip-path="url(#SVGID_2_)" fill="#555555" d="M1535.551,2169.464c-3.837-0.185-6.448-0.417-9.059-0.419
		c-29.653-0.025-59.308,0.133-88.959-0.141c-5.961-0.054-9.68,1.669-12.954,6.817c-7.31,11.492-15.627,22.288-26.105,31.859
		c-7.13-6-13.935-11.725-21.467-18.063c21.843-20.017,36.501-44.655,46.842-72.595c9.02,2.289,17.258,4.382,26.454,6.718
		c-2.417,6.828-4.486,12.674-6.811,19.243c3.121,0.26,5.626,0.65,8.132,0.647c32.982-0.041,65.968-0.363,98.947-0.041
		c7.157,0.07,14.292,2.403,22.713,3.923c-7.272,18.855-15.276,36.13-24.412,53.762c-7.995-1.709-15.655-3.348-24.516-5.241
		C1528.215,2186.811,1531.74,2178.475,1535.551,2169.464"/>
	<path clip-path="url(#SVGID_2_)" fill="#63A648" d="M1284.326,284.733c1.912-0.383,3.819-1.067,5.737-1.097
		c7.925-0.126,15.852-0.053,24.877-0.053v45.792h35.516v-38.477h28.007v77.221h-13.703h-13.46
		c-0.501-4.205-0.916-7.691-1.416-11.891h-34.537v49.193h-29.837c-0.137-3.27-0.409-6.768-0.412-10.265
		c-0.032-33.597-0.007-67.194-0.038-100.791c-0.003-3.313-0.267-6.624-0.431-9.915
		C1284.608,284.471,1284.326,284.733,1284.326,284.733"/>
	<path clip-path="url(#SVGID_2_)" fill="#63A648" d="M1865.04,111.438c-10.799,9.831-21.346,19.432-32.303,29.407
		c-35.047-36.272-75.705-67.774-117.668-97.944c9.361-9.387,18.211-18.262,27.038-27.114
		C1759.984,21.936,1847.994,89.99,1865.04,111.438"/>
	<path clip-path="url(#SVGID_2_)" fill="#555555" d="M1497.01,2334.613c8.789,3.39,16.783,6.471,26.141,10.077
		c-0.671,13.085-1.599,27.071-10.367,38.61c-3.334,4.388-9.305,7.433-14.691,9.417c-5.153,1.899-11.102,2.167-16.708,2.212
		c-25.302,0.204-50.611,0.334-75.909-0.085c-8.233-0.135-16.572-1.427-24.622-3.252c-10.393-2.354-16.571-9.349-18.219-20.053
		c-0.405-2.628-1.143-5.255-1.158-7.886c-0.103-17.951-0.054-35.904-0.054-55.024c9.689-1.255,19.054-0.916,29.546-0.222
		c0,6.577,0,12.476,0,18.371c0.001,9.652-0.078,19.307,0.027,28.956c0.101,9.286,1.483,10.775,10.898,11.798
		c3.963,0.43,7.968,0.653,11.954,0.668c19.644,0.065,39.288,0.044,58.933,0.015c2.658-0.004,5.316-0.215,7.974-0.344
		c7.362-0.356,11.617-4.328,13.099-11.398c0.612-2.918,1.08-5.87,1.497-8.823C1495.946,2343.427,1496.433,2339.188,1497.01,2334.613
		"/>
	<path clip-path="url(#SVGID_2_)" fill="#555555" d="M1364.764,2292.94c-3.064,0.471-4.975,0.988-6.894,1.02
		c-6.607,0.105-13.217,0.041-20.922,0.041v-89.061c-0.64-0.32-1.279-0.643-1.919-0.963c-7.865,7.117-15.729,14.235-24.068,21.782
		c-6.239-7.847-11.956-15.038-18.419-23.168c29.767-23.898,54.057-52.524,72.278-86.872c8.665,2.982,16.655,5.731,26.119,8.988
		c-5.556,9.344-10.378,17.564-15.32,25.713c-2.067,3.41-4.173,6.837-6.648,9.95c-3.289,4.134-4.311,8.625-4.288,13.858
		c0.156,35.937,0.081,71.872,0.081,107.81V2292.94z"/>
	<path clip-path="url(#SVGID_2_)" fill="#63A648" d="M2727.416,296.869c10.938,4.392,21.981,8.827,34.479,13.845
		c-3.561,4.046-6.346,7.56-9.486,10.721c-28.12,28.306-61.472,48.745-97.889,64.417c-10.953,4.714-22.262,8.599-33.288,12.817
		c-9.406-11.971-18.2-23.162-27.745-35.31C2642.453,350.529,2688.736,332.146,2727.416,296.869"/>
	<path clip-path="url(#SVGID_2_)" fill="#63A648" d="M2848.52,319.336c8.648-9.141,16.396-17.328,23.952-25.314
		c20.622,6.172,108.888,59.407,127.599,77.147c-8.502,9.796-17.056,19.654-26.037,30.004
		C2934.758,369.791,2892.824,344.093,2848.52,319.336"/>
	<path clip-path="url(#SVGID_2_)" fill="#555555" d="M2811.416,2383.496c-0.3,4.578-0.537,8.199-0.827,12.629h-20.823v-102.961
		h70.658v89.494C2844.598,2383.937,2828.422,2382.529,2811.416,2383.496 M2838.458,2316.224h-26.795v43.505h26.795V2316.224z"/>
	<path clip-path="url(#SVGID_2_)" fill="#63A648" d="M2546.275,630.39c1.519-7.124,2.731-14.33,4.645-21.346
		c1.691-6.208,4.7-8.024,11.101-7.204c2.904,0.372,5.872,1.33,8.494,2.651c22.472,11.32,45.989,19.15,71.028,22.424
		c5.876,0.768,11.626,2.793,17.309,4.625c2.798,0.903,5.46,2.466,7.921,4.122c3.657,2.462,7.218,5.507,6.509,10.417
		c-0.754,5.217-5.48,6.569-9.719,7.141c-12.509,1.688-25.058,3.17-37.634,4.241c-14.901,1.27-29.897,1.554-44.763,3.117
		C2558.156,662.998,2547.004,653.479,2546.275,630.39"/>
	<path clip-path="url(#SVGID_2_)" fill="#555555" d="M2551.654,2290.362h23.717c0.227,3.92,0.595,7.433,0.606,10.945
		c0.062,17.326,0.019,34.652,0.038,51.979c0.004,2.996-0.059,6.012,0.242,8.984c0.691,6.787,1.923,8.393,8.547,8.607
		c11.321,0.368,22.665,0.346,33.99,0.062c5.914-0.146,8.498-2.681,9.748-9.405c1.091-5.872,1.377-11.898,1.945-17.862
		c0.314-3.293,0.481-6.601,0.797-11.059c4.183,1.745,7.705,3.264,11.265,4.687c3.381,1.351,6.803,2.604,10.711,4.093
		c0.391,13.155-1.144,25.879-6.021,38.065c-3.387,8.461-9.688,13.821-18.939,13.938c-18.973,0.24-37.985,0.475-56.923-0.452
		c-12.373-0.604-18.37-7.522-19.966-19.768c-0.301-2.302-0.306-4.655-0.309-6.984c-0.023-22.989-0.029-45.979,0.001-68.97
		C2551.106,2295.258,2551.41,2293.292,2551.654,2290.362"/>
	<path clip-path="url(#SVGID_2_)" fill="#555555" d="M2514.514,2166.941v23.613h-108.896c-0.146-3.623-0.345-7.136-0.415-10.653
		c-0.07-3.636-0.016-7.274-0.016-12.284c15.813-0.639,31.255,0.018,48.304-0.449c-6.052-14.247-11.568-27.23-17.425-41.017
		c8.099-2.906,15.748-5.651,24.529-8.805c6.612,13.694,12.91,26.735,19.688,40.77c-6.378,2.785-11.67,5.098-16.962,7.409
		c0.06,0.473,0.121,0.943,0.182,1.416H2514.514z"/>
	<rect x="2099.822" y="2187.43" clip-path="url(#SVGID_2_)" fill="#555555" width="153.801" height="23.305"/>
	<path clip-path="url(#SVGID_2_)" fill="#555555" d="M1031.565,2167.12v22.273c-7.36,2.141-94.207,2.558-105.939,0.506v-22.207
		h48.122c-2.354-15.419-9.227-28.289-14.008-42.976c8.222-2.422,15.983-4.708,23.516-6.928c7.631,12.339,14.881,30.777,16.048,40.86
		c-6.239,2.3-12.65,4.663-19.059,7.026c0.043,0.48,0.085,0.963,0.128,1.444H1031.565z"/>
	<path clip-path="url(#SVGID_2_)" fill="#63A648" d="M1075.427,1394.085c13.64-0.577,27.281-1.104,40.917-1.756
		c7.868-0.376,11.805,1.862,14.715,9.179c3.102,7.796,2.804,15.718-0.329,23.396c-2.79,6.841-8.32,10.847-15.588,10.412
		c-9.254-0.553-18.678-1.416-27.597-3.777c-18.339-4.856-36.444-10.636-54.52-16.424c-3.982-1.273-7.962-3.613-11.021-6.453
		c-4.22-3.917-3.36-9.107,1.998-11.25c5.162-2.063,10.883-3.439,16.425-3.702c11.636-0.548,23.316-0.166,34.978-0.166
		C1075.412,1393.726,1075.42,1393.905,1075.427,1394.085"/>
	<path clip-path="url(#SVGID_2_)" fill="#63A648" d="M1.307,1696.067c0-3.993-0.022-7.946,0.004-11.898
		c0.069-10.1,0.122-10.622,9.539-13.542c7.265-2.252,14.741-4.104,22.26-5.189c10.526-1.518,15.62,2.055,18.122,12.423
		c1.471,6.096,2.096,12.428,2.712,18.69c1.82,18.496,3.605,37,5.044,55.529c0.38,4.898,0.048,10.027-1.003,14.82
		c-1.437,6.551-6.148,7.902-10.843,3.003c-3.114-3.25-5.455-7.491-7.296-11.662c-5.093-11.535-10.232-23.093-14.433-34.966
		C21.086,1711.045,13.453,1702.134,1.307,1696.067"/>
	<path clip-path="url(#SVGID_2_)" fill="#555555" d="M1469.063,2178.366h24.949c2.373,7.192,3.113,99.804,0.94,113.936h-25.389
		C1467.48,2285.484,1466.884,2191.688,1469.063,2178.366"/>
	<path clip-path="url(#SVGID_2_)" fill="#63A648" d="M4661.051,757.154c0.277,4.115,0.821,8.221,0.781,12.323
		c-0.118,12.144-0.419,24.288-0.747,36.429c-0.135,4.969,0.72,10.299-5.454,13.025c-1.277,0.564-1.507,3.36-2.369,5.051
		c-1.152,2.257-2.115,4.731-3.744,6.604c-8.73,10.046-16.787,8.372-20.906-4.292c-0.984-3.027-1.832-6.174-2.154-9.327
		c-1.4-13.663-2.969-27.328-3.73-41.034c-0.649-11.686,3.629-16.895,14.879-20.192
		C4645.102,753.545,4652.594,752.22,4661.051,757.154"/>
	<path clip-path="url(#SVGID_2_)" fill="#555555" d="M2873.479,2170.999v-21.91c11.803-2.722,23.804,0.079,36.854-1.88
		c-3.323-7.792-6.363-14.921-9.842-23.077c4.053-1.222,7.715-2.366,11.399-3.422c3.45-0.988,6.928-1.883,11.305-3.065
		c4.953,10.067,9.752,19.814,14.972,30.419h27.091v22.936H2873.479z"/>
	<path clip-path="url(#SVGID_2_)" fill="#63A648" d="M3541.594,1460.565c17.122,2.523,34.317,4.644,51.342,7.72
		c10.594,1.915,16.066,8.635,15.475,16.624c-0.699,9.427-9.925,20.524-18.681,20.689c-5.729,0.109-11.809-1.527-17.192-3.712
		c-10.436-4.235-20.391-9.64-30.743-14.106c-6.912-2.983-12.985-6.864-17.384-12.969c-4.705-6.527-2.697-11.665,5.123-12.989
		c3.915-0.663,7.967-0.522,11.956-0.744C3541.524,1460.907,3541.559,1460.737,3541.594,1460.565"/>
	<path clip-path="url(#SVGID_2_)" fill="#555555" d="M1514.729,2312.549c8.586-3.36,16.51-6.462,25.164-9.85
		c14.29,21.956,26.264,44.498,34.057,70.13c-9.401,3.754-17.912,7.152-26.959,10.763c-4.933-12.34-9.255-24.359-14.51-35.957
		C1527.294,2336.188,1521.166,2325.166,1514.729,2312.549"/>
	<path clip-path="url(#SVGID_2_)" fill="#555555" d="M2413.781,2231.392v-21.872c30.807-0.434,61.533-0.056,92.672-0.214
		c2.58,7.537,1.551,14.649,0.998,21.648C2500.106,2233.277,2424.182,2233.637,2413.781,2231.392"/>
	<path clip-path="url(#SVGID_2_)" fill="#63A648" d="M2567.488,1769.647c-0.246-9.684,4.287-17.021,10.32-19.514
		c6.834-2.822,13.376-1.169,18.533,5.393c3.263,4.153,5.734,8.923,8.675,13.34c6.437,9.663,13.124,19.163,19.354,28.957
		c3.369,5.296,6.306,10.927,8.809,16.68c0.882,2.028,0.811,5.954-0.487,7.052c-1.452,1.23-5.136,1.001-7.233,0.051
		c-4.506-2.04-9.041-4.442-12.813-7.597c-13.225-11.063-26.357-22.263-39.01-33.969
		C2570.251,1776.905,2568.703,1771.784,2567.488,1769.647"/>
	<path clip-path="url(#SVGID_2_)" fill="#555555" d="M932.882,2208.146h89.75v22.292c-29.815,0.776-59.465,0.148-89.75,0.402
		V2208.146z"/>
	<path clip-path="url(#SVGID_2_)" fill="#555555" d="M1323.021,2388.637c-9.383-4.568-17.862-8.696-25.957-12.639
		c10.164-22.611,19.921-44.321,30.13-67.034c7.721,3.186,15.821,6.526,24.673,10.178
		C1343.356,2343.084,1334.947,2365.951,1323.021,2388.637"/>
	<path clip-path="url(#SVGID_2_)" fill="#555555" d="M2507.396,2251.894v21.096h-93.402v-20.599
		C2420.628,2250.117,2495.261,2249.568,2507.396,2251.894"/>
	<rect x="933.404" y="2249.794" clip-path="url(#SVGID_2_)" fill="#555555" width="89.437" height="21.594"/>
	<path clip-path="url(#SVGID_2_)" fill="#555555" d="M1406.536,2273.745c-7.78-6.324-14.444-11.741-21.543-17.513
		c16.585-15.122,28.954-32.656,38.101-53.954c8.702,2.285,17.169,4.509,26.77,7.028
		C1439.212,2233.996,1425.108,2254.862,1406.536,2273.745"/>
	<path clip-path="url(#SVGID_2_)" fill="#555555" d="M1509.723,2212.062c7.167-3.386,14.335-6.771,22.53-10.644
		c14.938,17.979,27.692,37.129,37.966,59.216c-7.713,5.23-15.724,8.896-23.332,12.56
		C1534.576,2252.944,1522.518,2233.109,1509.723,2212.062"/>
	<rect x="2780.229" y="2169.006" clip-path="url(#SVGID_2_)" fill="#555555" width="86.438" height="22.112"/>
	<path clip-path="url(#SVGID_2_)" fill="#555555" d="M1474.256,2336.221c-7.796,4.495-15.209,8.771-22.343,12.883
		c-14.155-18.016-27.97-35.597-42.145-53.636c6.75-3.64,13.697-7.385,20.337-10.965
		C1442.412,2292.082,1466.492,2320.137,1474.256,2336.221"/>
	<rect x="2789.955" y="2209.926" clip-path="url(#SVGID_2_)" fill="#555555" width="70.508" height="22.23"/>
	<path clip-path="url(#SVGID_2_)" fill="#555555" d="M2644.945,2290.335c6.33-2.184,12.498-4.312,19.304-6.659
		c11.529,20.712,20.883,41.696,27.426,64.775c-7.506,2.914-14.239,5.529-21.003,8.155
		C2662.182,2334.737,2653.84,2313.245,2644.945,2290.335"/>
	<path clip-path="url(#SVGID_2_)" fill="#555555" d="M2860.652,2251.702v20.155c-7.082,2.258-57.753,2.844-70.734,0.797v-20.31
		C2796.673,2250.188,2847.363,2249.603,2860.652,2251.702"/>
	<path clip-path="url(#SVGID_2_)" fill="#555555" d="M3051.232,2187.449c-8.236,3.375-15.513,6.354-22.739,9.315
		c-7.577-17.963-14.91-35.349-22.728-53.879c6.48-2.603,13.354-5.365,21.047-8.457
		C3036.622,2151.402,3044.83,2168.239,3051.232,2187.449"/>
	<path clip-path="url(#SVGID_2_)" fill="#555555" d="M569.671,2125.38c8.676-2.498,15.849-4.564,23.905-6.887
		c5.312,17.038,10.317,33.087,15.677,50.278c-8.123,2.869-15.784,5.575-24.634,8.701
		C579.653,2160.165,574.864,2143.479,569.671,2125.38"/>
	<path clip-path="url(#SVGID_2_)" fill="#555555" d="M2628.83,2310.414c-7.453,5.327-13.053,9.329-18.885,13.497
		c-11.04-15.645-21.788-30.877-32.984-46.744c5.512-3.54,10.979-7.054,17.614-11.315
		C2605.99,2280.7,2617.011,2295.035,2628.83,2310.414"/>
	<path clip-path="url(#SVGID_2_)" fill="#555555" d="M2800.896,2125.552c6.688-2.673,13.018-5.202,20.597-8.23
		c7.179,13.093,14.095,25.706,21.628,39.441c-7.905,3.806-14.549,7.006-21.594,10.396
		C2814.648,2153.289,2807.964,2139.809,2800.896,2125.552"/>
	<path clip-path="url(#SVGID_2_)" fill="#63A648" d="M3015.531,881.049c8.766-11.182,15.822-11.899,33.645-3.419
		C3040.98,884.634,3028.681,885.884,3015.531,881.049"/>
	<path clip-path="url(#SVGID_2_)" fill="#63A648" d="M3169.828,1243.638c5.857,10.634,4.283,19.609-4.56,28.491
		C3162.291,1262.144,3163.653,1253.261,3169.828,1243.638"/>
	<path clip-path="url(#SVGID_2_)" fill="#63A648" d="M3208.635,830.624c0.989-1.208,1.429-2.212,2.178-2.573
		c2.608-1.257,5.326-2.292,8.942-3.805v9.356C3215.795,832.541,3212.465,831.65,3208.635,830.624"/>
	<path clip-path="url(#SVGID_2_)" fill="#63A648" d="M3587.037,1376.729c1.293-0.895,2.586-1.788,3.881-2.684
		c0.347,0.441,0.692,0.881,1.039,1.321c-1.19,1.104-2.38,2.209-3.569,3.312C3587.937,1378.03,3587.486,1377.38,3587.037,1376.729"/>
</g>
</svg>
