<?xml version="1.0" encoding="utf-8"?>
<!-- Generator: Adobe Illustrator 25.0.0, SVG Export Plug-In . SVG Version: 6.00 Build 0)  -->
<svg version="1.1" id="圖層_5" xmlns="http://www.w3.org/2000/svg" xmlns:xlink="http://www.w3.org/1999/xlink" x="0px" y="0px"
	 viewBox="0 0 133.2 36.7" style="enable-background:new 0 0 133.2 36.7;" xml:space="preserve">
<style type="text/css">
	.st0{fill:#009FE8;}
	.st1{fill:#23AB38;}
	.st2{fill:#00A0E8;}
	.st3{fill:#02A0E8;}
	.st4{fill:#01A0E8;}
	.st5{fill:#FEFEFE;}
	.st6{fill:#89D2F4;}
</style>
<g>
	<path class="st0" d="M6,0.1c0.3,0.1,0.6,0.3,0.8,0.5c2.7,2.7,5.3,5.3,8,8c0.2,0.2,0.3,0.2,0.5,0.1c2.2-0.6,4.3-0.4,6.3,0.5
		c1.2,0.6,1.6,2,0.9,3.1c-0.6,0.9-1,1.9-1.3,3c-0.4,1.8-0.1,3.5,0.6,5.1c0.9,1.9,2.1,3.6,3.4,5.2c1.3,1.5,2.7,3,4.1,4.4
		c1,1,1,2.4-0.1,3.3c-0.9,0.8-1.9,1.6-2.8,2.4c-0.9,0.7-1.9,0.7-2.8,0c-1.3-1.1-2.7-2.2-3.9-3.3c-2.1-1.8-4-3.7-5.8-5.8
		c-0.2-0.2-0.4-0.5-0.7-0.7C9,21.7,4.7,17.4,0.5,13.2c-0.5-0.5-0.6-1.1-0.3-1.6c0.3-0.6,0.9-0.9,1.5-0.8c0.3,0.1,0.5,0.3,0.8,0.5
		c2,2,4,4,6,6c0.1,0.1,0.1,0.2,0.2,0.3h0.1c0-0.3,0-0.7,0-1c0-0.1-0.1-0.2-0.2-0.2C6.2,14,3.9,11.7,1.5,9.3C1.3,9.1,1.1,8.9,1,8.6
		C0.9,8,1.2,7.4,1.8,7.1c0.5-0.3,1.1-0.2,1.5,0.3c2,2,4,4,6,6c0.3,0.3,0.3,0.3,0.4-0.1c0.2-0.4,0.2-0.4-0.1-0.8
		c-2.5-2.5-5-5-7.5-7.5C1.6,4.5,1.6,3.9,1.9,3.4C2.3,2.8,3,2.5,3.6,2.8C3.8,2.9,4,3,4.1,3.2c2.5,2.5,4.9,4.9,7.4,7.4
		c0.2,0.2,0.3,0.2,0.5,0c0.4-0.3,0.4-0.3,0-0.7C9.6,7.5,7.2,5,4.7,2.7C3.8,1.6,4.4,0.4,5.4,0.1l0,0C5.6,0.1,5.8,0.1,6,0.1z"/>
	<path class="st0" d="M72.6,0.1c0.3,0.1,0.5,0.3,0.8,0.5c0.4,0.5,0.5,1.2,0.1,1.7c-0.1,0.1-0.2,0.2-0.2,0.3
		c-2.5,2.5-4.9,4.9-7.4,7.4c-0.2,0.2-0.2,0.2,0,0.4c0.4,0.3,0.4,0.3,0.8,0C69.1,8,71.5,5.6,74,3.1c0.6-0.6,1.3-0.6,1.9,0
		s0.6,1.3,0,1.9c-2.5,2.5-5.1,5.1-7.6,7.6c-0.2,0.2-0.2,0.3-0.1,0.5c0.1,0.1,0.2,0.3,0.3,0.5c0.1-0.1,0.1-0.2,0.2-0.3c2-2,4-4,6-6
		c0.4-0.4,1-0.6,1.5-0.3c0.6,0.3,0.9,0.8,0.9,1.4c0,0.3-0.2,0.6-0.4,0.9c-2.4,2.4-4.8,4.8-7.2,7.1c-0.2,0.2-0.3,0.3-0.2,0.6
		c0,0.2,0,0.5,0,0.7c0.1,0,0.2-0.1,0.3-0.2c2-2,4.1-4.1,6.1-6.1c0.4-0.4,0.8-0.6,1.4-0.4c0.5,0.2,0.9,0.6,1,1.1c0.1,0.4,0,0.7-0.3,1
		c-0.1,0.1-0.2,0.2-0.3,0.3C73.2,17.6,69,21.8,64.8,26c-1.2,1.2-2.3,2.5-3.5,3.7c-2.2,2.2-4.5,4.2-6.9,6.1c-0.8,0.6-1.9,0.6-2.7,0
		c-1-0.8-2-1.6-3-2.5s-1-2.3-0.1-3.2c2-2,4-4,5.6-6.4c1-1.4,1.8-2.8,2.4-4.4c0.8-2.4,0.3-4.6-1-6.7c-0.2-0.4-0.5-0.8-0.5-1.2
		c-0.1-0.9,0.3-1.8,1.2-2.2c2-1,4.2-1.2,6.3-0.6c0.3,0.1,0.4,0,0.6-0.1c2.6-2.6,5.2-5.2,7.8-7.8c0.3-0.3,0.6-0.6,0.9-0.7
		C72.2,0.1,72.4,0.1,72.6,0.1z"/>
	<path class="st1" d="M31.4,8.4c2.3,0,4.1,0.6,5.7,1.8c1.2,0.9,2.6,0.9,3.8,0c5.2-3.8,12.4-1.2,14,5c0.5,1.9,0.2,3.8-0.6,5.6
		c-1,2-2.3,3.8-3.8,5.5c-2.9,3.4-6.2,6.4-9.7,9.2c-0.1,0.1-0.3,0.2-0.4,0.3c-0.8,0.6-1.9,0.6-2.7,0c-2-1.6-3.9-3.2-5.8-5
		c-2-1.9-3.9-3.9-5.6-6.1c-1-1.3-2-2.7-2.6-4.3c-1.3-3-0.9-5.8,1-8.3C26.3,9.6,28.8,8.4,31.4,8.4z"/>
	<path class="st0" d="M88.8,12.9c0.6,1,1.4,1.9,2.3,2.5c0.7,0.5,1.5,0.9,2.3,1.3c0.5,0.2,0.6,0.5,0.4,1s-0.5,0.7-1,0.6
		c-0.3-0.1-0.6-0.2-0.9-0.4c-1.6-0.9-3-1.9-4.1-3.4c0,0,0-0.1-0.1-0.1c-1,1.6-2.6,2.5-4.2,3.5c-0.3,0.1-0.5,0.3-0.8,0.4
		c-0.5,0.2-0.9,0-1.1-0.4c-0.2-0.5,0-0.9,0.5-1.1c1-0.5,2-1,2.9-1.7c0.6-0.5,1.2-1,1.5-1.8c0.1-0.3,0.1-0.3-0.2-0.3
		c-1.3,0-2.6,0-4,0c-0.3,0-0.5,0-0.7-0.3c-0.1-0.3-0.1-0.6,0-0.9c0.1-0.2,0.3-0.2,0.6-0.2c1.4,0,2.9,0,4.3,0c0.2,0,0.3-0.1,0.3-0.3
		c0-0.5,0-0.9,0-1.4c0-0.2,0-0.3-0.3-0.3c-0.7,0-1.4,0-2.2,0c-0.2,0-0.3,0.1-0.4,0.2c-0.3,0.5-0.6,1-1,1.4c-0.2,0.2-0.5,0.2-0.8,0.1
		c-0.3-0.2-0.5-0.4-0.4-0.8c0-0.1,0.1-0.2,0.1-0.3c0.8-0.9,1.2-2,1.5-3.1c0.1-0.3,0.2-0.5,0.5-0.5c0.3-0.1,0.7,0,0.9,0.2
		c0.2,0.2,0.2,0.4,0.1,0.6c-0.1,0.2-0.1,0.5-0.2,0.8c0.7,0,1.3,0,1.9,0c0.2,0,0.1-0.1,0.1-0.2c0-0.4,0-0.8,0-1.2s0.2-0.6,0.5-0.6
		c0.2,0,0.3,0,0.5,0c0.3,0.1,0.5,0.2,0.5,0.6c0,0.4,0,0.8,0,1.1c0,0.2,0.1,0.3,0.3,0.3c1.2,0,2.5,0,3.7,0c0.5,0,0.7,0.2,0.7,0.7
		S92.6,9.7,92,9.7c-1.2,0-2.5,0-3.7,0c-0.2,0-0.3,0-0.3,0.3c0,0.5,0,0.9,0,1.4c0,0.2,0.1,0.3,0.3,0.3c1.4,0,2.9,0,4.3,0
		c0.3,0,0.5,0,0.6,0.3s0.1,0.7-0.1,1c-0.1,0.2-0.3,0.2-0.5,0.2c-1.3,0-2.6,0-4,0C89.1,12.9,89,12.9,88.8,12.9z"/>
	<path class="st0" d="M23.5,5.3c0,1.6-1.3,2.8-2.8,2.8c-1.6,0-2.8-1.2-2.8-2.8s1.3-2.9,2.8-2.8C22.3,2.5,23.5,3.8,23.5,5.3z"/>
	<path class="st0" d="M60.1,5.3c0,1.6-1.3,2.8-2.8,2.8c-1.6,0-2.8-1.2-2.8-2.8s1.2-2.8,2.8-2.8C58.8,2.5,60.1,3.8,60.1,5.3z"/>
	<path class="st1" d="M39,8.1c-1.6,0-2.8-1.2-2.8-2.8c0-1.5,1.3-2.8,2.8-2.8c1.6,0,2.8,1.3,2.8,2.8C41.8,6.9,40.6,8.1,39,8.1z"/>
	<path class="st0" d="M95,22.6c0.7-1,2.4-1,2.9,0.1c0.1,0,0.1-0.1,0.2-0.2c0.5-0.6,1.2-0.7,1.9-0.6c0.6,0.1,1,0.6,1,1.2
		c0,1.2,0,2.4,0,3.6c0,0.3-0.1,0.4-0.4,0.4s-0.4-0.1-0.4-0.4c-0.1-0.5,0-1,0-1.5c0-0.6,0-1.2,0-1.7s-0.2-0.8-0.6-0.9
		c-0.5-0.1-1,0-1.3,0.4c-0.2,0.3-0.3,0.6-0.3,1c0,0.8,0,1.6,0,2.4c0,0.1,0,0.3,0,0.4c0,0.2-0.2,0.3-0.4,0.3c-0.2,0-0.4-0.1-0.4-0.3
		c0-0.1,0-0.3,0-0.4c0-0.8,0-1.7,0-2.5c0-0.1,0-0.2,0-0.3c0-0.6-0.3-0.9-0.7-0.9c-0.6-0.1-1.1,0.2-1.3,0.7c-0.1,0.3-0.2,0.7-0.2,1.1
		c0,0.7,0,1.3,0,2c0,0.1,0,0.2,0,0.3c0,0.4-0.2,0.5-0.4,0.5c-0.3,0-0.4-0.2-0.4-0.5c0-1.4,0-2.8,0-4.2c0-0.1,0-0.2,0-0.3
		c0-0.2,0.2-0.3,0.3-0.3c0.2,0,0.3,0.1,0.3,0.2C95,22.2,95,22.4,95,22.6z"/>
	<path class="st0" d="M82.2,33c0-0.9,0-1.9,0-2.8c0-0.6,0.1-0.7,0.7-0.7c1.1,0,2.1,0,3.2,0c0.1,0,0.2,0,0.3,0
		c0.2,0.1,0.2,0.2,0.2,0.4s-0.1,0.3-0.2,0.3s-0.3,0-0.4,0c-0.9,0-1.7,0-2.6,0c-0.2,0-0.3,0-0.3,0.3c0,0.6,0,1.2,0,1.8
		c0,0.2,0.1,0.2,0.2,0.2c0.7,0,1.4,0,2.1,0c0.1,0,0.2,0,0.3,0c0.2,0,0.4,0.1,0.4,0.4c0,0.2-0.2,0.4-0.5,0.4c-0.8,0-1.5,0-2.3,0
		c-0.2,0-0.3,0.1-0.3,0.3c0,0.7,0,1.4,0,2.1c0,0.2,0,0.4,0,0.5c0,0.2-0.2,0.4-0.4,0.4c-0.3,0-0.4-0.1-0.4-0.4c0-0.4,0-0.9,0-1.3
		C82.2,34.2,82.2,33.6,82.2,33z"/>
	<path class="st0" d="M108.4,22.6c0.6-0.7,1.3-1,2.1-0.7c0.7,0.2,1.1,0.7,1.1,1.4c0,1.1,0,2.2,0,3.3c0,0.3-0.1,0.4-0.4,0.4
		s-0.4-0.1-0.4-0.4c-0.1-0.8,0-1.7,0-2.5c0-0.2,0-0.4,0-0.6c-0.1-0.8-0.6-1.2-1.4-0.9c-0.6,0.2-0.9,0.6-1,1.3
		c-0.1,0.8,0,1.7-0.1,2.5c0,0.1,0,0.2,0,0.3c0,0.2-0.2,0.4-0.4,0.3c-0.2,0-0.4-0.1-0.4-0.3c0-0.1,0-0.2,0-0.3c0-1.3,0-2.6,0-3.9
		c0-0.1,0-0.2,0-0.3c0-0.2,0.2-0.3,0.4-0.3c0.2,0,0.3,0.1,0.4,0.3C108.4,22.3,108.4,22.5,108.4,22.6z"/>
	<path class="st0" d="M99.5,32c0.5-0.5,1-0.8,1.7-0.8c0.9,0,1.6,0.7,1.6,1.6c0,1.1,0,2.1,0,3.2c0,0.4-0.2,0.5-0.5,0.5
		c-0.2,0-0.3-0.1-0.4-0.3c0-0.2,0-0.3,0-0.5c0-0.8,0-1.6,0-2.3c0-0.1,0-0.1,0-0.2c0-0.7-0.3-1.1-0.9-1.2c-0.6-0.1-1.3,0.4-1.4,0.9
		s-0.1,1-0.1,1.4c0,0.5,0,1,0,1.5c0,0.1,0,0.2,0,0.3c0,0.2-0.2,0.3-0.4,0.3c-0.2,0-0.3-0.1-0.4-0.3c0-0.1,0-0.3,0-0.4
		c0-1.3,0-2.5,0-3.8c0-0.1,0-0.3,0-0.4c0.1-0.2,0.2-0.3,0.4-0.3c0.2,0,0.3,0.1,0.4,0.3C99.5,31.7,99.5,31.8,99.5,32z"/>
	<path class="st0" d="M111.5,36.5c-0.5,0-1.1-0.1-1.5-0.6c-0.2-0.2-0.3-0.4-0.3-0.7c0-0.2,0.1-0.3,0.2-0.4c0.2-0.1,0.3,0,0.4,0.1
		s0.1,0.2,0.2,0.2c0.4,0.7,1.4,1,2.1,0.5c0.5-0.3,0.5-0.9,0-1.2c-0.3-0.1-0.5-0.2-0.8-0.3c-0.4-0.1-0.9-0.2-1.3-0.4
		c-0.9-0.5-1-1.6-0.1-2.2c0.6-0.4,1.2-0.4,1.8-0.3c0.5,0.1,0.9,0.2,1.2,0.6c0.1,0.1,0.2,0.3,0.2,0.4c0,0.2,0,0.4-0.2,0.5
		s-0.4,0-0.5-0.2c-0.4-0.7-1-0.9-1.7-0.6c-0.3,0.1-0.5,0.3-0.5,0.6s0.2,0.5,0.5,0.6c0.4,0.2,0.8,0.2,1.2,0.3
		c0.2,0.1,0.4,0.1,0.7,0.2c0.5,0.2,0.8,0.5,0.9,1.1s-0.2,1.1-0.8,1.4C112.6,36.5,112.1,36.5,111.5,36.5z"/>
	<path class="st2" d="M113.1,24.3c0-0.5,0-1,0-1.4c0-0.2,0-0.4-0.3-0.3c0,0,0,0-0.1,0c-0.2,0-0.3-0.1-0.3-0.3c0-0.2,0.1-0.3,0.3-0.3
		c0.1,0,0.3,0,0.4-0.1s0-0.3,0-0.5c0-0.3,0-0.5,0-0.8s0.2-0.4,0.4-0.4c0.3,0,0.4,0.1,0.4,0.4s0,0.6,0,0.9s0.1,0.4,0.3,0.4
		c0.1,0,0.3,0,0.4,0c0.2,0,0.3,0.1,0.2,0.3c0,0.2-0.1,0.3-0.3,0.3c-0.2,0-0.3,0-0.5,0c-0.1,0-0.2,0-0.2,0.2c0,1,0,2.1,0,3.1
		c0,0.5,0.2,0.6,0.6,0.5c0.1,0,0.2,0,0.3,0c0.1,0,0.3,0,0.3,0.2c0.1,0.2,0,0.3-0.1,0.4c-0.5,0.2-1,0.2-1.5,0
		c-0.4-0.2-0.5-0.5-0.5-0.9C113.1,25.4,113.1,24.8,113.1,24.3z"/>
	<path class="st0" d="M88.4,32c0.1-0.1,0.1-0.2,0.2-0.3c0.4-0.6,1.1-0.7,1.7-0.3c0.2,0.1,0.3,0.4,0.2,0.6c-0.1,0.2-0.3,0.2-0.5,0.2
		c-0.8-0.2-1.2,0-1.4,0.8c-0.1,0.3-0.1,0.7-0.1,1.1c0,0.7,0,1.3,0,2c0,0.3-0.1,0.5-0.4,0.5s-0.4-0.2-0.4-0.5c0-1.4,0-2.9,0-4.3
		c0-0.2,0.1-0.4,0.3-0.4c0.3,0,0.4,0.2,0.4,0.4C88.3,31.8,88.3,31.9,88.4,32C88.3,32,88.3,32,88.4,32z"/>
	<path class="st2" d="M115.9,24.4c0-0.7,0-1.4,0-2.1c0-0.4,0.2-0.6,0.5-0.5c0.2,0,0.3,0.1,0.3,0.3c0,0.2,0,0.3,0,0.5
		c0,1.3,0,2.5,0,3.8c0,0.1,0,0.3,0,0.4c0,0.2-0.2,0.3-0.4,0.4c-0.2,0-0.4-0.1-0.4-0.3c0-0.1,0-0.2,0-0.4
		C115.9,25.8,115.9,25.1,115.9,24.4L115.9,24.4z"/>
	<path class="st0" d="M92,33.8c0,0.7,0,1.4,0,2.1c0,0.1,0,0.3-0.1,0.4c-0.2,0.2-0.6,0.2-0.7-0.1c-0.1-0.2-0.1-0.3-0.1-0.5
		c0-1.3,0-2.5,0-3.8c0-0.1,0-0.2,0-0.3c0-0.3,0.2-0.4,0.4-0.4c0.3,0,0.4,0.2,0.4,0.4c0,0.7,0,1.3,0,2C92,33.7,92,33.8,92,33.8z"/>
	<path class="st3" d="M92,29.9c0,0.3-0.2,0.5-0.5,0.5S91,30.2,91,29.9s0.2-0.5,0.5-0.5C91.8,29.5,92,29.7,92,29.9z"/>
	<path class="st4" d="M116.8,20.5c0,0.3-0.2,0.5-0.5,0.5s-0.5-0.2-0.5-0.5s0.2-0.5,0.5-0.5C116.6,20.1,116.8,20.3,116.8,20.5z"/>
	<path class="st0" d="M132.2,13c-0.7,0-1.4,0-2.1,0c-0.2,0-0.2,0-0.1-0.2c0.1-0.1,0.2-0.3,0.2-0.5c0.1-0.2,0.2-0.2,0.3-0.2
		c0.5,0,0.9,0,1.4,0c0.4,0,0.6-0.2,0.6-0.6c0-0.5-0.2-0.6-0.6-0.6c-1.5,0-3,0-4.4,0c-0.2,0-0.3-0.1-0.3-0.3c0-0.3,0.1-0.3,0.3-0.3
		c1.3,0,2.6,0,3.9,0c0.4,0,0.6-0.2,0.6-0.6s-0.2-0.6-0.6-0.6c-1.3,0-2.6,0-3.9,0c-0.2,0-0.3,0-0.3-0.3c0-0.2,0.1-0.3,0.3-0.3
		c0.1,0,0.2,0,0.3,0c1.3,0,2.6,0,3.9,0c0.4,0,0.6-0.2,0.6-0.6c0-0.4-0.2-0.6-0.6-0.6c-0.4,0-0.8,0-1.2,0c-0.2,0-0.5,0-0.8,0
		c0.1-0.1,0.2-0.2,0.2-0.3c0.2-0.3,0.2-0.6,0-0.8c-0.3-0.2-0.8-0.2-1,0.1s-0.5,0.6-0.7,0.9c-0.1,0.1-0.2,0.2-0.3,0.2
		c-0.8,0-1.7,0-2.5,0c-0.2,0-0.3-0.1-0.4-0.2c-0.2-0.3-0.5-0.6-0.8-0.9c-0.3-0.2-0.5-0.2-0.8-0.1c-0.3,0.1-0.4,0.5-0.2,0.8
		c0.1,0.1,0.2,0.3,0.4,0.4c-0.1,0-0.2,0-0.3,0c-0.5,0-1.1,0-1.6,0c-0.3,0-0.4,0.1-0.5,0.4c-0.2,0.6,0.1,0.9,0.7,0.9
		c0.2,0,0.4,0,0.6,0c1.1,0,2.3,0,3.4,0c0.1,0,0.2-0.1,0.3,0.1c0.1,0.3,0,0.4-0.3,0.4c-1.2,0-2.4,0-3.6,0c-0.2,0-0.4,0-0.5,0.2
		c-0.2,0.3-0.1,0.5,0,0.8c0.1,0.2,0.3,0.2,0.5,0.2c1.2,0,2.4,0,3.6,0c0.2,0,0.3,0,0.3,0.3s-0.1,0.3-0.3,0.3c-1.4,0-2.8,0-4.2,0
		c-0.4,0-0.5,0.2-0.5,0.6s0.2,0.6,0.5,0.7c0.4,0,0.8,0,1.2,0c0.1,0,0.2,0,0.2,0.1c0.1,0.2,0.3,0.5,0.4,0.8c-0.7,0-1.4,0-2.1,0
		c-0.2,0-0.4,0-0.4,0.2c-0.1,0.3-0.1,0.6,0,0.8c0.1,0.2,0.4,0.2,0.6,0.2c3.6,0,7.3,0,10.9,0c0.3,0,0.5-0.1,0.7-0.3
		c0-0.2,0-0.5,0-0.7C132.7,13.1,132.5,13,132.2,13z M125.3,13c-0.5,0-0.8-0.1-1-0.6c0-0.1-0.1-0.1-0.1-0.3c0.5,0,1,0,1.5,0
		c0.2,0,0.2,0.1,0.2,0.2C125.9,13,125.9,13,125.3,13z M128.6,12.9c0,0.1-0.1,0.1-0.2,0.1c-0.3,0-0.7,0-1,0c-0.1,0-0.2,0-0.2-0.2
		c-0.1-0.7-0.1-0.7,0.6-0.7c0.4,0,0.7,0,1.1,0C128.8,12.4,128.7,12.7,128.6,12.9z"/>
	<path class="st5" d="M46.9,21.9c-0.1,0-0.2,0-0.3,0c-1,0-1.9,0-2.9,0c-0.2,0-0.3,0.1-0.3,0.3c0,2,0,3.9,0,5.9c0,0.2,0,0.3-0.3,0.3
		c-2.8,0-5.6,0-8.3,0c-0.3,0-0.3-0.1-0.3-0.3c0-2,0-3.9,0-5.9c0-0.2,0-0.3-0.3-0.3c-0.9,0-1.9,0-2.8,0c-0.1,0-0.2,0-0.3,0
		c0.4-0.4,0.7-0.8,1.1-1.1c2.1-2.1,4.3-4.1,6.5-6.2c0.1-0.1,0.1-0.1,0.2-0.2c0.1-0.1,0.2-0.1,0.3,0c2.6,2.5,5.1,5,7.7,7.4
		C46.9,21.9,46.9,21.9,46.9,21.9z"/>
	<path class="st0" d="M119.4,16.8c-0.1,0-0.2-0.1-0.3-0.1c-1-0.4-1.9-0.7-2.8-1.3c-0.2-0.1-0.2-0.2,0-0.4c0.7-0.7,1.2-1.6,1.7-2.5
		c0.2-0.3,0.3-0.6,0.4-1c0.1-0.7-0.2-1.2-0.9-1.3c-0.2,0-0.3,0-0.5,0c-1.3,0-2.7,0-4,0c-0.2,0-0.5,0-0.7,0c0.1-0.3,0.1-0.5,0.2-0.8
		c0-0.2,0.1-0.3,0.4-0.3c2.1,0,4.1,0,6.2,0c0.1,0,0.2,0,0.3,0c0.5-0.1,0.6-0.3,0.6-0.8c0-0.4-0.2-0.6-0.7-0.6c-0.7,0-1.4,0-2.1,0
		c-1.4,0-2.8,0-4.2,0c-0.2,0-0.2,0-0.2-0.2c0-0.3,0.1-0.5,0.1-0.8c0-0.4-0.2-0.6-0.5-0.6c-0.1,0-0.3,0-0.4,0c-0.3,0-0.5,0.2-0.6,0.5
		c0,0.3-0.1,0.6-0.1,0.8s-0.1,0.3-0.3,0.3c-0.9,0-1.8,0-2.7,0c-0.2,0-0.4,0-0.5,0.2c-0.2,0.3-0.2,0.6-0.1,1c0.1,0.3,0.4,0.3,0.6,0.3
		c0.8,0,1.6,0,2.4,0c0.3,0,0.3,0.1,0.2,0.3c-0.6,2.4-1.5,4.6-2.9,6.6c-0.1,0.2-0.2,0.3-0.3,0.5c-0.2,0.3,0,0.7,0.3,0.9
		c0.3,0.2,0.6,0.2,0.9,0c0.2-0.1,0.3-0.3,0.4-0.5c0.8-1.3,1.6-2.6,2.1-4c0.1-0.3,0.2-0.5,0.3-0.8c0,0,0.1,0,0.1,0.1
		c0.3,1.2,0.9,2.2,1.8,3c0.2,0.2,0.1,0.2-0.1,0.3c-1.2,0.6-2.4,1.1-3.7,1.4c-0.3,0-0.4,0.2-0.5,0.5c-0.2,0.8,0.3,1.2,1,1.1
		c1.6-0.4,3.1-0.9,4.4-1.9c0.1-0.1,0.2-0.1,0.3,0c0.4,0.3,0.8,0.5,1.2,0.7c0.9,0.5,1.8,0.9,2.8,1.1c0.5,0.1,0.8-0.1,0.9-0.5
		C120,17.3,119.9,17,119.4,16.8z M114.7,14.2c-0.6-0.8-1.2-1.6-1.5-2.6c1.1,0,2.1,0,3.1,0c0.2,0,0.3,0.1,0.3,0.3
		c-0.1,0.2-0.2,0.4-0.3,0.6c-0.4,0.6-0.8,1.1-1.3,1.6C114.9,14.3,114.8,14.3,114.7,14.2z"/>
	<path class="st0" d="M131.7,15.8c0-0.7-0.3-1-1-1c-1.3,0-2.7,0-4,0c-1.4,0-2.7,0-4.1,0c-0.7,0-1,0.3-1,1c0,0.4,0,0.8,0,1.2
		c0,0.9,0.3,1.2,1.2,1.2c2.6,0,5.2,0,7.8,0c0.1,0,0.2,0,0.3,0c0.5,0,0.8-0.3,0.8-0.8C131.7,16.8,131.7,16.3,131.7,15.8z M130.1,16.8
		c-0.1,0-0.1,0-0.2,0c-2.2,0-4.4,0-6.5,0c-0.4,0-0.5-0.1-0.5-0.4s0.1-0.4,0.4-0.4c1.1,0,2.2,0,3.3,0c1.1,0,2.2,0,3.3,0
		c0.4,0,0.5,0.1,0.4,0.5C130.3,16.7,130.2,16.8,130.1,16.8z"/>
	<path class="st0" d="M105,12.8c-1.5,0-3,0-4.5,0c-0.2,0-0.3,0-0.5,0c-1,0-2,0-3.1,0c0.7-0.5,1.2-1.1,1.6-1.8
		c0.4,0.5,0.8,0.9,1.1,1.4c0.1,0.1,0.2,0.3,0.3,0.3c0.2,0,0.3,0,0.5,0c0.5-0.2,0.7-0.6,0.4-1c-0.1-0.2-0.3-0.4-0.4-0.5
		c-0.2-0.2-0.5-0.4-0.7-0.6c0,0,0-0.1,0.1-0.1c0.3,0,0.5,0,0.8,0c0.2,0,0.5-0.1,0.6-0.3c0.2-0.5-0.1-1-0.6-1c-0.4,0-0.8,0-1.3,0
		c-0.2,0-0.3,0-0.3-0.3c0-0.2,0-0.4,0-0.6C99,8.1,99,8,99.3,8c0.4,0,0.8,0,1.2,0c0.5,0,0.7-0.2,0.7-0.7c0-0.4-0.2-0.6-0.7-0.6
		c-0.9,0-1.8,0-2.8,0c-0.1,0-0.2,0.1-0.2-0.1c0.1-0.3,0-0.5-0.3-0.5c-0.4-0.1-0.7,0-0.9,0.2c-0.4,0.8-0.9,1.5-1.5,2.2
		c-0.2,0.2-0.2,0.5,0,0.7c0.1,0.1,0.2,0.3,0.1,0.4c-0.1,0.5,0.1,0.8,0.7,0.8c0.3,0,0.5,0,0.8,0s0.6,0,0.9,0c-0.3,0.4-0.6,0.7-0.9,1
		c-0.4,0.3-0.9,0.6-1.3,0.9c-0.2,0.1-0.5,0.3-0.4,0.7c0.1,0.6,0.5,0.9,1.1,0.6c0,0,0.1-0.1,0.1,0c0,1.1,0,2.2,0,3.3
		c0,0.8,0.4,1.2,1.2,1.2c2.6,0,5.2,0,7.8,0c0.9,0,1.2-0.4,1.2-1.2c0-0.9,0-1.9,0-2.8C106.2,13.2,105.8,12.8,105,12.8z M97.1,9.2
		c-0.3,0-0.7,0-1,0c0.2-0.3,0.4-0.5,0.6-0.8c0.1-0.2,0.3-0.3,0.6-0.3c0.5,0,0.5,0,0.5,0.5C97.7,9.2,97.7,9.2,97.1,9.2z M104.6,16.7
		c-0.1,0-0.2,0-0.3,0c-2.2,0-4.4,0-6.6,0c-0.5,0-0.6-0.2-0.5-0.6c0-0.2,0.1-0.1,0.2-0.1c1,0,2,0,3,0c0.2,0,0.4,0,0.6,0
		c1.2,0,2.3,0,3.5,0c0.1,0,0.3-0.1,0.3,0.1C104.9,16.4,104.9,16.6,104.6,16.7z M104.5,14.8c-1.2,0-2.3,0-3.5,0s-2.3,0-3.5,0
		c-0.1,0-0.3,0.1-0.3-0.1c0-0.3,0-0.5,0.3-0.6c0.1,0,0.1,0,0.2,0c2.3,0,4.5,0,6.8,0c0.2,0,0.3,0,0.4,0.2
		C105,14.6,104.9,14.8,104.5,14.8z"/>
	<path class="st0" d="M106.6,7.2c-0.1-0.3-0.2-0.5-0.5-0.5c-0.2,0-0.4,0-0.7,0c-1,0-2.1,0-3.1,0c-0.7,0-0.9,0.2-0.9,0.8s0,1.3,0,1.9
		c0,0.7,0,1.4,0,2.1c0,0.5,0.2,0.8,0.7,0.8c1.3,0,2.5,0,3.8,0c0.4,0,0.6-0.2,0.7-0.6c0-0.1,0-0.3,0-0.4c0-1.2,0-2.4,0-3.6
		C106.7,7.5,106.7,7.4,106.6,7.2z M105,11c-0.6,0-1.2,0-1.8,0c-0.3,0-0.4-0.1-0.4-0.4c0-0.4,0-0.8,0-1.1c0-0.4,0-0.7,0-1.1
		c0-0.3,0.1-0.4,0.4-0.4c0.6,0,1.2,0,1.7,0c0.3,0,0.4,0.1,0.4,0.4c0,0.8,0,1.5,0,2.3C105.3,10.8,105.2,11,105,11z"/>
	<path class="st6" d="M100.3,12.8L100.3,12.8C100.2,12.8,100.2,12.8,100.3,12.8z"/>
	<path class="st0" d="M87.7,22c-0.3-1-0.9-1.7-1.9-1.9c-1-0.2-2.1-0.1-3.2-0.1c-0.3,0-0.4,0.2-0.4,0.5c-0.1,1,0,2,0,2.9c0,1,0,2,0,3
		c0,0.4,0.1,0.5,0.5,0.5c0.9,0,1.8,0.1,2.7,0c1.2-0.1,2-0.8,2.3-2C88,24,88,23,87.7,22z M86.7,25c-0.3,0.8-0.9,1.2-1.7,1.2
		c-0.5,0-1.1,0-1.6,0c-0.2,0-0.2-0.1-0.2-0.2c0-0.8,0-1.7,0-2.5s0-1.6,0-2.4c0-0.2,0-0.3,0.3-0.3c0.5,0,1.1,0,1.6,0
		c0.8,0,1.3,0.4,1.6,1.1C87.1,23,87.1,24,86.7,25z"/>
	<path class="st0" d="M108.6,29.8c0-0.3-0.1-0.4-0.4-0.4s-0.4,0.1-0.4,0.4c0,0.7,0,1.3,0,2c0,0.1,0,0.2-0.1,0.3
		c-0.2-0.2-0.3-0.3-0.5-0.4c-1.2-0.8-2.8-0.2-3.2,1.1c-0.3,0.8-0.3,1.7,0.1,2.5c0.4,0.9,1,1.3,2,1.3c0.7,0,1.3-0.3,1.8-0.8
		c0,0.2,0,0.4,0.1,0.5c0.1,0.2,0.2,0.3,0.4,0.3c0.2,0,0.3-0.1,0.4-0.3c0-0.1,0-0.2,0-0.3c0-1.6,0-3.2,0-4.8
		C108.7,30.6,108.7,30.2,108.6,29.8z M107.6,34.9c-0.3,0.6-0.7,0.9-1.4,0.9c-0.6,0-1.2-0.4-1.4-1c-0.2-0.6-0.2-1.2,0-1.8
		s0.6-1,1.2-1c0.7,0,1.3,0.3,1.5,0.9C107.9,33.5,107.9,34.2,107.6,34.9z"/>
	<path class="st0" d="M122.4,26.5c-0.2-0.4-0.2-0.8-0.2-1.2c0-0.6,0-1.2,0-1.8c0-0.6-0.1-1.2-0.8-1.4c-0.9-0.3-1.7-0.3-2.6,0.1
		c-0.4,0.2-0.7,0.5-0.8,1c0,0.2,0,0.3,0.2,0.4s0.3,0.1,0.5-0.1c0.1-0.1,0.1-0.2,0.1-0.3c0.1-0.3,0.4-0.5,0.7-0.6
		c0.3-0.1,0.7-0.1,1-0.1c0.5,0.1,0.7,0.3,0.8,0.7c0.1,0.5,0.1,0.6-0.4,0.7c-0.7,0.2-1.4,0.2-2.1,0.5c-0.7,0.2-1.1,0.8-1,1.4
		c0.1,0.7,0.6,1.2,1.3,1.3c0.9,0.1,1.6-0.2,2.3-0.8c0.1,0.2,0.1,0.4,0.3,0.6c0.1,0.2,0.3,0.2,0.5,0.1
		C122.4,26.9,122.4,26.8,122.4,26.5L122.4,26.5z M121.3,24.8c-0.1,1.1-0.7,1.7-1.8,1.6c-0.6,0-1-0.5-0.9-1.1
		c0.1-0.3,0.4-0.5,0.7-0.5c0.4-0.1,0.8-0.2,1.2-0.3c0.1,0,0.2,0,0.3-0.1C121.4,24.3,121.4,24.4,121.3,24.8z"/>
	<path class="st0" d="M105.9,25.5c-0.1,0.1-0.2,0.3-0.3,0.4c-0.5,0.6-1.4,0.8-2,0.4c-0.5-0.3-0.7-0.8-0.7-1.4c0-0.2,0-0.2,0.2-0.2
		c0.5,0,1,0,1.5,0l0,0c0.5,0,1,0,1.5,0c0.4,0,0.5-0.2,0.6-0.5c0.1-0.9-0.5-1.9-1.3-2.2c-1-0.4-2.2-0.1-2.8,0.7
		c-0.5,0.6-0.5,1.3-0.5,2c0.1,1.8,1.6,2.9,3.3,2.3c0.6-0.2,1-0.6,1.2-1.2c0.1-0.2,0-0.3-0.1-0.4C106.1,25.3,106,25.3,105.9,25.5z
		 M104.2,22.5c0.8,0,1.4,0.5,1.5,1.4c0,0.2,0,0.2-0.2,0.2c-0.4,0-0.8,0-1.2,0c-0.4,0-0.8,0-1.2,0c-0.1,0-0.2,0-0.2-0.2
		C102.9,23.2,103.5,22.5,104.2,22.5z"/>
	<path class="st0" d="M93.1,25.4c-0.2-0.1-0.4,0-0.6,0.3s-0.4,0.6-0.8,0.7c-1.1,0.4-2.2-0.4-2.2-1.6c0-0.2,0.1-0.1,0.2-0.1
		c0.5,0,1,0,1.5,0l0,0c0.5,0,1,0,1.5,0c0.4,0,0.6-0.2,0.6-0.6c0-1.3-0.9-2.2-2.2-2.2c-1.1,0-1.9,0.5-2.2,1.4
		c-0.2,0.5-0.2,1.1-0.2,1.6c0.1,1.3,0.9,2.2,2.2,2.3c0.9,0.1,1.7-0.2,2.2-1C93.3,25.7,93.3,25.5,93.1,25.4z M91.1,22.5
		c0.9,0,1.3,0.8,1.4,1.4c0,0.2-0.1,0.1-0.2,0.1c-0.4,0-0.8,0-1.2,0c-0.4,0-0.8,0-1.2,0c-0.2,0-0.2,0-0.2-0.2
		C89.8,23,90.3,22.5,91.1,22.5z"/>
	<path class="st0" d="M97,34.8c-0.1,0.1-0.2,0.2-0.3,0.4c-0.2,0.3-0.5,0.5-0.9,0.6c-1.1,0.2-2-0.6-1.9-1.6c0-0.2,0.1-0.1,0.2-0.1
		c0.5,0,1,0,1.4,0l0,0c0.5,0,1.1,0,1.6,0c0.3,0,0.4-0.2,0.5-0.5c0.1-0.9-0.5-1.8-1.3-2.1c-0.9-0.4-2.1-0.1-2.7,0.5
		c-0.6,0.7-0.7,1.5-0.6,2.4c0.1,1.3,0.8,2,1.9,2.2s2-0.2,2.5-1.1c0.1-0.1,0.1-0.2,0.1-0.3s0-0.3-0.2-0.3
		C97.3,34.7,97.1,34.7,97,34.8z M94.9,32c1-0.3,1.8,0.2,1.9,1.3c0,0.1,0,0.1-0.1,0.1c-0.9,0-1.8,0-2.7,0C94,32.8,94.3,32.2,94.9,32z
		"/>
	<path class="st1" d="M40.6,23.6c0,0.5,0,0.9,0,1.4c0,0.2-0.1,0.2-0.2,0.2c-0.9,0-1.9,0-2.8,0c-0.2,0-0.2,0-0.2-0.2c0-1,0-1.9,0-2.9
		c0-0.2,0.1-0.2,0.2-0.2c0.9,0,1.9,0,2.8,0c0.2,0,0.2,0,0.2,0.2C40.6,22.6,40.6,23.1,40.6,23.6z"/>
</g>
</svg>
