<?xml version="1.0" encoding="utf-8"?>
<!-- Generator: Adobe Illustrator 25.0.0, SVG Export Plug-In . SVG Version: 6.00 Build 0)  -->
<svg version="1.1" id="圖層_5" xmlns="http://www.w3.org/2000/svg" xmlns:xlink="http://www.w3.org/1999/xlink" x="0px" y="0px"
	 viewBox="0 0 281.6 43.9" style="enable-background:new 0 0 281.6 43.9;" xml:space="preserve">
<style type="text/css">
	.st0{fill:#009FE8;}
	.st1{fill:#23AB38;}
	.st2{fill:#00A0E8;}
	.st3{fill:#02A0E8;}
	.st4{fill:#01A0E8;}
	.st5{fill:#FEFEFE;}
	.st6{fill:#89D2F4;}
	.st7{fill:#98B71D;}
	.st8{fill:#979797;}
</style>
<g>
	<g>
		<path class="st0" d="M6,7.5C6.3,7.6,6.6,7.8,6.8,8c2.7,2.7,5.3,5.3,8,8c0.2,0.2,0.3,0.2,0.5,0.1c2.2-0.6,4.3-0.4,6.3,0.5
			c1.2,0.6,1.6,2,0.9,3.1c-0.6,0.9-1,1.9-1.3,3c-0.4,1.8-0.1,3.5,0.6,5.1c0.9,1.9,2.1,3.6,3.4,5.2c1.3,1.5,2.7,3,4.1,4.4
			c1,1,1,2.4-0.1,3.3c-0.9,0.8-1.9,1.6-2.8,2.4c-0.9,0.7-1.9,0.7-2.8,0c-1.3-1.1-2.7-2.2-3.9-3.3c-2.1-1.8-4-3.7-5.8-5.8
			c-0.2-0.2-0.4-0.5-0.7-0.7c-4.2-4.2-8.5-8.5-12.7-12.7c-0.5-0.5-0.6-1.1-0.3-1.6c0.3-0.6,0.9-0.9,1.5-0.8c0.3,0.1,0.5,0.3,0.8,0.5
			c2,2,4,4,6,6c0.1,0.1,0.1,0.2,0.2,0.3c0,0,0.1,0,0.1,0c0-0.3,0-0.7,0-1c0-0.1-0.1-0.2-0.2-0.2c-2.4-2.4-4.7-4.7-7.1-7.1
			C1.3,16.5,1.1,16.3,1,16c-0.1-0.6,0.2-1.2,0.8-1.5c0.5-0.3,1.1-0.2,1.5,0.3c2,2,4,4,6,6c0.3,0.3,0.3,0.3,0.4-0.1
			c0.2-0.4,0.2-0.4-0.1-0.8c-2.5-2.5-5-5-7.5-7.5c-0.5-0.5-0.5-1.1-0.2-1.6c0.4-0.6,1.1-0.9,1.7-0.6c0.2,0.1,0.4,0.2,0.5,0.4
			c2.5,2.5,4.9,4.9,7.4,7.4c0.2,0.2,0.3,0.2,0.5,0c0.4-0.3,0.4-0.3,0-0.7c-2.4-2.4-4.8-4.9-7.3-7.2C3.8,9,4.4,7.8,5.4,7.5
			c0,0,0,0,0,0C5.6,7.5,5.8,7.5,6,7.5z"/>
		<path class="st0" d="M72.6,7.5c0.3,0.1,0.5,0.3,0.8,0.5c0.4,0.5,0.5,1.2,0.1,1.7c-0.1,0.1-0.2,0.2-0.2,0.3
			c-2.5,2.5-4.9,4.9-7.4,7.4c-0.2,0.2-0.2,0.2,0,0.4c0.4,0.3,0.4,0.3,0.8,0c2.4-2.4,4.8-4.8,7.3-7.3c0.6-0.6,1.3-0.6,1.9,0
			c0.6,0.6,0.6,1.3,0,1.9c-2.5,2.5-5.1,5.1-7.6,7.6c-0.2,0.2-0.2,0.3-0.1,0.5c0.1,0.1,0.2,0.3,0.3,0.5c0.1-0.1,0.1-0.2,0.2-0.3
			c2-2,4-4,6-6c0.4-0.4,1-0.6,1.5-0.3c0.6,0.3,0.9,0.8,0.9,1.4c0,0.3-0.2,0.6-0.4,0.9c-2.4,2.4-4.8,4.8-7.2,7.1
			c-0.2,0.2-0.3,0.3-0.2,0.6c0,0.2,0,0.5,0,0.7c0.1,0,0.2-0.1,0.3-0.2c2-2,4.1-4.1,6.1-6.1c0.4-0.4,0.8-0.6,1.4-0.4
			c0.5,0.2,0.9,0.6,1,1.1c0.1,0.4,0,0.7-0.3,1c-0.1,0.1-0.2,0.2-0.3,0.3C73.2,25,69,29.2,64.8,33.4c-1.2,1.2-2.3,2.5-3.5,3.7
			c-2.2,2.2-4.5,4.2-6.9,6.1c-0.8,0.6-1.9,0.6-2.7,0c-1-0.8-2-1.6-3-2.5c-1-0.9-1-2.3-0.1-3.2c2-2,4-4,5.6-6.4
			c1-1.4,1.8-2.8,2.4-4.4c0.8-2.4,0.3-4.6-1-6.7c-0.2-0.4-0.5-0.8-0.5-1.2c-0.1-0.9,0.3-1.8,1.2-2.2c2-1,4.2-1.2,6.3-0.6
			c0.3,0.1,0.4,0,0.6-0.1c2.6-2.6,5.2-5.2,7.8-7.8c0.3-0.3,0.6-0.6,0.9-0.7C72.2,7.5,72.4,7.5,72.6,7.5z"/>
		<path class="st1" d="M31.4,15.8c2.3,0,4.1,0.6,5.7,1.8c1.2,0.9,2.6,0.9,3.8,0c5.2-3.8,12.4-1.2,14,5c0.5,1.9,0.2,3.8-0.6,5.6
			c-1,2-2.3,3.8-3.8,5.5c-2.9,3.4-6.2,6.4-9.7,9.2c-0.1,0.1-0.3,0.2-0.4,0.3c-0.8,0.6-1.9,0.6-2.7,0c-2-1.6-3.9-3.2-5.8-5
			c-2-1.9-3.9-3.9-5.6-6.1c-1-1.3-2-2.7-2.6-4.3c-1.3-3-0.9-5.8,1-8.3C26.3,17,28.8,15.8,31.4,15.8z"/>
		<path class="st0" d="M88.8,20.3c0.6,1,1.4,1.9,2.3,2.5c0.7,0.5,1.5,0.9,2.3,1.3c0.5,0.2,0.6,0.5,0.4,1c-0.2,0.5-0.5,0.7-1,0.6
			c-0.3-0.1-0.6-0.2-0.9-0.4c-1.6-0.9-3-1.9-4.1-3.4c0,0,0-0.1-0.1-0.1c-1,1.6-2.6,2.5-4.2,3.5c-0.3,0.1-0.5,0.3-0.8,0.4
			c-0.5,0.2-0.9,0-1.1-0.4c-0.2-0.5,0-0.9,0.5-1.1c1-0.5,2-1,2.9-1.7c0.6-0.5,1.2-1,1.5-1.8c0.1-0.3,0.1-0.3-0.2-0.3
			c-1.3,0-2.6,0-4,0c-0.3,0-0.5,0-0.7-0.3c-0.1-0.3-0.1-0.6,0-0.9c0.1-0.2,0.3-0.2,0.6-0.2c1.4,0,2.9,0,4.3,0c0.2,0,0.3-0.1,0.3-0.3
			c0-0.5,0-0.9,0-1.4c0-0.2,0-0.3-0.3-0.3c-0.7,0-1.4,0-2.2,0c-0.2,0-0.3,0.1-0.4,0.2c-0.3,0.5-0.6,1-1,1.4
			c-0.2,0.2-0.5,0.2-0.8,0.1c-0.3-0.2-0.5-0.4-0.4-0.8c0-0.1,0.1-0.2,0.1-0.3c0.8-0.9,1.2-2,1.5-3.1c0.1-0.3,0.2-0.5,0.5-0.5
			c0.3-0.1,0.7,0,0.9,0.2c0.2,0.2,0.2,0.4,0.1,0.6c-0.1,0.2-0.1,0.5-0.2,0.8c0.7,0,1.3,0,1.9,0c0.2,0,0.1-0.1,0.1-0.2
			c0-0.4,0-0.8,0-1.2c0-0.4,0.2-0.6,0.5-0.6c0.2,0,0.3,0,0.5,0c0.3,0.1,0.5,0.2,0.5,0.6c0,0.4,0,0.8,0,1.1c0,0.2,0.1,0.3,0.3,0.3
			c1.2,0,2.5,0,3.7,0c0.5,0,0.7,0.2,0.7,0.7c0,0.5-0.2,0.8-0.8,0.8c-1.2,0-2.5,0-3.7,0c-0.2,0-0.3,0-0.3,0.3c0,0.5,0,0.9,0,1.4
			c0,0.2,0.1,0.3,0.3,0.3c1.4,0,2.9,0,4.3,0c0.3,0,0.5,0,0.6,0.3c0.1,0.3,0.1,0.7-0.1,1c-0.1,0.2-0.3,0.2-0.5,0.2c-1.3,0-2.6,0-4,0
			C89.1,20.3,89,20.3,88.8,20.3z"/>
		<path class="st0" d="M23.5,12.7c0,1.6-1.3,2.8-2.8,2.8c-1.6,0-2.8-1.2-2.8-2.8c0-1.6,1.3-2.9,2.8-2.8
			C22.3,9.9,23.5,11.2,23.5,12.7z"/>
		<path class="st0" d="M60.1,12.7c0,1.6-1.3,2.8-2.8,2.8c-1.6,0-2.8-1.2-2.8-2.8c0-1.6,1.2-2.8,2.8-2.8
			C58.8,9.9,60.1,11.2,60.1,12.7z"/>
		<path class="st1" d="M39,15.5c-1.6,0-2.8-1.2-2.8-2.8c0-1.5,1.3-2.8,2.8-2.8c1.6,0,2.8,1.3,2.8,2.8C41.8,14.3,40.6,15.5,39,15.5z"
			/>
		<path class="st0" d="M95,30c0.7-1,2.4-1,2.9,0.1c0.1,0,0.1-0.1,0.2-0.2c0.5-0.6,1.2-0.7,1.9-0.6c0.6,0.1,1,0.6,1,1.2
			c0,1.2,0,2.4,0,3.6c0,0.3-0.1,0.4-0.4,0.4c-0.3,0-0.4-0.1-0.4-0.4c-0.1-0.5,0-1,0-1.5c0-0.6,0-1.2,0-1.7c0-0.5-0.2-0.8-0.6-0.9
			c-0.5-0.1-1,0-1.3,0.4c-0.2,0.3-0.3,0.6-0.3,1c0,0.8,0,1.6,0,2.4c0,0.1,0,0.3,0,0.4c0,0.2-0.2,0.3-0.4,0.3c-0.2,0-0.4-0.1-0.4-0.3
			c0-0.1,0-0.3,0-0.4c0-0.8,0-1.7,0-2.5c0-0.1,0-0.2,0-0.3c0-0.6-0.3-0.9-0.7-0.9c-0.6-0.1-1.1,0.2-1.3,0.7
			c-0.1,0.3-0.2,0.7-0.2,1.1c0,0.7,0,1.3,0,2c0,0.1,0,0.2,0,0.3c0,0.4-0.2,0.5-0.4,0.5c-0.3,0-0.4-0.2-0.4-0.5c0-1.4,0-2.8,0-4.2
			c0-0.1,0-0.2,0-0.3c0-0.2,0.2-0.3,0.3-0.3c0.2,0,0.3,0.1,0.3,0.2C95,29.6,95,29.8,95,30z"/>
		<path class="st0" d="M82.2,40.4c0-0.9,0-1.9,0-2.8c0-0.6,0.1-0.7,0.7-0.7c1.1,0,2.1,0,3.2,0c0.1,0,0.2,0,0.3,0
			c0.2,0.1,0.2,0.2,0.2,0.4c0,0.2-0.1,0.3-0.2,0.3c-0.1,0-0.3,0-0.4,0c-0.9,0-1.7,0-2.6,0c-0.2,0-0.3,0-0.3,0.3c0,0.6,0,1.2,0,1.8
			c0,0.2,0.1,0.2,0.2,0.2c0.7,0,1.4,0,2.1,0c0.1,0,0.2,0,0.3,0c0.2,0,0.4,0.1,0.4,0.4c0,0.2-0.2,0.4-0.5,0.4c-0.8,0-1.5,0-2.3,0
			c-0.2,0-0.3,0.1-0.3,0.3c0,0.7,0,1.4,0,2.1c0,0.2,0,0.4,0,0.5c0,0.2-0.2,0.4-0.4,0.4c-0.3,0-0.4-0.1-0.4-0.4c0-0.4,0-0.9,0-1.3
			C82.2,41.6,82.2,41,82.2,40.4z"/>
		<path class="st0" d="M108.4,30c0.6-0.7,1.3-1,2.1-0.7c0.7,0.2,1.1,0.7,1.1,1.4c0,1.1,0,2.2,0,3.3c0,0.3-0.1,0.4-0.4,0.4
			c-0.3,0-0.4-0.1-0.4-0.4c-0.1-0.8,0-1.7,0-2.5c0-0.2,0-0.4,0-0.6c-0.1-0.8-0.6-1.2-1.4-0.9c-0.6,0.2-0.9,0.6-1,1.3
			c-0.1,0.8,0,1.7-0.1,2.5c0,0.1,0,0.2,0,0.3c0,0.2-0.2,0.4-0.4,0.3c-0.2,0-0.4-0.1-0.4-0.3c0-0.1,0-0.2,0-0.3c0-1.3,0-2.6,0-3.9
			c0-0.1,0-0.2,0-0.3c0-0.2,0.2-0.3,0.4-0.3c0.2,0,0.3,0.1,0.4,0.3C108.4,29.7,108.4,29.9,108.4,30z"/>
		<path class="st0" d="M99.5,39.4c0.5-0.5,1-0.8,1.7-0.8c0.9,0,1.6,0.7,1.6,1.6c0,1.1,0,2.1,0,3.2c0,0.4-0.2,0.5-0.5,0.5
			c-0.2,0-0.3-0.1-0.4-0.3c0-0.2,0-0.3,0-0.5c0-0.8,0-1.6,0-2.3c0-0.1,0-0.1,0-0.2c0-0.7-0.3-1.1-0.9-1.2c-0.6-0.1-1.3,0.4-1.4,0.9
			c-0.1,0.5-0.1,1-0.1,1.4c0,0.5,0,1,0,1.5c0,0.1,0,0.2,0,0.3c0,0.2-0.2,0.3-0.4,0.3c-0.2,0-0.3-0.1-0.4-0.3c0-0.1,0-0.3,0-0.4
			c0-1.3,0-2.5,0-3.8c0-0.1,0-0.3,0-0.4c0.1-0.2,0.2-0.3,0.4-0.3c0.2,0,0.3,0.1,0.4,0.3C99.5,39.1,99.5,39.2,99.5,39.4z"/>
		<path class="st0" d="M111.5,43.9c-0.5,0-1.1-0.1-1.5-0.6c-0.2-0.2-0.3-0.4-0.3-0.7c0-0.2,0.1-0.3,0.2-0.4c0.2-0.1,0.3,0,0.4,0.1
			c0.1,0.1,0.1,0.2,0.2,0.2c0.4,0.7,1.4,1,2.1,0.5c0.5-0.3,0.5-0.9,0-1.2c-0.3-0.1-0.5-0.2-0.8-0.3c-0.4-0.1-0.9-0.2-1.3-0.4
			c-0.9-0.5-1-1.6-0.1-2.2c0.6-0.4,1.2-0.4,1.8-0.3c0.5,0.1,0.9,0.2,1.2,0.6c0.1,0.1,0.2,0.3,0.2,0.4c0,0.2,0,0.4-0.2,0.5
			c-0.2,0.1-0.4,0-0.5-0.2c-0.4-0.7-1-0.9-1.7-0.6c-0.3,0.1-0.5,0.3-0.5,0.6c0,0.3,0.2,0.5,0.5,0.6c0.4,0.2,0.8,0.2,1.2,0.3
			c0.2,0.1,0.4,0.1,0.7,0.2c0.5,0.2,0.8,0.5,0.9,1.1c0.1,0.6-0.2,1.1-0.8,1.4C112.6,43.9,112.1,43.9,111.5,43.9z"/>
		<path class="st2" d="M113.1,31.7c0-0.5,0-1,0-1.4c0-0.2,0-0.4-0.3-0.3c0,0,0,0-0.1,0c-0.2,0-0.3-0.1-0.3-0.3
			c0-0.2,0.1-0.3,0.3-0.3c0.1,0,0.3,0,0.4-0.1c0.1-0.1,0-0.3,0-0.5c0-0.3,0-0.5,0-0.8c0-0.3,0.2-0.4,0.4-0.4c0.3,0,0.4,0.1,0.4,0.4
			c0,0.3,0,0.6,0,0.9c0,0.3,0.1,0.4,0.3,0.4c0.1,0,0.3,0,0.4,0c0.2,0,0.3,0.1,0.2,0.3c0,0.2-0.1,0.3-0.3,0.3c-0.2,0-0.3,0-0.5,0
			c-0.1,0-0.2,0-0.2,0.2c0,1,0,2.1,0,3.1c0,0.5,0.2,0.6,0.6,0.5c0.1,0,0.2,0,0.3,0c0.1,0,0.3,0,0.3,0.2c0.1,0.2,0,0.3-0.1,0.4
			c-0.5,0.2-1,0.2-1.5,0c-0.4-0.2-0.5-0.5-0.5-0.9C113.1,32.8,113.1,32.2,113.1,31.7z"/>
		<path class="st0" d="M88.4,39.4c0.1-0.1,0.1-0.2,0.2-0.3c0.4-0.6,1.1-0.7,1.7-0.3c0.2,0.1,0.3,0.4,0.2,0.6
			c-0.1,0.2-0.3,0.2-0.5,0.2c-0.8-0.2-1.2,0-1.4,0.8c-0.1,0.3-0.1,0.7-0.1,1.1c0,0.7,0,1.3,0,2c0,0.3-0.1,0.5-0.4,0.5
			c-0.3,0-0.4-0.2-0.4-0.5c0-1.4,0-2.9,0-4.3c0-0.2,0.1-0.4,0.3-0.4c0.3,0,0.4,0.2,0.4,0.4C88.3,39.2,88.3,39.3,88.4,39.4
			C88.3,39.4,88.3,39.4,88.4,39.4z"/>
		<path class="st2" d="M115.9,31.8c0-0.7,0-1.4,0-2.1c0-0.4,0.2-0.6,0.5-0.5c0.2,0,0.3,0.1,0.3,0.3c0,0.2,0,0.3,0,0.5
			c0,1.3,0,2.5,0,3.8c0,0.1,0,0.3,0,0.4c0,0.2-0.2,0.3-0.4,0.4c-0.2,0-0.4-0.1-0.4-0.3c0-0.1,0-0.2,0-0.4
			C115.9,33.2,115.9,32.5,115.9,31.8C115.9,31.8,115.9,31.8,115.9,31.8z"/>
		<path class="st0" d="M92,41.2c0,0.7,0,1.4,0,2.1c0,0.1,0,0.3-0.1,0.4c-0.2,0.2-0.6,0.2-0.7-0.1c-0.1-0.2-0.1-0.3-0.1-0.5
			c0-1.3,0-2.5,0-3.8c0-0.1,0-0.2,0-0.3c0-0.3,0.2-0.4,0.4-0.4c0.3,0,0.4,0.2,0.4,0.4c0,0.7,0,1.3,0,2C92,41.1,92,41.2,92,41.2z"/>
		<path class="st3" d="M92,37.3c0,0.3-0.2,0.5-0.5,0.5c-0.3,0-0.5-0.2-0.5-0.5c0-0.3,0.2-0.5,0.5-0.5C91.8,36.9,92,37.1,92,37.3z"/>
		<path class="st4" d="M116.8,27.9c0,0.3-0.2,0.5-0.5,0.5c-0.3,0-0.5-0.2-0.5-0.5c0-0.3,0.2-0.5,0.5-0.5
			C116.6,27.5,116.8,27.7,116.8,27.9z"/>
		<path class="st0" d="M132.2,20.4c-0.7,0-1.4,0-2.1,0c-0.2,0-0.2,0-0.1-0.2c0.1-0.1,0.2-0.3,0.2-0.5c0.1-0.2,0.2-0.2,0.3-0.2
			c0.5,0,0.9,0,1.4,0c0.4,0,0.6-0.2,0.6-0.6c0-0.5-0.2-0.6-0.6-0.6c-1.5,0-3,0-4.4,0c-0.2,0-0.3-0.1-0.3-0.3c0-0.3,0.1-0.3,0.3-0.3
			c1.3,0,2.6,0,3.9,0c0.4,0,0.6-0.2,0.6-0.6c0-0.4-0.2-0.6-0.6-0.6c-1.3,0-2.6,0-3.9,0c-0.2,0-0.3,0-0.3-0.3c0-0.2,0.1-0.3,0.3-0.3
			c0.1,0,0.2,0,0.3,0c1.3,0,2.6,0,3.9,0c0.4,0,0.6-0.2,0.6-0.6c0-0.4-0.2-0.6-0.6-0.6c-0.4,0-0.8,0-1.2,0c-0.2,0-0.5,0-0.8,0
			c0.1-0.1,0.2-0.2,0.2-0.3c0.2-0.3,0.2-0.6,0-0.8c-0.3-0.2-0.8-0.2-1,0.1c-0.2,0.3-0.5,0.6-0.7,0.9c-0.1,0.1-0.2,0.2-0.3,0.2
			c-0.8,0-1.7,0-2.5,0c-0.2,0-0.3-0.1-0.4-0.2c-0.2-0.3-0.5-0.6-0.8-0.9c-0.3-0.2-0.5-0.2-0.8-0.1c-0.3,0.1-0.4,0.5-0.2,0.8
			c0.1,0.1,0.2,0.3,0.4,0.4c-0.1,0-0.2,0-0.3,0c-0.5,0-1.1,0-1.6,0c-0.3,0-0.4,0.1-0.5,0.4c-0.2,0.6,0.1,0.9,0.7,0.9
			c0.2,0,0.4,0,0.6,0c1.1,0,2.3,0,3.4,0c0.1,0,0.2-0.1,0.3,0.1c0.1,0.3,0,0.4-0.3,0.4c-1.2,0-2.4,0-3.6,0c-0.2,0-0.4,0-0.5,0.2
			c-0.2,0.3-0.1,0.5,0,0.8c0.1,0.2,0.3,0.2,0.5,0.2c1.2,0,2.4,0,3.6,0c0.2,0,0.3,0,0.3,0.3c0,0.3-0.1,0.3-0.3,0.3
			c-1.4,0-2.8,0-4.2,0c-0.4,0-0.5,0.2-0.5,0.6c0,0.4,0.2,0.6,0.5,0.7c0.4,0,0.8,0,1.2,0c0.1,0,0.2,0,0.2,0.1
			c0.1,0.2,0.3,0.5,0.4,0.8c-0.7,0-1.4,0-2.1,0c-0.2,0-0.4,0-0.4,0.2c-0.1,0.3-0.1,0.6,0,0.8c0.1,0.2,0.4,0.2,0.6,0.2
			c3.6,0,7.3,0,10.9,0c0.3,0,0.5-0.1,0.7-0.3c0-0.2,0-0.5,0-0.7C132.7,20.5,132.5,20.4,132.2,20.4z M125.3,20.4
			c-0.5,0-0.8-0.1-1-0.6c0-0.1-0.1-0.1-0.1-0.3c0.5,0,1,0,1.5,0c0.2,0,0.2,0.1,0.2,0.2C125.9,20.4,125.9,20.4,125.3,20.4z
			 M128.6,20.3c0,0.1-0.1,0.1-0.2,0.1c-0.3,0-0.7,0-1,0c-0.1,0-0.2,0-0.2-0.2c-0.1-0.7-0.1-0.7,0.6-0.7c0.4,0,0.7,0,1.1,0
			C128.8,19.8,128.7,20.1,128.6,20.3z"/>
		<path class="st5" d="M46.9,29.3c-0.1,0-0.2,0-0.3,0c-1,0-1.9,0-2.9,0c-0.2,0-0.3,0.1-0.3,0.3c0,2,0,3.9,0,5.9c0,0.2,0,0.3-0.3,0.3
			c-2.8,0-5.6,0-8.3,0c-0.3,0-0.3-0.1-0.3-0.3c0-2,0-3.9,0-5.9c0-0.2,0-0.3-0.3-0.3c-0.9,0-1.9,0-2.8,0c-0.1,0-0.2,0-0.3,0
			c0.4-0.4,0.7-0.8,1.1-1.1c2.1-2.1,4.3-4.1,6.5-6.2c0.1-0.1,0.1-0.1,0.2-0.2c0.1-0.1,0.2-0.1,0.3,0c2.6,2.5,5.1,5,7.7,7.4
			C46.9,29.3,46.9,29.3,46.9,29.3z"/>
		<path class="st0" d="M119.4,24.2c-0.1,0-0.2-0.1-0.3-0.1c-1-0.4-1.9-0.7-2.8-1.3c-0.2-0.1-0.2-0.2,0-0.4c0.7-0.7,1.2-1.6,1.7-2.5
			c0.2-0.3,0.3-0.6,0.4-1c0.1-0.7-0.2-1.2-0.9-1.3c-0.2,0-0.3,0-0.5,0c-1.3,0-2.7,0-4,0c-0.2,0-0.5,0-0.7,0c0.1-0.3,0.1-0.5,0.2-0.8
			c0-0.2,0.1-0.3,0.4-0.3c2.1,0,4.1,0,6.2,0c0.1,0,0.2,0,0.3,0c0.5-0.1,0.6-0.3,0.6-0.8c0-0.4-0.2-0.6-0.7-0.6c-0.7,0-1.4,0-2.1,0
			c-1.4,0-2.8,0-4.2,0c-0.2,0-0.2,0-0.2-0.2c0-0.3,0.1-0.5,0.1-0.8c0-0.4-0.2-0.6-0.5-0.6c-0.1,0-0.3,0-0.4,0
			c-0.3,0-0.5,0.2-0.6,0.5c0,0.3-0.1,0.6-0.1,0.8c0,0.2-0.1,0.3-0.3,0.3c-0.9,0-1.8,0-2.7,0c-0.2,0-0.4,0-0.5,0.2
			c-0.2,0.3-0.2,0.6-0.1,1c0.1,0.3,0.4,0.3,0.6,0.3c0.8,0,1.6,0,2.4,0c0.3,0,0.3,0.1,0.2,0.3c-0.6,2.4-1.5,4.6-2.9,6.6
			c-0.1,0.2-0.2,0.3-0.3,0.5c-0.2,0.3,0,0.7,0.3,0.9c0.3,0.2,0.6,0.2,0.9,0c0.2-0.1,0.3-0.3,0.4-0.5c0.8-1.3,1.6-2.6,2.1-4
			c0.1-0.3,0.2-0.5,0.3-0.8c0,0,0.1,0,0.1,0.1c0.3,1.2,0.9,2.2,1.8,3c0.2,0.2,0.1,0.2-0.1,0.3c-1.2,0.6-2.4,1.1-3.7,1.4
			c-0.3,0-0.4,0.2-0.5,0.5c-0.2,0.8,0.3,1.2,1,1.1c1.6-0.4,3.1-0.9,4.4-1.9c0.1-0.1,0.2-0.1,0.3,0c0.4,0.3,0.8,0.5,1.2,0.7
			c0.9,0.5,1.8,0.9,2.8,1.1c0.5,0.1,0.8-0.1,0.9-0.5C120,24.7,119.9,24.4,119.4,24.2z M114.7,21.6c-0.6-0.8-1.2-1.6-1.5-2.6
			c1.1,0,2.1,0,3.1,0c0.2,0,0.3,0.1,0.3,0.3c-0.1,0.2-0.2,0.4-0.3,0.6c-0.4,0.6-0.8,1.1-1.3,1.6C114.9,21.7,114.8,21.7,114.7,21.6z"
			/>
		<path class="st0" d="M131.7,23.2c0-0.7-0.3-1-1-1c-1.3,0-2.7,0-4,0c-1.4,0-2.7,0-4.1,0c-0.7,0-1,0.3-1,1c0,0.4,0,0.8,0,1.2
			c0,0.9,0.3,1.2,1.2,1.2c2.6,0,5.2,0,7.8,0c0.1,0,0.2,0,0.3,0c0.5,0,0.8-0.3,0.8-0.8C131.7,24.2,131.7,23.7,131.7,23.2z
			 M130.1,24.2c-0.1,0-0.1,0-0.2,0c-2.2,0-4.4,0-6.5,0c-0.4,0-0.5-0.1-0.5-0.4c0-0.3,0.1-0.4,0.4-0.4c1.1,0,2.2,0,3.3,0
			c1.1,0,2.2,0,3.3,0c0.4,0,0.5,0.1,0.4,0.5C130.3,24.1,130.2,24.2,130.1,24.2z"/>
		<path class="st0" d="M105,20.2c-1.5,0-3,0-4.5,0c-0.2,0-0.3,0-0.5,0c-1,0-2,0-3.1,0c0.7-0.5,1.2-1.1,1.6-1.8
			c0.4,0.5,0.8,0.9,1.1,1.4c0.1,0.1,0.2,0.3,0.3,0.3c0.2,0,0.3,0,0.5,0c0.5-0.2,0.7-0.6,0.4-1c-0.1-0.2-0.3-0.4-0.4-0.5
			c-0.2-0.2-0.5-0.4-0.7-0.6c0,0,0-0.1,0.1-0.1c0.3,0,0.5,0,0.8,0c0.2,0,0.5-0.1,0.6-0.3c0.2-0.5-0.1-1-0.6-1c-0.4,0-0.8,0-1.3,0
			c-0.2,0-0.3,0-0.3-0.3c0-0.2,0-0.4,0-0.6c0-0.2,0-0.3,0.3-0.3c0.4,0,0.8,0,1.2,0c0.5,0,0.7-0.2,0.7-0.7c0-0.4-0.2-0.6-0.7-0.6
			c-0.9,0-1.8,0-2.8,0c-0.1,0-0.2,0.1-0.2-0.1c0.1-0.3,0-0.5-0.3-0.5c-0.4-0.1-0.7,0-0.9,0.2c-0.4,0.8-0.9,1.5-1.5,2.2
			c-0.2,0.2-0.2,0.5,0,0.7c0.1,0.1,0.2,0.3,0.1,0.4c-0.1,0.5,0.1,0.8,0.7,0.8c0.3,0,0.5,0,0.8,0c0.3,0,0.6,0,0.9,0
			c-0.3,0.4-0.6,0.7-0.9,1c-0.4,0.3-0.9,0.6-1.3,0.9c-0.2,0.1-0.5,0.3-0.4,0.7c0.1,0.6,0.5,0.9,1.1,0.6c0,0,0.1-0.1,0.1,0
			c0,1.1,0,2.2,0,3.3c0,0.8,0.4,1.2,1.2,1.2c2.6,0,5.2,0,7.8,0c0.9,0,1.2-0.4,1.2-1.2c0-0.9,0-1.9,0-2.8
			C106.2,20.6,105.8,20.2,105,20.2z M97.1,16.6c-0.3,0-0.7,0-1,0c0.2-0.3,0.4-0.5,0.6-0.8c0.1-0.2,0.3-0.3,0.6-0.3
			c0.5,0,0.5,0,0.5,0.5C97.7,16.6,97.7,16.6,97.1,16.6z M104.6,24.1c-0.1,0-0.2,0-0.3,0c-2.2,0-4.4,0-6.6,0c-0.5,0-0.6-0.2-0.5-0.6
			c0-0.2,0.1-0.1,0.2-0.1c1,0,2,0,3,0c0.2,0,0.4,0,0.6,0c1.2,0,2.3,0,3.5,0c0.1,0,0.3-0.1,0.3,0.1C104.9,23.8,104.9,24,104.6,24.1z
			 M104.5,22.2c-1.2,0-2.3,0-3.5,0c-1.2,0-2.3,0-3.5,0c-0.1,0-0.3,0.1-0.3-0.1c0-0.3,0-0.5,0.3-0.6c0.1,0,0.1,0,0.2,0
			c2.3,0,4.5,0,6.8,0c0.2,0,0.3,0,0.4,0.2C105,22,104.9,22.2,104.5,22.2z"/>
		<path class="st0" d="M106.6,14.6c-0.1-0.3-0.2-0.5-0.5-0.5c-0.2,0-0.4,0-0.7,0c-1,0-2.1,0-3.1,0c-0.7,0-0.9,0.2-0.9,0.8
			c0,0.6,0,1.3,0,1.9c0,0.7,0,1.4,0,2.1c0,0.5,0.2,0.8,0.7,0.8c1.3,0,2.5,0,3.8,0c0.4,0,0.6-0.2,0.7-0.6c0-0.1,0-0.3,0-0.4
			c0-1.2,0-2.4,0-3.6C106.7,14.9,106.7,14.8,106.6,14.6z M105,18.4c-0.6,0-1.2,0-1.8,0c-0.3,0-0.4-0.1-0.4-0.4c0-0.4,0-0.8,0-1.1
			c0-0.4,0-0.7,0-1.1c0-0.3,0.1-0.4,0.4-0.4c0.6,0,1.2,0,1.7,0c0.3,0,0.4,0.1,0.4,0.4c0,0.8,0,1.5,0,2.3
			C105.3,18.2,105.2,18.4,105,18.4z"/>
		<path class="st6" d="M100.3,20.2c0,0-0.1,0-0.1,0C100.2,20.2,100.2,20.2,100.3,20.2z"/>
		<path class="st0" d="M87.7,29.4c-0.3-1-0.9-1.7-1.9-1.9c-1-0.2-2.1-0.1-3.2-0.1c-0.3,0-0.4,0.2-0.4,0.5c-0.1,1,0,2,0,2.9
			c0,1,0,2,0,3c0,0.4,0.1,0.5,0.5,0.5c0.9,0,1.8,0.1,2.7,0c1.2-0.1,2-0.8,2.3-2C88,31.4,88,30.4,87.7,29.4z M86.7,32.4
			c-0.3,0.8-0.9,1.2-1.7,1.2c-0.5,0-1.1,0-1.6,0c-0.2,0-0.2-0.1-0.2-0.2c0-0.8,0-1.7,0-2.5c0-0.8,0-1.6,0-2.4c0-0.2,0-0.3,0.3-0.3
			c0.5,0,1.1,0,1.6,0c0.8,0,1.3,0.4,1.6,1.1C87.1,30.4,87.1,31.4,86.7,32.4z"/>
		<path class="st0" d="M108.6,37.2c0-0.3-0.1-0.4-0.4-0.4c-0.3,0-0.4,0.1-0.4,0.4c0,0.7,0,1.3,0,2c0,0.1,0,0.2-0.1,0.3
			c-0.2-0.2-0.3-0.3-0.5-0.4c-1.2-0.8-2.8-0.2-3.2,1.1c-0.3,0.8-0.3,1.7,0.1,2.5c0.4,0.9,1,1.3,2,1.3c0.7,0,1.3-0.3,1.8-0.8
			c0,0.2,0,0.4,0.1,0.5c0.1,0.2,0.2,0.3,0.4,0.3c0.2,0,0.3-0.1,0.4-0.3c0-0.1,0-0.2,0-0.3c0-1.6,0-3.2,0-4.8
			C108.7,38,108.7,37.6,108.6,37.2z M107.6,42.3c-0.3,0.6-0.7,0.9-1.4,0.9c-0.6,0-1.2-0.4-1.4-1c-0.2-0.6-0.2-1.2,0-1.8
			c0.2-0.6,0.6-1,1.2-1c0.7,0,1.3,0.3,1.5,0.9C107.9,40.9,107.9,41.6,107.6,42.3z"/>
		<path class="st0" d="M122.4,33.9c-0.2-0.4-0.2-0.8-0.2-1.2c0-0.6,0-1.2,0-1.8c0-0.6-0.1-1.2-0.8-1.4c-0.9-0.3-1.7-0.3-2.6,0.1
			c-0.4,0.2-0.7,0.5-0.8,1c0,0.2,0,0.3,0.2,0.4c0.2,0.1,0.3,0.1,0.5-0.1c0.1-0.1,0.1-0.2,0.1-0.3c0.1-0.3,0.4-0.5,0.7-0.6
			c0.3-0.1,0.7-0.1,1-0.1c0.5,0.1,0.7,0.3,0.8,0.7c0.1,0.5,0.1,0.6-0.4,0.7c-0.7,0.2-1.4,0.2-2.1,0.5c-0.7,0.2-1.1,0.8-1,1.4
			c0.1,0.7,0.6,1.2,1.3,1.3c0.9,0.1,1.6-0.2,2.3-0.8c0.1,0.2,0.1,0.4,0.3,0.6c0.1,0.2,0.3,0.2,0.5,0.1c0.2-0.1,0.2-0.2,0.2-0.4
			C122.4,34,122.4,33.9,122.4,33.9z M121.3,32.2c-0.1,1.1-0.7,1.7-1.8,1.6c-0.6,0-1-0.5-0.9-1.1c0.1-0.3,0.4-0.5,0.7-0.5
			c0.4-0.1,0.8-0.2,1.2-0.3c0.1,0,0.2,0,0.3-0.1C121.4,31.7,121.4,31.8,121.3,32.2z"/>
		<path class="st0" d="M105.9,32.9c-0.1,0.1-0.2,0.3-0.3,0.4c-0.5,0.6-1.4,0.8-2,0.4c-0.5-0.3-0.7-0.8-0.7-1.4c0-0.2,0-0.2,0.2-0.2
			c0.5,0,1,0,1.5,0c0,0,0,0,0,0c0.5,0,1,0,1.5,0c0.4,0,0.5-0.2,0.6-0.5c0.1-0.9-0.5-1.9-1.3-2.2c-1-0.4-2.2-0.1-2.8,0.7
			c-0.5,0.6-0.5,1.3-0.5,2c0.1,1.8,1.6,2.9,3.3,2.3c0.6-0.2,1-0.6,1.2-1.2c0.1-0.2,0-0.3-0.1-0.4C106.1,32.7,106,32.7,105.9,32.9z
			 M104.2,29.9c0.8,0,1.4,0.5,1.5,1.4c0,0.2,0,0.2-0.2,0.2c-0.4,0-0.8,0-1.2,0c-0.4,0-0.8,0-1.2,0c-0.1,0-0.2,0-0.2-0.2
			C102.9,30.6,103.5,29.9,104.2,29.9z"/>
		<path class="st0" d="M93.1,32.8c-0.2-0.1-0.4,0-0.6,0.3c-0.2,0.3-0.4,0.6-0.8,0.7c-1.1,0.4-2.2-0.4-2.2-1.6c0-0.2,0.1-0.1,0.2-0.1
			c0.5,0,1,0,1.5,0c0,0,0,0,0,0c0.5,0,1,0,1.5,0c0.4,0,0.6-0.2,0.6-0.6c0-1.3-0.9-2.2-2.2-2.2c-1.1,0-1.9,0.5-2.2,1.4
			c-0.2,0.5-0.2,1.1-0.2,1.6c0.1,1.3,0.9,2.2,2.2,2.3c0.9,0.1,1.7-0.2,2.2-1C93.3,33.1,93.3,32.9,93.1,32.8z M91.1,29.9
			c0.9,0,1.3,0.8,1.4,1.4c0,0.2-0.1,0.1-0.2,0.1c-0.4,0-0.8,0-1.2,0c-0.4,0-0.8,0-1.2,0c-0.2,0-0.2,0-0.2-0.2
			C89.8,30.4,90.3,29.9,91.1,29.9z"/>
		<path class="st0" d="M97,42.2c-0.1,0.1-0.2,0.2-0.3,0.4c-0.2,0.3-0.5,0.5-0.9,0.6c-1.1,0.2-2-0.6-1.9-1.6c0-0.2,0.1-0.1,0.2-0.1
			c0.5,0,1,0,1.4,0c0,0,0,0,0,0c0.5,0,1.1,0,1.6,0c0.3,0,0.4-0.2,0.5-0.5c0.1-0.9-0.5-1.8-1.3-2.1c-0.9-0.4-2.1-0.1-2.7,0.5
			c-0.6,0.7-0.7,1.5-0.6,2.4c0.1,1.3,0.8,2,1.9,2.2c1.1,0.2,2-0.2,2.5-1.1c0.1-0.1,0.1-0.2,0.1-0.3c0-0.1,0-0.3-0.2-0.3
			C97.3,42.1,97.1,42.1,97,42.2z M94.9,39.4c1-0.3,1.8,0.2,1.9,1.3c0,0.1,0,0.1-0.1,0.1c-0.9,0-1.8,0-2.7,0
			C94,40.2,94.3,39.6,94.9,39.4z"/>
		<path class="st1" d="M40.6,31c0,0.5,0,0.9,0,1.4c0,0.2-0.1,0.2-0.2,0.2c-0.9,0-1.9,0-2.8,0c-0.2,0-0.2,0-0.2-0.2c0-1,0-1.9,0-2.9
			c0-0.2,0.1-0.2,0.2-0.2c0.9,0,1.9,0,2.8,0c0.2,0,0.2,0,0.2,0.2C40.6,30,40.6,30.5,40.6,31z"/>
	</g>
	<g>
		<g>
			<path class="st7" d="M173.9,43.9V22.4h6.8v7.8h1.7v5.7h-1.7v8H173.9z M183.4,43.9V22.4h6.7v21.5H183.4z"/>
			<path class="st7" d="M192.6,43.9v-13c0-1.1,0.1-2,0.2-2.7c0.2-0.7,0.4-1.4,0.8-2.1c0.7-1.3,1.7-2.3,3-3.1
				c1.3-0.7,2.8-1.1,4.5-1.1c2.4,0,4.4,0.8,6,2.3c1.6,1.5,2.4,3.4,2.4,5.6c0,2-0.7,3.6-2.1,4.9c-1.4,1.3-3.3,1.9-5.5,1.9
				c-0.3,0-0.5,0-0.7,0c-0.2,0-0.3,0-0.5,0v-5.3c0.1,0,0.1,0,0.2,0c0.1,0,0.1,0,0.3,0c0.6,0,1.1-0.2,1.4-0.5
				c0.4-0.3,0.6-0.8,0.6-1.3c0-0.5-0.2-0.9-0.5-1.2c-0.4-0.3-0.8-0.5-1.3-0.5c-0.7,0-1.1,0.2-1.4,0.7c-0.3,0.5-0.4,1.3-0.4,2.4v13.1
				H192.6z"/>
			<path class="st7" d="M210.7,43.9V32.4c0-1.2,0-2.1,0.1-2.7c0.1-0.6,0.2-1.2,0.3-1.7c0.5-1.9,1.4-3.4,2.8-4.5
				c1.4-1.1,3-1.6,4.9-1.6c1.3,0,2.6,0.3,3.7,0.9c1.1,0.6,2.1,1.4,2.8,2.4c0.6,0.9,1,1.8,1.3,2.8c0.3,1,0.4,2.5,0.4,4.3v11.5h-6.6
				v-13c0-0.8-0.1-1.4-0.3-1.8c-0.2-0.4-0.6-0.5-1.1-0.5c-0.5,0-0.8,0.2-1,0.5c-0.2,0.3-0.3,0.9-0.3,1.9v2.3h1.7v5.7h-1.7v5H210.7z"
				/>
		</g>
		<g>
			<path class="st8" d="M234.4,26.2v4.9c0,0.3-0.2,0.4-0.5,0.4c-0.3,0-0.5-0.1-0.5-0.4v-3.7c-0.2,0.2-0.3,0.3-0.5,0.3
				c-0.1,0-0.3-0.1-0.4-0.2c-0.1-0.1-0.2-0.2-0.2-0.4s0.1-0.3,0.2-0.4c0.8-0.8,1.2-1.4,1.4-1.8c0.1-0.1,0.2-0.2,0.3-0.2
				c0.4,0,0.5,0.2,0.5,0.5C235,25.3,234.8,25.7,234.4,26.2z M233.1,24.9c-0.1,0-0.3-0.1-0.4-0.2c-0.1-0.1-0.2-0.3-0.2-0.4
				s0.1-0.3,0.1-0.4c0.4-0.4,0.9-1.1,1.3-1.9c0.1-0.1,0.2-0.2,0.3-0.2c0.4,0,0.5,0.2,0.5,0.5c0,0.2-0.2,0.7-0.7,1.5
				C233.7,24.5,233.3,24.9,233.1,24.9z M239.1,30c0,0.3-0.1,0.5-0.4,0.5h-1.1v0.7c0,0.3-0.2,0.4-0.5,0.4c-0.3,0-0.4-0.1-0.4-0.4
				v-0.7h-0.9c-0.5,0-0.8-0.2-0.8-0.6c0-0.1,0-0.3,0.1-0.4c0.1-0.2,0.1-0.3,0.2-0.5h-0.2c-0.2,0-0.4-0.2-0.4-0.5
				c0-0.3,0.1-0.5,0.4-0.5h1.6v-0.4h-1c-0.4,0-0.6-0.2-0.6-0.6v-1.2c0-0.4,0.2-0.6,0.5-0.6h2.7c0.4,0,0.6,0.2,0.6,0.6V27
				c0,0.4-0.2,0.6-0.5,0.6h-0.7v0.4h1.1c0.2,0,0.4,0.2,0.4,0.5c0,0.3-0.1,0.5-0.4,0.5h-1.1v0.7h1.1C239,29.5,239.1,29.6,239.1,30z
				 M239.1,24.4c0,0.3-0.1,0.5-0.4,0.5h-3.5c-0.2,0-0.4-0.2-0.4-0.5c0-0.3,0.1-0.5,0.4-0.5h0.5l0.2-0.6h-0.5c-0.2,0-0.4-0.2-0.4-0.5
				c0-0.3,0.1-0.5,0.4-0.5h0.7c0,0,0-0.1,0.1-0.3c0.1-0.3,0.2-0.4,0.4-0.4c0.3,0,0.5,0.1,0.5,0.3c0,0.1,0,0.2-0.1,0.4h0.7
				c0.5,0,0.7,0.2,0.7,0.7v0.8h0.3C239,23.9,239.1,24.1,239.1,24.4z M238,26.3c0-0.2-0.1-0.3-0.2-0.3h-1.7c-0.1,0-0.2,0.1-0.2,0.3
				c0,0.2,0.1,0.3,0.2,0.3h1.7C237.9,26.6,238,26.5,238,26.3z M236.7,29.5v-0.7h-0.5c0,0,0,0.1-0.1,0.2c-0.1,0.2-0.1,0.3-0.1,0.3
				c0,0.1,0.1,0.2,0.3,0.2H236.7z M237.6,23.9v-0.3c0-0.2-0.1-0.3-0.2-0.3h-0.5l-0.2,0.6H237.6z M241.6,25.3c0,0.4-0.1,0.5-0.4,0.5
				h-0.2v4.6c0,0.6-0.4,1-1.1,1c-0.6,0-1-0.2-1-0.5c0-0.4,0.1-0.6,0.4-0.6c0,0,0.1,0,0.1,0c0.2,0,0.3,0.1,0.4,0.1c0,0,0,0,0,0
				c0.1,0,0.2-0.2,0.2-0.5v-4.1h-0.6c-0.3,0-0.4-0.2-0.4-0.5c0-0.3,0.1-0.5,0.4-0.5h1.8C241.5,24.8,241.6,25,241.6,25.3z
				 M241.4,22.8c0,0.4-0.1,0.5-0.4,0.5h-1.5c-0.3,0-0.4-0.2-0.4-0.5c0-0.3,0.1-0.5,0.4-0.5h1.5C241.3,22.3,241.4,22.5,241.4,22.8z"
				/>
			<path class="st8" d="M251.6,30.6c0,0.4-0.2,0.6-0.5,0.6H243c-0.3,0-0.5-0.2-0.5-0.6s0.1-0.6,0.4-0.6h3.7v-2.1h-2.7
				c-0.3,0-0.5-0.2-0.5-0.6c0-0.4,0.1-0.6,0.4-0.6h2.8v-1.9h-2.2c-0.5,1.1-0.9,1.6-1.2,1.6c-0.4,0-0.6-0.2-0.6-0.6
				c0-0.1,0-0.2,0.1-0.4c0.6-1,1.1-2,1.4-3.1c0-0.2,0.2-0.3,0.4-0.3c0.4,0,0.7,0.2,0.7,0.5c0,0.1,0,0.1,0,0.2c0,0,0,0.1,0,0.2
				c-0.1,0.3-0.2,0.6-0.2,0.8h1.8v-1.5c0-0.3,0.2-0.4,0.5-0.4c0.4,0,0.6,0.2,0.6,0.5v1.5h3.1c0.3,0,0.4,0.2,0.4,0.6
				c0,0.4-0.2,0.6-0.5,0.6h-3.1v1.9h2.7c0.3,0,0.4,0.2,0.4,0.6c0,0.4-0.2,0.6-0.5,0.6h-2.7V30h3.4C251.5,30,251.6,30.2,251.6,30.6z"
				/>
			<path class="st8" d="M253.8,27.4c0,2.1-0.3,3.1-0.8,3.1c-0.4,0-0.6-0.2-0.6-0.5c0-0.1,0-0.2,0-0.2c0.3-0.7,0.4-1.5,0.4-2.4v-1.3
				c0-0.3,0.2-0.4,0.5-0.4c0.3,0,0.4,0.1,0.4,0.4V27.4z M256.3,24.8c0,0.4-0.2,0.5-0.5,0.5H255v5.8c0,0.3-0.2,0.4-0.5,0.4
				c-0.3,0-0.5-0.1-0.5-0.4v-5.8h-1c-0.3,0-0.5-0.2-0.5-0.5c0-0.4,0.2-0.6,0.5-0.6h2.7C256.1,24.2,256.3,24.4,256.3,24.8z
				 M256.1,22.8c0,0.4-0.2,0.6-0.5,0.6h-2.3c-0.3,0-0.5-0.2-0.5-0.6c0-0.4,0.2-0.5,0.5-0.5h2.3C256,22.3,256.1,22.5,256.1,22.8z
				 M256.1,29.4c0,0.3-0.1,0.4-0.4,0.4c-0.3,0-0.4-0.1-0.4-0.4v-3.2c0-0.3,0.1-0.4,0.4-0.4c0.3,0,0.4,0.1,0.4,0.4V29.4z M261.6,22.7
				c0,0.3-0.1,0.5-0.4,0.5h-4.5c-0.3,0-0.4-0.2-0.4-0.5c0-0.4,0.1-0.5,0.4-0.5h4.5C261.4,22.1,261.6,22.3,261.6,22.7z M261.4,30.8
				c0,0.4-0.2,0.6-0.5,0.6H257c-0.4,0-0.6-0.2-0.6-0.7v-3.6c0-0.4,0.2-0.6,0.6-0.6h3.9c0.4,0,0.5,0.2,0.5,0.6V30.8z M261.2,25.6
				c0,0.4-0.2,0.6-0.5,0.6h-3.6c-0.4,0-0.6-0.2-0.6-0.7v-1.4c0-0.4,0.2-0.6,0.5-0.6h3.6c0.4,0,0.6,0.2,0.6,0.6V25.6z M258.4,28.4
				v-0.9h-0.8c-0.2,0-0.3,0.1-0.3,0.3v0.6H258.4z M258.4,30.3v-1h-1.1v0.7c0,0.2,0.1,0.3,0.3,0.3H258.4z M260.3,24.8
				c0-0.2-0.1-0.3-0.2-0.3h-2.5c-0.1,0-0.2,0.1-0.2,0.3c0,0.2,0.1,0.3,0.2,0.3h2.5C260.3,25.1,260.3,25,260.3,24.8z M260.5,28.4
				v-0.6c0-0.2-0.1-0.3-0.2-0.3h-0.9v0.9H260.5z M260.5,30v-0.6h-1.1v1h0.9C260.4,30.3,260.5,30.2,260.5,30z"/>
			<path class="st8" d="M268.2,24.9c0,0.4-0.1,0.5-0.4,0.5h-1.7c0.4,0.3,0.8,0.8,1.2,1.3c0.5,0.6,0.7,0.9,0.7,1.1
				c0,0.1-0.1,0.3-0.2,0.4c-0.1,0.1-0.2,0.2-0.4,0.2c-0.2,0-0.4-0.2-0.7-0.7c-0.1-0.2-0.2-0.3-0.2-0.3c0,0,0,0-0.1-0.1
				c-0.3-0.4-0.4-0.6-0.5-0.7v4.5c0,0.3-0.2,0.4-0.5,0.4c-0.3,0-0.5-0.1-0.5-0.4v-4c-0.2,0.4-0.5,0.8-1,1.2
				c-0.4,0.4-0.7,0.7-0.9,0.7c-0.1,0-0.3-0.1-0.4-0.2c-0.1-0.1-0.2-0.3-0.2-0.4c0-0.1,0-0.2,0.1-0.3c1.1-1.1,1.9-2,2.2-2.7h-1.9
				c-0.3,0-0.4-0.2-0.4-0.5c0-0.4,0.1-0.5,0.4-0.5h2v-1.3c-0.7,0-1.2,0-1.6,0c-0.3,0-0.4-0.2-0.4-0.6c0-0.3,0.2-0.5,0.5-0.5
				c1.2,0,2.4-0.1,3.9-0.3c0,0,0.1,0,0.1,0c0.3,0,0.5,0.2,0.5,0.6c0,0.3-0.2,0.4-0.6,0.5c-0.4,0.1-0.8,0.1-1.3,0.2v1.3h1.9
				C268.1,24.4,268.2,24.5,268.2,24.9z M271.2,29c0,1.1-0.1,1.8-0.3,2c-0.2,0.3-0.6,0.4-1,0.4c-1.1,0-1.6-0.2-1.6-0.6
				c0-0.5,0.2-0.7,0.5-0.7c0,0,0.1,0,0.2,0c0.4,0.1,0.7,0.2,0.8,0.2c0.4,0,0.5-0.4,0.5-1.3v-6.8c0-0.2,0.2-0.4,0.5-0.4
				c0.3,0,0.5,0.1,0.5,0.4V29z M269.3,29c0,0.3-0.2,0.4-0.5,0.4c-0.3,0-0.5-0.1-0.5-0.4v-6.5c0-0.2,0.2-0.4,0.5-0.4
				c0.3,0,0.5,0.1,0.5,0.4V29z"/>
			<path class="st8" d="M277.9,26.1c0,0.3-0.2,0.5-0.5,0.5h-4.6c-0.2,0-0.4-0.2-0.4-0.5c0-0.4,0.1-0.6,0.4-0.6h0.9
				c-0.1-0.4-0.2-0.9-0.5-1.7H273c-0.3,0-0.4-0.2-0.4-0.5c0-0.4,0.1-0.5,0.5-0.5h1.5v-0.5c0-0.3,0.2-0.5,0.5-0.5
				c0.4,0,0.6,0.2,0.6,0.5v0.5h1.6c0.3,0,0.5,0.2,0.5,0.5c0,0.3-0.2,0.5-0.5,0.5H277c0,0.1-0.1,0.4-0.1,0.7c0,0,0,0.1,0,0.1
				c-0.1,0.4-0.1,0.7-0.2,0.9h0.8C277.7,25.5,277.9,25.7,277.9,26.1z M277.5,30.7c0,0.4-0.2,0.6-0.5,0.6h-3.5
				c-0.4,0-0.6-0.2-0.6-0.7v-2.8c0-0.4,0.2-0.6,0.5-0.6h3.5c0.4,0,0.5,0.2,0.5,0.6V30.7z M276.5,29.9v-1.3c0-0.2-0.1-0.2-0.2-0.2
				h-2.1c-0.2,0-0.3,0.1-0.3,0.3v1.3c0,0.2,0.1,0.3,0.3,0.3h2.2C276.4,30.2,276.5,30.1,276.5,29.9z M276,23.8h-1.7
				c0,0.1,0.1,0.2,0.1,0.4c0.1,0.4,0.2,0.8,0.3,1.3h0.9c0.2-0.7,0.3-1.2,0.3-1.5C276,23.9,276,23.9,276,23.8z M281.6,28.8
				c0,1.3-0.5,2-1.6,2c0,0-0.1,0-0.1,0c-0.3,0-0.6-0.1-0.7-0.3v0.6c0,0.3-0.2,0.4-0.5,0.4c-0.3,0-0.5-0.1-0.5-0.4v-8.4
				c0-0.5,0.2-0.7,0.7-0.7h1.7c0.5,0,0.8,0.2,0.8,0.7c0,0.2-0.3,1.1-0.8,2.7c-0.1,0.3-0.2,0.5-0.2,0.5c0,0.1,0,0.1,0.1,0.2
				c0.2,0.2,0.5,0.6,0.7,1.1C281.4,27.9,281.6,28.4,281.6,28.8z M280.6,28.9c0-0.6-0.4-1.4-1.1-2.3c-0.1-0.1-0.2-0.3-0.2-0.4
				c0-0.1,0-0.2,0.1-0.4c0.3-0.6,0.5-1.4,0.8-2.4c0-0.1,0-0.1,0-0.2c0-0.1-0.1-0.1-0.2-0.1h-0.6c-0.2,0-0.3,0.1-0.3,0.4v6.4
				c0.1-0.1,0.1-0.1,0.2-0.1c0,0,0.1,0,0.2,0c0.2,0,0.4,0.1,0.5,0.1C280.4,29.8,280.6,29.5,280.6,28.9z"/>
			<path class="st8" d="M241.2,42.9c0,0.6-0.3,0.8-0.8,0.8h-6.7c-0.5,0-0.8-0.3-0.8-0.8v-7.6c0-0.6,0.3-0.8,0.8-0.8h6.7
				c0.5,0,0.8,0.3,0.8,0.8V42.9z M237.9,40.2c-0.3-0.8-0.4-1.8-0.5-3h-3c-0.3,0-0.4-0.2-0.4-0.5c0-0.3,0.1-0.5,0.4-0.5h2.9
				c0-0.3,0-0.5,0-0.6c0-0.1,0.1-0.2,0.2-0.3h-3.3c-0.2,0-0.3,0.1-0.3,0.3v6.7c0,0.2,0.1,0.3,0.3,0.3h2.6c-0.2-0.1-0.3-0.3-0.3-0.5
				c0-0.1,0.1-0.2,0.2-0.3c0.2-0.2,0.3-0.3,0.4-0.3c-1,0.4-1.9,0.5-2.5,0.5c-0.3,0-0.4-0.2-0.4-0.6c0-0.3,0.1-0.4,0.4-0.5
				c0.9-0.1,1.8-0.3,2.7-0.6c0,0,0.1,0,0.1,0c0.2,0,0.3,0.1,0.3,0.3C237.7,40.6,237.8,40.4,237.9,40.2z M237.1,39.7
				c0,0.5-0.2,0.7-0.7,0.7h-1.5c-0.5,0-0.7-0.2-0.7-0.7v-1.4c0-0.5,0.2-0.7,0.7-0.7h1.5c0.5,0,0.7,0.2,0.7,0.7V39.7z M236.3,39.3
				v-0.6c0-0.1-0.1-0.2-0.2-0.2h-0.9c-0.1,0-0.2,0.1-0.2,0.2v0.6c0,0.1,0.1,0.2,0.2,0.2h0.9C236.2,39.5,236.3,39.5,236.3,39.3z
				 M240.3,42.4v-1c-0.1,0.8-0.4,1.1-0.9,1.1c-0.5,0-0.8-0.4-1.1-1.2c-0.4,0.6-0.8,1-1.2,1.3h2.9C240.2,42.7,240.3,42.6,240.3,42.4z
				 M238.9,36.3c-0.2-0.2-0.3-0.4-0.4-0.5c0,0,0-0.1,0-0.2c0-0.1,0-0.2,0.1-0.2H238c0.1,0.1,0.2,0.1,0.2,0.3c0,0.2,0,0.4,0,0.6
				H238.9z M240.3,40.1v-4.3c0-0.2-0.1-0.3-0.3-0.3h-0.7c0.3,0.3,0.4,0.5,0.4,0.6c0,0.1,0,0.2-0.1,0.3h0.1c0.3,0,0.4,0.2,0.4,0.5
				c0,0.3-0.1,0.5-0.4,0.5h-1.5c0.1,0.7,0.2,1.3,0.2,1.8c0.2-0.4,0.3-0.8,0.5-1.2c0.1-0.2,0.2-0.3,0.4-0.3c0.3,0,0.5,0.2,0.5,0.5
				c0,0.2-0.1,0.6-0.4,1.3c0,0,0,0,0,0.1c-0.1,0.3-0.3,0.7-0.5,1c0.1,0.6,0.3,0.8,0.4,0.8c0.1,0,0.1-0.3,0.2-0.9
				c0-0.2,0.1-0.3,0.4-0.3C240,40,240.1,40,240.3,40.1z"/>
			<path class="st8" d="M250.5,43.9c-0.6,0-1.2-0.4-1.9-1.2c-0.7-0.8-1.1-1.6-1.4-2.5h-2.7v2c0.3,0,0.9-0.2,1.8-0.4
				c0.6-0.2,0.9-0.2,0.9-0.2c0.3,0,0.5,0.2,0.5,0.7c0,0.3-0.2,0.5-0.7,0.6c-0.5,0.1-0.9,0.2-1.3,0.4c-1.3,0.3-2.2,0.5-2.7,0.5
				c-0.3,0-0.5-0.2-0.5-0.7c0-0.3,0.1-0.5,0.4-0.5c0.1,0,0.2,0,0.4-0.1c0.1,0,0.2,0,0.2,0v-6.9c0-0.6,0.2-0.8,0.6-0.8c0,0,0,0,0,0
				h6.4h0c0.4,0,0.5,0.3,0.5,0.8V37c0,0.6-0.2,0.8-0.5,0.8h0h-2.7c0,0.3,0.1,0.5,0.2,0.9c0,0.1,0,0.2,0,0.2h3c0.3,0,0.5,0.2,0.5,0.6
				c0,0.4-0.2,0.5-0.5,0.5h-2.7c0.2,0.6,0.6,1.2,1,1.6c0.4,0.5,0.7,0.7,0.9,0.7c0.1,0,0.2-0.3,0.3-0.8c0.1-0.5,0.2-0.8,0.5-0.8
				c0.4,0,0.6,0.2,0.6,0.5c0,0.3-0.1,0.8-0.2,1.5C251.2,43.5,250.9,43.8,250.5,43.9z M250,36.5V36c0-0.2-0.1-0.3-0.3-0.3h-4.9
				c-0.2,0-0.3,0.1-0.3,0.3v0.8h5.3C249.9,36.8,250,36.7,250,36.5z M246.9,39c0,0,0-0.1-0.1-0.2c-0.1-0.3-0.1-0.6-0.2-0.8h-2.2V39
				H246.9z"/>
			<path class="st8" d="M254.3,36.5v7c0,0.3-0.2,0.4-0.5,0.4c-0.3,0-0.5-0.1-0.5-0.4V39c-0.1,0.1-0.2,0.2-0.3,0.2
				c-0.4,0-0.5-0.2-0.5-0.5c0-0.1,0-0.2,0.1-0.3c0.6-1.2,1-2.5,1.1-3.9c0-0.2,0.2-0.3,0.4-0.3c0.4,0,0.5,0.1,0.5,0.4
				C254.6,34.7,254.5,35.3,254.3,36.5z M261.6,43.2c0,0.3-0.2,0.5-0.5,0.5h-2.7c-1.2,0-2-0.3-2.5-1c-0.4,0.8-0.7,1.2-1,1.2
				c-0.4,0-0.6-0.2-0.6-0.5c0-0.1,0-0.2,0.1-0.3c0.3-0.4,0.5-0.7,0.7-1.1c-0.5-0.9-0.7-1.7-0.7-2.4c0-0.3,0.2-0.4,0.5-0.4
				c0.2,0,0.4,0.1,0.4,0.3c0.1,0.3,0.1,0.7,0.3,1.1c0.1-0.4,0.1-0.8,0.1-1.4c0-0.2-0.1-0.3-0.2-0.3h-0.7c-0.4,0-0.5-0.2-0.5-0.6
				c0-0.2,0-0.3,0.1-0.4c0.8-1.1,1.1-1.8,1.1-2c0-0.1-0.1-0.1-0.2-0.1H255c-0.3,0-0.4-0.2-0.4-0.5c0-0.3,0.1-0.5,0.4-0.5h1
				c0.4,0,0.7,0.2,0.7,0.7c0,0.2-0.1,0.5-0.3,0.9c0,0,0,0.1,0,0.1c0-0.1,0.1-0.1,0.2-0.1h1.8v-0.4h-1.1c-0.3,0-0.5-0.2-0.5-0.5
				c0-0.3,0.2-0.5,0.5-0.5h1.1v-0.3c0-0.3,0.2-0.5,0.5-0.5c0.3,0,0.5,0.2,0.5,0.5v0.3h1c0.5,0,0.7,0.2,0.7,0.7v0.7h0.1
				c0.3,0,0.5,0.2,0.5,0.5c0,0.3-0.2,0.5-0.5,0.5H261v0.7c0,0.5-0.2,0.7-0.7,0.7h-1v0.4h1.3c0.3,0,0.4,0.2,0.4,0.5
				c0,0.3-0.1,0.5-0.4,0.5h-1.3v0.5h1.7c0.3,0,0.4,0.2,0.4,0.5c0,0.3-0.1,0.5-0.4,0.5h-1.7v0.6c0,0.2-0.1,0.4-0.2,0.4h2.1
				C261.4,42.6,261.6,42.8,261.6,43.2z M258.3,40.6v-0.5h-1c-0.3,0-0.5-0.2-0.5-0.5c0-0.3,0.2-0.5,0.5-0.5h1v-0.4h-1.1
				c-0.3,0-0.5-0.2-0.5-0.5c0-0.3,0.2-0.5,0.5-0.5h1.1v-0.4h-1.8c-0.2,0-0.4-0.1-0.4-0.4c0,0,0-0.1,0-0.1c-0.3,0.5-0.4,0.8-0.5,1
				c0,0,0,0.1,0,0.1c0,0,0,0.1,0.1,0.1h0.4c0.4,0,0.6,0.2,0.6,0.7v1c0,0.3,0,0.6,0,0.9c0,0.2,0,0.3,0,0.4c0-0.1,0.1-0.2,0.3-0.2
				H258.3z M258.6,42.6C258.6,42.6,258.6,42.6,258.6,42.6c-0.2,0-0.3-0.1-0.3-0.4v-0.6h-1.5c-0.2,0-0.3-0.2-0.3-0.5
				c0,0.1-0.1,0.3-0.2,0.6c0,0.1,0.2,0.3,0.6,0.5c0.4,0.2,0.8,0.4,1.4,0.4C258.4,42.6,258.5,42.6,258.6,42.6z M260.1,36.3v-0.2
				c0-0.1-0.1-0.2-0.2-0.2h-0.6v0.4H260.1z M260.1,37.5v-0.2h-0.8v0.4h0.6C260,37.7,260.1,37.6,260.1,37.5z"/>
			<path class="st8" d="M271.6,38.1c0,0.3-0.1,0.5-0.3,0.5h-0.6v0.5c0,0.5-0.2,0.8-0.6,0.8H268c0.2,0.5,0.6,1,1.1,1.4
				c-0.1-0.1-0.1-0.2-0.1-0.3c0-0.2,0.1-0.3,0.3-0.5c0.2-0.2,0.4-0.3,0.5-0.4c0.3-0.2,0.5-0.4,0.6-0.4c0.1-0.1,0.2-0.1,0.3-0.1
				c0.1,0,0.2,0.1,0.3,0.2c0.1,0.1,0.1,0.3,0.1,0.4c0,0.2-0.2,0.4-0.7,0.8c-0.5,0.4-0.8,0.6-1,0.6c0,0-0.1,0-0.1,0
				c0.5,0.4,1.1,0.7,1.9,1c0.2,0.1,0.3,0.2,0.3,0.4c0,0.5-0.2,0.7-0.5,0.7c-0.3,0-0.8-0.2-1.5-0.7c-0.6-0.4-1.2-0.9-1.6-1.5v1.4
				c0,0.6-0.4,0.9-1.1,0.9c-0.9,0-1.3-0.2-1.3-0.6c0-0.4,0.1-0.6,0.4-0.6c0,0,0,0,0.1,0c0.4,0.1,0.6,0.1,0.7,0.1
				c0.1,0,0.2-0.1,0.2-0.4v-0.7c-0.1,0.1-0.4,0.3-0.8,0.6c-0.1,0-0.1,0.1-0.1,0.1c-0.9,0.7-1.5,1-1.7,1c-0.3,0-0.5-0.2-0.5-0.7
				c0-0.2,0.1-0.3,0.3-0.5c0.3-0.2,0.8-0.4,1.3-0.8c-0.2-0.1-0.5-0.3-0.9-0.6c-0.2-0.1-0.3-0.2-0.3-0.4c0-0.4,0.1-0.6,0.4-0.6
				c0.1,0,0.2,0,0.3,0.1c0,0,0.1,0.1,0.2,0.1c0.7,0.4,1.1,0.7,1.1,0.9c0,0.1,0,0.1,0,0.1c0.2-0.2,0.3-0.3,0.4-0.3
				c0.1-0.1,0.2-0.1,0.2-0.1c0.1,0,0.2,0,0.3,0.1v-0.9h-2.2c-0.2,0-0.4-0.2-0.4-0.5c0-0.3,0.1-0.5,0.4-0.5h2.2v-0.3h-2.8v1.1
				c0,0.5,0,1-0.1,1.6c-0.1,0.6-0.2,1.1-0.4,1.6c-0.2,0.5-0.3,0.7-0.6,0.7c-0.4,0-0.6-0.2-0.6-0.5c0-0.1,0-0.1,0-0.2
				c0.4-1.1,0.6-2.5,0.6-4.2v-3.1c0-0.6,0.3-0.8,0.8-0.8h2.9v-0.3c0-0.3,0.2-0.4,0.5-0.4c0.3,0,0.5,0.1,0.5,0.4v0.3h3.2
				c0.3,0,0.4,0.2,0.4,0.5c0,0.3-0.1,0.5-0.4,0.5H268v0.4h2.2c0.4,0,0.6,0.2,0.6,0.6v0.7h0.6C271.5,37.6,271.6,37.7,271.6,38.1z
				 M267,37.6v-0.3h-2.3c-0.2,0-0.3-0.2-0.3-0.5c0-0.3,0.1-0.5,0.3-0.5h2.3V36h-2.4c-0.3,0-0.4,0.1-0.4,0.4v1.3H267z M269.8,37.6
				v-0.1c0-0.1-0.1-0.2-0.2-0.2H268v0.3H269.8z M269.8,38.8v-0.2H268v0.3h1.7C269.7,38.9,269.8,38.9,269.8,38.8z"/>
			<path class="st8" d="M281.1,41.2c-0.1,0-0.1,0-0.2-0.1c-0.2-0.1-0.3-0.3-0.5-0.4V43c0,0.5-0.3,0.8-0.8,0.8h-5
				c-0.5,0-0.8-0.3-0.8-0.8v-1.4c-0.1,0.1-0.4,0.1-0.7,0.2c0,0,0,0,0,0c0,0-0.1,0-0.1,0c-0.3,0-0.5-0.2-0.5-0.7c0-0.1,0-0.2,0.1-0.3
				c0.1-0.1,0.4-0.2,0.9-0.3c1.3-0.3,2.2-0.6,2.8-0.9H273c-0.3,0-0.4-0.2-0.4-0.5c0,0,0,0,0,0c0-0.3,0.1-0.4,0.4-0.4h3.3v-0.4h-2.6
				c-0.3,0-0.4-0.2-0.4-0.5c0-0.3,0.1-0.5,0.4-0.5h2.6v-0.4c0,0-0.2,0-0.7,0c-0.5,0-1.2,0-2,0c-0.5,0-0.8-0.3-0.8-0.8v-0.9
				c0-0.5,0.2-0.8,0.7-0.8h6.8c0.5,0,0.7,0.3,0.7,0.8v0.9c0,0.5-0.2,0.8-0.7,0.8h-3.1v0.4h2.5c0.1,0,0.1-0.1,0.2-0.2
				c0.1-0.1,0.2-0.1,0.3-0.1c0.1,0,0.3,0.1,0.4,0.2c0.1,0.1,0.2,0.2,0.2,0.4c0,0.2-0.4,0.5-1.2,1.1h1.4c0.2,0,0.4,0.1,0.4,0.4
				c0,0.3-0.1,0.5-0.4,0.5h-0.8c0.8,0.3,1.2,0.7,1.2,0.9C281.5,41,281.4,41.2,281.1,41.2z M275.3,36v-0.7h-1.1
				c-0.2,0-0.3,0.1-0.3,0.3v0.1c0,0.2,0.1,0.3,0.3,0.3H275.3z M279.4,41.6v-0.2c0-0.2-0.1-0.2-0.2-0.2h-4.1c-0.2,0-0.2,0.1-0.2,0.3
				v0.1H279.4z M279.4,42.6v-0.2h-4.6v0.2c0,0.2,0.1,0.2,0.2,0.2h4.1C279.4,42.8,279.4,42.8,279.4,42.6z M277.7,36v-0.7h-1.5V36
				H277.7z M279.6,40.3c-0.1,0-0.2-0.1-0.3-0.2c-0.2-0.1-0.3-0.2-0.3-0.3c0-0.1,0-0.1,0-0.2h-0.6c-0.1,0-0.2,0.1-0.3,0.2
				c-0.1,0.1-0.2,0.1-0.3,0.1c0,0-0.3,0.1-0.7,0.3H279.6z M278.8,38.2h-1.4v0.4h0.7C278.5,38.5,278.7,38.3,278.8,38.2z M280.2,35.7
				v-0.1c0-0.2-0.1-0.3-0.3-0.3h-1.3V36h1.3C280.1,36,280.2,35.9,280.2,35.7z"/>
		</g>
		<g>
			<path class="st7" d="M165.4,7.8c1.1,0,1.9-0.9,1.9-1.9c0-1.1-0.9-1.9-1.9-1.9c-1.1,0-1.9,0.9-1.9,1.9
				C163.5,7,164.3,7.8,165.4,7.8z"/>
			<path class="st7" d="M154,9c1.1,0,1.9-0.9,1.9-1.9c0-1.1-0.9-1.9-1.9-1.9c-1.1,0-1.9,0.9-1.9,1.9C152.1,8.2,153,9,154,9z"/>
			<path class="st7" d="M149.1,11.9c0.9,0,1.6-0.7,1.6-1.6c0-0.9-0.7-1.6-1.6-1.6c-0.9,0-1.6,0.7-1.6,1.6
				C147.5,11.2,148.2,11.9,149.1,11.9z"/>
			<path class="st7" d="M159.7,5.4c1.5,0,2.7-1.2,2.7-2.7c0-1.5-1.2-2.7-2.7-2.7c-1.5,0-2.7,1.2-2.7,2.7
				C157.1,4.2,158.3,5.4,159.7,5.4z"/>
			<path class="st7" d="M165.4,9.3c-1.2,0-2.2,1-2.2,2.1v8.8h-1V9.5c0-1.3-1.1-2.4-2.5-2.4c-1.4,0-2.5,1.1-2.5,2.4v10.7h-1v-7.6
				c0-1.2-1-2.1-2.2-2.1c-1.2,0-2.2,1-2.2,2.1v7.6h-0.9v-4.7c0-1-0.9-1.9-1.9-1.9c-1.1,0-1.9,0.8-1.9,1.9V22v8.3v12
				c0,1,0.8,1.7,1.7,1.7h16.9c1,0,1.7-0.8,1.7-1.7v-7.5c-0.1-0.7-0.6-1.2-1-1.4H153c-1.1,0-2.1-0.7-2.6-1.6
				c-0.2-0.4-0.3-0.8-0.3-1.3c0-0.9,0.4-1.6,1-2.2c0.3-0.2,0.6-0.4,0.9-0.6c0.3-0.1,0.7-0.2,1.1-0.2h3.2h1h4.9h1h3.2
				c0.6-0.2,0.9-0.6,1.1-0.9V22V11.5C167.5,10.3,166.6,9.3,165.4,9.3z"/>
		</g>
	</g>
</g>
</svg>
