<?xml version="1.0" encoding="utf-8"?>
<!-- Generator: Adobe Illustrator 25.0.0, SVG Export Plug-In . SVG Version: 6.00 Build 0)  -->
<svg version="1.1" id="圖層_5" xmlns="http://www.w3.org/2000/svg" xmlns:xlink="http://www.w3.org/1999/xlink" x="0px" y="0px"
	 viewBox="0 0 134.5 44" style="enable-background:new 0 0 134.5 44;" xml:space="preserve">
<style type="text/css">
	.st0{fill:#98B71D;}
	.st1{fill:#979797;}
</style>
<g>
	<g>
		<path class="st0" d="M26.8,43.9V22.4h6.8v7.8h1.7v5.7h-1.7v8H26.8z M36.3,43.9V22.4H43v21.5H36.3z"/>
		<path class="st0" d="M45.5,43.9v-13c0-1.1,0.1-2,0.2-2.7c0.2-0.7,0.4-1.4,0.8-2.1c0.7-1.3,1.7-2.3,3-3.1c1.3-0.7,2.8-1.1,4.5-1.1
			c2.4,0,4.4,0.8,6,2.3s2.4,3.4,2.4,5.6c0,2-0.7,3.6-2.1,4.9c-1.4,1.3-3.3,1.9-5.5,1.9c-0.3,0-0.5,0-0.7,0s-0.3,0-0.5,0v-5.3
			c0.1,0,0.1,0,0.2,0c0.1,0,0.1,0,0.3,0c0.6,0,1.1-0.2,1.4-0.5c0.4-0.3,0.6-0.8,0.6-1.3s-0.2-0.9-0.5-1.2c-0.4-0.3-0.8-0.5-1.3-0.5
			c-0.7,0-1.1,0.2-1.4,0.7c-0.3,0.5-0.4,1.3-0.4,2.4V44h-7V43.9z"/>
		<path class="st0" d="M63.6,43.9V32.4c0-1.2,0-2.1,0.1-2.7s0.2-1.2,0.3-1.7c0.5-1.9,1.4-3.4,2.8-4.5c1.4-1.1,3-1.6,4.9-1.6
			c1.3,0,2.6,0.3,3.7,0.9c1.1,0.6,2.1,1.4,2.8,2.4c0.6,0.9,1,1.8,1.3,2.8s0.4,2.5,0.4,4.3v11.5h-6.6v-13c0-0.8-0.1-1.4-0.3-1.8
			s-0.6-0.5-1.1-0.5s-0.8,0.2-1,0.5s-0.3,0.9-0.3,1.9v2.3h1.7v5.7h-1.7v5H63.6z"/>
	</g>
	<g>
		<path class="st1" d="M87.3,26.2v4.9c0,0.3-0.2,0.4-0.5,0.4s-0.5-0.1-0.5-0.4v-3.7c-0.2,0.2-0.3,0.3-0.5,0.3
			c-0.1,0-0.3-0.1-0.4-0.2c-0.1-0.1-0.2-0.2-0.2-0.4s0.1-0.3,0.2-0.4c0.8-0.8,1.2-1.4,1.4-1.8c0.1-0.1,0.2-0.2,0.3-0.2
			c0.4,0,0.5,0.2,0.5,0.5C87.9,25.3,87.7,25.7,87.3,26.2z M86,24.9c-0.1,0-0.3-0.1-0.4-0.2c-0.1-0.1-0.2-0.3-0.2-0.4
			s0.1-0.3,0.1-0.4c0.4-0.4,0.9-1.1,1.3-1.9c0.1-0.1,0.2-0.2,0.3-0.2c0.4,0,0.5,0.2,0.5,0.5c0,0.2-0.2,0.7-0.7,1.5
			C86.6,24.5,86.2,24.9,86,24.9z M92,30c0,0.3-0.1,0.5-0.4,0.5h-1.1v0.7c0,0.3-0.2,0.4-0.5,0.4s-0.4-0.1-0.4-0.4v-0.7h-0.9
			c-0.5,0-0.8-0.2-0.8-0.6c0-0.1,0-0.3,0.1-0.4c0.1-0.2,0.1-0.3,0.2-0.5H88c-0.2,0-0.4-0.2-0.4-0.5S87.7,28,88,28h1.6v-0.4h-1
			c-0.4,0-0.6-0.2-0.6-0.6v-1.2c0-0.4,0.2-0.6,0.5-0.6h2.7c0.4,0,0.6,0.2,0.6,0.6V27c0,0.4-0.2,0.6-0.5,0.6h-0.7V28h1.1
			c0.2,0,0.4,0.2,0.4,0.5S92,29,91.7,29h-1.1v0.7h1.1C91.9,29.5,92,29.6,92,30z M92,24.4c0,0.3-0.1,0.5-0.4,0.5h-3.5
			c-0.2,0-0.4-0.2-0.4-0.5s0.1-0.5,0.4-0.5h0.5l0.2-0.6h-0.5c-0.2,0-0.4-0.2-0.4-0.5s0.1-0.5,0.4-0.5H89c0,0,0-0.1,0.1-0.3
			c0.1-0.3,0.2-0.4,0.4-0.4c0.3,0,0.5,0.1,0.5,0.3c0,0.1,0,0.2-0.1,0.4h0.7c0.5,0,0.7,0.2,0.7,0.7v0.8h0.3
			C91.9,23.9,92,24.1,92,24.4z M90.9,26.3c0-0.2-0.1-0.3-0.2-0.3H89c-0.1,0-0.2,0.1-0.2,0.3c0,0.2,0.1,0.3,0.2,0.3h1.7
			C90.8,26.6,90.9,26.5,90.9,26.3z M89.6,29.5v-0.7h-0.5c0,0,0,0.1-0.1,0.2c-0.1,0.2-0.1,0.3-0.1,0.3c0,0.1,0.1,0.2,0.3,0.2H89.6z
			 M90.5,23.9v-0.3c0-0.2-0.1-0.3-0.2-0.3h-0.5l-0.2,0.6C89.6,23.9,90.5,23.9,90.5,23.9z M94.5,25.3c0,0.4-0.1,0.5-0.4,0.5h-0.2v4.6
			c0,0.6-0.4,1-1.1,1c-0.6,0-1-0.2-1-0.5c0-0.4,0.1-0.6,0.4-0.6h0.1c0.2,0,0.3,0.1,0.4,0.1l0,0c0.1,0,0.2-0.2,0.2-0.5v-4.1h-0.6
			c-0.3,0-0.4-0.2-0.4-0.5s0.1-0.5,0.4-0.5h1.8C94.4,24.8,94.5,25,94.5,25.3z M94.3,22.8c0,0.4-0.1,0.5-0.4,0.5h-1.5
			c-0.3,0-0.4-0.2-0.4-0.5s0.1-0.5,0.4-0.5h1.5C94.2,22.3,94.3,22.5,94.3,22.8z"/>
		<path class="st1" d="M104.5,30.6c0,0.4-0.2,0.6-0.5,0.6h-8.1c-0.3,0-0.5-0.2-0.5-0.6s0.1-0.6,0.4-0.6h3.7v-2.1h-2.7
			c-0.3,0-0.5-0.2-0.5-0.6s0.1-0.6,0.4-0.6h2.8v-1.9h-2.2c-0.5,1.1-0.9,1.6-1.2,1.6c-0.4,0-0.6-0.2-0.6-0.6c0-0.1,0-0.2,0.1-0.4
			c0.6-1,1.1-2,1.4-3.1c0-0.2,0.2-0.3,0.4-0.3c0.4,0,0.7,0.2,0.7,0.5c0,0.1,0,0.1,0,0.2c0,0,0,0.1,0,0.2c-0.1,0.3-0.2,0.6-0.2,0.8
			h1.8v-1.5c0-0.3,0.2-0.4,0.5-0.4c0.4,0,0.6,0.2,0.6,0.5v1.5h3.1c0.3,0,0.4,0.2,0.4,0.6s-0.2,0.6-0.5,0.6h-3.1v1.9h2.7
			c0.3,0,0.4,0.2,0.4,0.6s-0.2,0.6-0.5,0.6h-2.7V30h3.4C104.4,30,104.5,30.2,104.5,30.6z"/>
		<path class="st1" d="M106.7,27.4c0,2.1-0.3,3.1-0.8,3.1c-0.4,0-0.6-0.2-0.6-0.5c0-0.1,0-0.2,0-0.2c0.3-0.7,0.4-1.5,0.4-2.4v-1.3
			c0-0.3,0.2-0.4,0.5-0.4s0.4,0.1,0.4,0.4v1.3H106.7z M109.2,24.8c0,0.4-0.2,0.5-0.5,0.5h-0.8v5.8c0,0.3-0.2,0.4-0.5,0.4
			s-0.5-0.1-0.5-0.4v-5.8h-1c-0.3,0-0.5-0.2-0.5-0.5c0-0.4,0.2-0.6,0.5-0.6h2.7C109,24.2,109.2,24.4,109.2,24.8z M109,22.8
			c0,0.4-0.2,0.6-0.5,0.6h-2.3c-0.3,0-0.5-0.2-0.5-0.6s0.2-0.5,0.5-0.5h2.3C108.9,22.3,109,22.5,109,22.8z M109,29.4
			c0,0.3-0.1,0.4-0.4,0.4c-0.3,0-0.4-0.1-0.4-0.4v-3.2c0-0.3,0.1-0.4,0.4-0.4s0.4,0.1,0.4,0.4V29.4z M114.5,22.7
			c0,0.3-0.1,0.5-0.4,0.5h-4.5c-0.3,0-0.4-0.2-0.4-0.5c0-0.4,0.1-0.5,0.4-0.5h4.5C114.3,22.1,114.5,22.3,114.5,22.7z M114.3,30.8
			c0,0.4-0.2,0.6-0.5,0.6h-3.9c-0.4,0-0.6-0.2-0.6-0.7v-3.6c0-0.4,0.2-0.6,0.6-0.6h3.9c0.4,0,0.5,0.2,0.5,0.6V30.8z M114.1,25.6
			c0,0.4-0.2,0.6-0.5,0.6H110c-0.4,0-0.6-0.2-0.6-0.7v-1.4c0-0.4,0.2-0.6,0.5-0.6h3.6c0.4,0,0.6,0.2,0.6,0.6V25.6z M111.3,28.4v-0.9
			h-0.8c-0.2,0-0.3,0.1-0.3,0.3v0.6H111.3z M111.3,30.3v-1h-1.1V30c0,0.2,0.1,0.3,0.3,0.3H111.3z M113.2,24.8c0-0.2-0.1-0.3-0.2-0.3
			h-2.5c-0.1,0-0.2,0.1-0.2,0.3c0,0.2,0.1,0.3,0.2,0.3h2.5C113.2,25.1,113.2,25,113.2,24.8z M113.4,28.4v-0.6c0-0.2-0.1-0.3-0.2-0.3
			h-0.9v0.9H113.4z M113.4,30v-0.6h-1.1v1h0.9C113.3,30.3,113.4,30.2,113.4,30z"/>
		<path class="st1" d="M121.1,24.9c0,0.4-0.1,0.5-0.4,0.5H119c0.4,0.3,0.8,0.8,1.2,1.3c0.5,0.6,0.7,0.9,0.7,1.1
			c0,0.1-0.1,0.3-0.2,0.4s-0.2,0.2-0.4,0.2c-0.2,0-0.4-0.2-0.7-0.7c-0.1-0.2-0.2-0.3-0.2-0.3s0,0-0.1-0.1c-0.3-0.4-0.4-0.6-0.5-0.7
			v4.5c0,0.3-0.2,0.4-0.5,0.4s-0.5-0.1-0.5-0.4v-4c-0.2,0.4-0.5,0.8-1,1.2c-0.4,0.4-0.7,0.7-0.9,0.7c-0.1,0-0.3-0.1-0.4-0.2
			s-0.2-0.3-0.2-0.4s0-0.2,0.1-0.3c1.1-1.1,1.9-2,2.2-2.7h-1.9c-0.3,0-0.4-0.2-0.4-0.5c0-0.4,0.1-0.5,0.4-0.5h2v-1.3
			c-0.7,0-1.2,0-1.6,0c-0.3,0-0.4-0.2-0.4-0.6c0-0.3,0.2-0.5,0.5-0.5c1.2,0,2.4-0.1,3.9-0.3h0.1c0.3,0,0.5,0.2,0.5,0.6
			c0,0.3-0.2,0.4-0.6,0.5s-0.8,0.1-1.3,0.2v1.3h1.9C121,24.4,121.1,24.5,121.1,24.9z M124.1,29c0,1.1-0.1,1.8-0.3,2
			c-0.2,0.3-0.6,0.4-1,0.4c-1.1,0-1.6-0.2-1.6-0.6c0-0.5,0.2-0.7,0.5-0.7c0,0,0.1,0,0.2,0c0.4,0.1,0.7,0.2,0.8,0.2
			c0.4,0,0.5-0.4,0.5-1.3v-6.8c0-0.2,0.2-0.4,0.5-0.4s0.5,0.1,0.5,0.4V29H124.1z M122.2,29c0,0.3-0.2,0.4-0.5,0.4s-0.5-0.1-0.5-0.4
			v-6.5c0-0.2,0.2-0.4,0.5-0.4s0.5,0.1,0.5,0.4V29z"/>
		<path class="st1" d="M130.8,26.1c0,0.3-0.2,0.5-0.5,0.5h-4.6c-0.2,0-0.4-0.2-0.4-0.5c0-0.4,0.1-0.6,0.4-0.6h0.9
			c-0.1-0.4-0.2-0.9-0.5-1.7h-0.2c-0.3,0-0.4-0.2-0.4-0.5c0-0.4,0.1-0.5,0.5-0.5h1.5v-0.5c0-0.3,0.2-0.5,0.5-0.5
			c0.4,0,0.6,0.2,0.6,0.5v0.5h1.6c0.3,0,0.5,0.2,0.5,0.5s-0.2,0.5-0.5,0.5h-0.3c0,0.1-0.1,0.4-0.1,0.7v0.1c-0.1,0.4-0.1,0.7-0.2,0.9
			h0.8C130.6,25.5,130.8,25.7,130.8,26.1z M130.4,30.7c0,0.4-0.2,0.6-0.5,0.6h-3.5c-0.4,0-0.6-0.2-0.6-0.7v-2.8
			c0-0.4,0.2-0.6,0.5-0.6h3.5c0.4,0,0.5,0.2,0.5,0.6v2.9H130.4z M129.4,29.9v-1.3c0-0.2-0.1-0.2-0.2-0.2h-2.1
			c-0.2,0-0.3,0.1-0.3,0.3V30c0,0.2,0.1,0.3,0.3,0.3h2.2C129.3,30.2,129.4,30.1,129.4,29.9z M128.9,23.8h-1.7c0,0.1,0.1,0.2,0.1,0.4
			c0.1,0.4,0.2,0.8,0.3,1.3h0.9c0.2-0.7,0.3-1.2,0.3-1.5C128.9,23.9,128.9,23.9,128.9,23.8z M134.5,28.8c0,1.3-0.5,2-1.6,2h-0.1
			c-0.3,0-0.6-0.1-0.7-0.3v0.6c0,0.3-0.2,0.4-0.5,0.4s-0.5-0.1-0.5-0.4v-8.4c0-0.5,0.2-0.7,0.7-0.7h1.7c0.5,0,0.8,0.2,0.8,0.7
			c0,0.2-0.3,1.1-0.8,2.7c-0.1,0.3-0.2,0.5-0.2,0.5c0,0.1,0,0.1,0.1,0.2c0.2,0.2,0.5,0.6,0.7,1.1C134.3,27.9,134.5,28.4,134.5,28.8z
			 M133.5,28.9c0-0.6-0.4-1.4-1.1-2.3c-0.1-0.1-0.2-0.3-0.2-0.4s0-0.2,0.1-0.4c0.3-0.6,0.5-1.4,0.8-2.4c0-0.1,0-0.1,0-0.2
			s-0.1-0.1-0.2-0.1h-0.6c-0.2,0-0.3,0.1-0.3,0.4v6.4c0.1-0.1,0.1-0.1,0.2-0.1c0,0,0.1,0,0.2,0c0.2,0,0.4,0.1,0.5,0.1
			C133.3,29.8,133.5,29.5,133.5,28.9z"/>
		<path class="st1" d="M94.1,42.9c0,0.6-0.3,0.8-0.8,0.8h-6.7c-0.5,0-0.8-0.3-0.8-0.8v-7.6c0-0.6,0.3-0.8,0.8-0.8h6.7
			c0.5,0,0.8,0.3,0.8,0.8V42.9z M90.8,40.2c-0.3-0.8-0.4-1.8-0.5-3h-3c-0.3,0-0.4-0.2-0.4-0.5s0.1-0.5,0.4-0.5h2.9
			c0-0.3,0-0.5,0-0.6s0.1-0.2,0.2-0.3h-3.3c-0.2,0-0.3,0.1-0.3,0.3v6.7c0,0.2,0.1,0.3,0.3,0.3h2.6c-0.2-0.1-0.3-0.3-0.3-0.5
			c0-0.1,0.1-0.2,0.2-0.3c0.2-0.2,0.3-0.3,0.4-0.3c-1,0.4-1.9,0.5-2.5,0.5c-0.3,0-0.4-0.2-0.4-0.6c0-0.3,0.1-0.4,0.4-0.5
			c0.9-0.1,1.8-0.3,2.7-0.6h0.1c0.2,0,0.3,0.1,0.3,0.3C90.6,40.6,90.7,40.4,90.8,40.2z M90,39.7c0,0.5-0.2,0.7-0.7,0.7h-1.5
			c-0.5,0-0.7-0.2-0.7-0.7v-1.4c0-0.5,0.2-0.7,0.7-0.7h1.5c0.5,0,0.7,0.2,0.7,0.7V39.7z M89.2,39.3v-0.6c0-0.1-0.1-0.2-0.2-0.2h-0.9
			c-0.1,0-0.2,0.1-0.2,0.2v0.6c0,0.1,0.1,0.2,0.2,0.2H89C89.1,39.5,89.2,39.5,89.2,39.3z M93.2,42.4v-1c-0.1,0.8-0.4,1.1-0.9,1.1
			s-0.8-0.4-1.1-1.2c-0.4,0.6-0.8,1-1.2,1.3h2.9C93.1,42.7,93.2,42.6,93.2,42.4z M91.8,36.3c-0.2-0.2-0.3-0.4-0.4-0.5
			c0,0,0-0.1,0-0.2c0-0.1,0-0.2,0.1-0.2h-0.6c0.1,0.1,0.2,0.1,0.2,0.3s0,0.4,0,0.6C91.1,36.3,91.8,36.3,91.8,36.3z M93.2,40.1v-4.3
			c0-0.2-0.1-0.3-0.3-0.3h-0.7c0.3,0.3,0.4,0.5,0.4,0.6s0,0.2-0.1,0.3h0.1c0.3,0,0.4,0.2,0.4,0.5s-0.1,0.5-0.4,0.5h-1.5
			c0.1,0.7,0.2,1.3,0.2,1.8c0.2-0.4,0.3-0.8,0.5-1.2c0.1-0.2,0.2-0.3,0.4-0.3c0.3,0,0.5,0.2,0.5,0.5c0,0.2-0.1,0.6-0.4,1.3
			c0,0,0,0,0,0.1c-0.1,0.3-0.3,0.7-0.5,1c0.1,0.6,0.3,0.8,0.4,0.8c0.1,0,0.1-0.3,0.2-0.9c0-0.2,0.1-0.3,0.4-0.3
			C92.9,40,93,40,93.2,40.1z"/>
		<path class="st1" d="M103.4,43.9c-0.6,0-1.2-0.4-1.9-1.2s-1.1-1.6-1.4-2.5h-2.7v2c0.3,0,0.9-0.2,1.8-0.4c0.6-0.2,0.9-0.2,0.9-0.2
			c0.3,0,0.5,0.2,0.5,0.7c0,0.3-0.2,0.5-0.7,0.6s-0.9,0.2-1.3,0.4c-1.3,0.3-2.2,0.5-2.7,0.5c-0.3,0-0.5-0.2-0.5-0.7
			c0-0.3,0.1-0.5,0.4-0.5c0.1,0,0.2,0,0.4-0.1c0.1,0,0.2,0,0.2,0v-6.9c0-0.6,0.2-0.8,0.6-0.8l0,0h6.4l0,0c0.4,0,0.5,0.3,0.5,0.8V37
			c0,0.6-0.2,0.8-0.5,0.8l0,0h-2.7c0,0.3,0.1,0.5,0.2,0.9c0,0.1,0,0.2,0,0.2h3c0.3,0,0.5,0.2,0.5,0.6c0,0.4-0.2,0.5-0.5,0.5h-2.7
			c0.2,0.6,0.6,1.2,1,1.6c0.4,0.5,0.7,0.7,0.9,0.7c0.1,0,0.2-0.3,0.3-0.8s0.2-0.8,0.5-0.8c0.4,0,0.6,0.2,0.6,0.5s-0.1,0.8-0.2,1.5
			C104.1,43.5,103.8,43.8,103.4,43.9z M102.9,36.5V36c0-0.2-0.1-0.3-0.3-0.3h-4.9c-0.2,0-0.3,0.1-0.3,0.3v0.8h5.3
			C102.8,36.8,102.9,36.7,102.9,36.5z M99.8,39c0,0,0-0.1-0.1-0.2c-0.1-0.3-0.1-0.6-0.2-0.8h-2.2v1H99.8z"/>
		<path class="st1" d="M107.2,36.5v7c0,0.3-0.2,0.4-0.5,0.4s-0.5-0.1-0.5-0.4V39c-0.1,0.1-0.2,0.2-0.3,0.2c-0.4,0-0.5-0.2-0.5-0.5
			c0-0.1,0-0.2,0.1-0.3c0.6-1.2,1-2.5,1.1-3.9c0-0.2,0.2-0.3,0.4-0.3c0.4,0,0.5,0.1,0.5,0.4C107.5,34.7,107.4,35.3,107.2,36.5z
			 M114.5,43.2c0,0.3-0.2,0.5-0.5,0.5h-2.7c-1.2,0-2-0.3-2.5-1c-0.4,0.8-0.7,1.2-1,1.2c-0.4,0-0.6-0.2-0.6-0.5c0-0.1,0-0.2,0.1-0.3
			c0.3-0.4,0.5-0.7,0.7-1.1c-0.5-0.9-0.7-1.7-0.7-2.4c0-0.3,0.2-0.4,0.5-0.4c0.2,0,0.4,0.1,0.4,0.3c0.1,0.3,0.1,0.7,0.3,1.1
			c0.1-0.4,0.1-0.8,0.1-1.4c0-0.2-0.1-0.3-0.2-0.3h-0.7c-0.4,0-0.5-0.2-0.5-0.6c0-0.2,0-0.3,0.1-0.4c0.8-1.1,1.1-1.8,1.1-2
			c0-0.1-0.1-0.1-0.2-0.1h-0.3c-0.3,0-0.4-0.2-0.4-0.5s0.1-0.5,0.4-0.5h1c0.4,0,0.7,0.2,0.7,0.7c0,0.2-0.1,0.5-0.3,0.9v0.1
			c0-0.1,0.1-0.1,0.2-0.1h1.8V36h-1.1c-0.3,0-0.5-0.2-0.5-0.5s0.2-0.5,0.5-0.5h1.1v-0.3c0-0.3,0.2-0.5,0.5-0.5s0.5,0.2,0.5,0.5V35h1
			c0.5,0,0.7,0.2,0.7,0.7v0.7h0.1c0.3,0,0.5,0.2,0.5,0.5s-0.2,0.5-0.5,0.5h-0.2v0.7c0,0.5-0.2,0.7-0.7,0.7h-1v0.4h1.3
			c0.3,0,0.4,0.2,0.4,0.5s-0.1,0.5-0.4,0.5h-1.3v0.5h1.7c0.3,0,0.4,0.2,0.4,0.5s-0.1,0.5-0.4,0.5h-1.7v0.6c0,0.2-0.1,0.4-0.2,0.4
			h2.1C114.3,42.6,114.5,42.8,114.5,43.2z M111.2,40.6v-0.5h-1c-0.3,0-0.5-0.2-0.5-0.5s0.2-0.5,0.5-0.5h1v-0.4h-1.1
			c-0.3,0-0.5-0.2-0.5-0.5s0.2-0.5,0.5-0.5h1.1v-0.4h-1.8c-0.2,0-0.4-0.1-0.4-0.4v-0.1c-0.3,0.5-0.4,0.8-0.5,1v0.1
			c0,0,0,0.1,0.1,0.1h0.4c0.4,0,0.6,0.2,0.6,0.7v1c0,0.3,0,0.6,0,0.9c0,0.2,0,0.3,0,0.4c0-0.1,0.1-0.2,0.3-0.2h1.3V40.6z
			 M111.5,42.6L111.5,42.6c-0.2,0-0.3-0.1-0.3-0.4v-0.6h-1.5c-0.2,0-0.3-0.2-0.3-0.5c0,0.1-0.1,0.3-0.2,0.6c0,0.1,0.2,0.3,0.6,0.5
			s0.8,0.4,1.4,0.4C111.3,42.6,111.4,42.6,111.5,42.6z M113,36.3v-0.2c0-0.1-0.1-0.2-0.2-0.2h-0.6v0.4H113z M113,37.5v-0.2h-0.8v0.4
			h0.6C112.9,37.7,113,37.6,113,37.5z"/>
		<path class="st1" d="M124.5,38.1c0,0.3-0.1,0.5-0.3,0.5h-0.6v0.5c0,0.5-0.2,0.8-0.6,0.8h-2.1c0.2,0.5,0.6,1,1.1,1.4
			c-0.1-0.1-0.1-0.2-0.1-0.3c0-0.2,0.1-0.3,0.3-0.5c0.2-0.2,0.4-0.3,0.5-0.4c0.3-0.2,0.5-0.4,0.6-0.4c0.1-0.1,0.2-0.1,0.3-0.1
			c0.1,0,0.2,0.1,0.3,0.2c0.1,0.1,0.1,0.3,0.1,0.4c0,0.2-0.2,0.4-0.7,0.8c-0.5,0.4-0.8,0.6-1,0.6h-0.1c0.5,0.4,1.1,0.7,1.9,1
			c0.2,0.1,0.3,0.2,0.3,0.4c0,0.5-0.2,0.7-0.5,0.7s-0.8-0.2-1.5-0.7c-0.6-0.4-1.2-0.9-1.6-1.5v1.4c0,0.6-0.4,0.9-1.1,0.9
			c-0.9,0-1.3-0.2-1.3-0.6c0-0.4,0.1-0.6,0.4-0.6c0,0,0,0,0.1,0c0.4,0.1,0.6,0.1,0.7,0.1s0.2-0.1,0.2-0.4v-0.7
			c-0.1,0.1-0.4,0.3-0.8,0.6c-0.1,0-0.1,0.1-0.1,0.1c-0.9,0.7-1.5,1-1.7,1c-0.3,0-0.5-0.2-0.5-0.7c0-0.2,0.1-0.3,0.3-0.5
			c0.3-0.2,0.8-0.4,1.3-0.8c-0.2-0.1-0.5-0.3-0.9-0.6c-0.2-0.1-0.3-0.2-0.3-0.4c0-0.4,0.1-0.6,0.4-0.6c0.1,0,0.2,0,0.3,0.1
			c0,0,0.1,0.1,0.2,0.1c0.7,0.4,1.1,0.7,1.1,0.9c0,0.1,0,0.1,0,0.1c0.2-0.2,0.3-0.3,0.4-0.3c0.1-0.1,0.2-0.1,0.2-0.1
			c0.1,0,0.2,0,0.3,0.1v-0.9h-2.2c-0.2,0-0.4-0.2-0.4-0.5s0.1-0.5,0.4-0.5h2.2v-0.3h-2.8v1.1c0,0.5,0,1-0.1,1.6s-0.2,1.1-0.4,1.6
			c-0.2,0.5-0.3,0.7-0.6,0.7c-0.4,0-0.6-0.2-0.6-0.5c0-0.1,0-0.1,0-0.2c0.4-1.1,0.6-2.5,0.6-4.2v-3.1c0-0.6,0.3-0.8,0.8-0.8h2.9
			v-0.3c0-0.3,0.2-0.4,0.5-0.4s0.5,0.1,0.5,0.4v0.3h3.2c0.3,0,0.4,0.2,0.4,0.5s-0.1,0.5-0.4,0.5h-3.1V36h2.2c0.4,0,0.6,0.2,0.6,0.6
			v0.7h0.6C124.4,37.6,124.5,37.7,124.5,38.1z M119.9,37.6v-0.3h-2.3c-0.2,0-0.3-0.2-0.3-0.5s0.1-0.5,0.3-0.5h2.3V36h-2.4
			c-0.3,0-0.4,0.1-0.4,0.4v1.3h2.8V37.6z M122.7,37.6L122.7,37.6c0-0.2-0.1-0.3-0.2-0.3h-1.6v0.3H122.7z M122.7,38.8v-0.2h-1.8v0.3
			L122.7,38.8C122.6,38.9,122.7,38.9,122.7,38.8z"/>
		<path class="st1" d="M134,41.2c-0.1,0-0.1,0-0.2-0.1c-0.2-0.1-0.3-0.3-0.5-0.4V43c0,0.5-0.3,0.8-0.8,0.8h-5
			c-0.5,0-0.8-0.3-0.8-0.8v-1.4c-0.1,0.1-0.4,0.1-0.7,0.2l0,0h-0.1c-0.3,0-0.5-0.2-0.5-0.7c0-0.1,0-0.2,0.1-0.3s0.4-0.2,0.9-0.3
			c1.3-0.3,2.2-0.6,2.8-0.9h-3.3c-0.3,0-0.4-0.2-0.4-0.5l0,0c0-0.3,0.1-0.4,0.4-0.4h3.3v-0.4h-2.6c-0.3,0-0.4-0.2-0.4-0.5
			s0.1-0.5,0.4-0.5h2.6v-0.4c0,0-0.2,0-0.7,0s-1.2,0-2,0c-0.5,0-0.8-0.3-0.8-0.8v-0.9c0-0.5,0.2-0.8,0.7-0.8h6.8
			c0.5,0,0.7,0.3,0.7,0.8v0.9c0,0.5-0.2,0.8-0.7,0.8h-3.1v0.4h2.5c0.1,0,0.1-0.1,0.2-0.2c0.1-0.1,0.2-0.1,0.3-0.1
			c0.1,0,0.3,0.1,0.4,0.2c0.1,0.1,0.2,0.2,0.2,0.4s-0.4,0.5-1.2,1.1h1.4c0.2,0,0.4,0.1,0.4,0.4c0,0.3-0.1,0.5-0.4,0.5h-0.8
			c0.8,0.3,1.2,0.7,1.2,0.9C134.4,41,134.3,41.2,134,41.2z M128.2,36v-0.7h-1.1c-0.2,0-0.3,0.1-0.3,0.3v0.1c0,0.2,0.1,0.3,0.3,0.3
			C127.1,36,128.2,36,128.2,36z M132.3,41.6v-0.2c0-0.2-0.1-0.2-0.2-0.2H128c-0.2,0-0.2,0.1-0.2,0.3v0.1
			C127.8,41.6,132.3,41.6,132.3,41.6z M132.3,42.6v-0.2h-4.6v0.2c0,0.2,0.1,0.2,0.2,0.2h4.1C132.3,42.8,132.3,42.8,132.3,42.6z
			 M130.6,36v-0.7h-1.5V36H130.6z M132.5,40.3c-0.1,0-0.2-0.1-0.3-0.2c-0.2-0.1-0.3-0.2-0.3-0.3s0-0.1,0-0.2h-0.6
			c-0.1,0-0.2,0.1-0.3,0.2c-0.1,0.1-0.2,0.1-0.3,0.1c0,0-0.3,0.1-0.7,0.3h2.5V40.3z M131.7,38.2h-1.4v0.4h0.7
			C131.4,38.5,131.6,38.3,131.7,38.2z M133.1,35.7L133.1,35.7c0-0.3-0.1-0.4-0.3-0.4h-1.3V36h1.3C133,36,133.1,35.9,133.1,35.7z"/>
	</g>
	<g>
		<path class="st0" d="M18.3,7.8c1.1,0,1.9-0.9,1.9-1.9c0-1.1-0.9-1.9-1.9-1.9c-1.1,0-1.9,0.9-1.9,1.9C16.4,7,17.2,7.8,18.3,7.8z"/>
		<path class="st0" d="M6.9,9C8,9,8.8,8.1,8.8,7.1c0-1.1-0.9-1.9-1.9-1.9C5.8,5.2,5,6.1,5,7.1C5,8.2,5.9,9,6.9,9z"/>
		<path class="st0" d="M2,11.9c0.9,0,1.6-0.7,1.6-1.6c0-0.9-0.7-1.6-1.6-1.6c-0.9,0-1.6,0.7-1.6,1.6S1.1,11.9,2,11.9z"/>
		<path class="st0" d="M12.6,5.4c1.5,0,2.7-1.2,2.7-2.7S14.1,0,12.6,0S9.9,1.2,9.9,2.7C10,4.2,11.2,5.4,12.6,5.4z"/>
		<path class="st0" d="M18.3,9.3c-1.2,0-2.2,1-2.2,2.1v8.8h-1V9.5c0-1.3-1.1-2.4-2.5-2.4s-2.5,1.1-2.5,2.4v10.7h-1v-7.6
			c0-1.2-1-2.1-2.2-2.1s-2.2,1-2.2,2.1v7.6H3.8v-4.7c0-1-0.9-1.9-1.9-1.9c-1.1,0-1.9,0.8-1.9,1.9V22v8.3v12c0,1,0.8,1.7,1.7,1.7
			h16.9c1,0,1.7-0.8,1.7-1.7v-7.5c-0.1-0.7-0.6-1.2-1-1.4H5.9c-1.1,0-2.1-0.7-2.6-1.6C3.1,31.4,3,31,3,30.5c0-0.9,0.4-1.6,1-2.2
			c0.3-0.2,0.6-0.4,0.9-0.6c0.3-0.1,0.7-0.2,1.1-0.2h3.2h1h4.9h1h3.2c0.6-0.2,0.9-0.6,1.1-0.9V22V11.5C20.4,10.3,19.5,9.3,18.3,9.3z
			"/>
	</g>
</g>
</svg>
